SplineFontDB: 3.0
FontName: Sawasdee
FullName: Sawasdee
FamilyName: Sawasdee
Weight: Regular
Copyright: Copyright (c) 2007 Pol Udomwittayanukul. All rights reserved.
Version: 002.005
ItalicAngle: 0
UnderlinePosition: -153
UnderlineWidth: 102
Ascent: 1536
Descent: 512
LayerCount: 2
Layer: 0 0 "Back"  1
Layer: 1 0 "Fore"  0
XUID: [1021 180 1442959360 14105409]
UniqueID: 4256560
FSType: 8
OS2Version: 4
OS2_WeightWidthSlopeOnly: 0
OS2_UseTypoMetrics: 1
CreationTime: 1178430034
ModificationTime: 1445595796
PfmFamily: 17
TTFWeight: 400
TTFWidth: 5
LineGap: 184
VLineGap: 0
OS2TypoAscent: 0
OS2TypoAOffset: 1
OS2TypoDescent: 0
OS2TypoDOffset: 1
OS2TypoLinegap: 184
OS2WinAscent: 0
OS2WinAOffset: 1
OS2WinDescent: 0
OS2WinDOffset: 1
HheadAscent: 4
HheadAOffset: 1
HheadDescent: 82
HheadDOffset: 1
OS2Vendor: 'PfEd'
Lookup: 4 0 1 "'liga' Standard Ligatures in Latin lookup 0"  {"'liga' Standard Ligatures in Latin lookup 0"  } ['liga' ('latn' <'dflt' > ) ]
Lookup: 4 0 0 "'frac' Diagonal Fractions in Latin lookup 42"  {"'frac' Diagonal Fractions in Latin lookup 42"  } ['frac' ('latn' <'dflt' > ) ]
Lookup: 6 0 0 "'ccmp' Thai Tone Tilde Reordering"  {"'ccmp' Thai Tone Tilde Reordering"  } ['ccmp' ('DFLT' <'dflt' > 'latn' <'dflt' > 'thai' <'KUY ' 'MLY ' 'PAL ' 'SAN ' 'THA ' 'dflt' > ) ]
Lookup: 6 0 0 "'ccmp' Thai Conditional Descender Removal"  {"'ccmp' Thai Conditional Descender Removal"  } ['ccmp' ('DFLT' <'dflt' > 'thai' <'KUY ' 'MLY ' 'THA ' 'dflt' > ) ]
Lookup: 1 0 0 "'ccmp' Pali-Sanskrit Descender Removal"  {"'ccmp' Pali-Sanskrit Descender Removal" ("descless" ) } ['ccmp' ('thai' <'PAL ' 'SAN ' > ) ]
Lookup: 6 0 0 "'ccmp' Thai Below Vowel Phinthu Reordering"  {"'ccmp' Thai Below Vowel Phinthu Reordering"  } ['ccmp' ('DFLT' <'dflt' > 'latn' <'dflt' > 'thai' <'KUY ' 'MLY ' 'PAL ' 'SAN ' 'THA ' 'dflt' > ) ]

StartChar: exclam
Encoding: 33 33 1
Width: 498
VWidth: 2982
Flags: W
HStem: -15 167<177.955 322.813> 1473 20G<190 312>
VStem: 168 165<-4.37988 141.813> 190 122<944.648 1493> 222 58<269 817.352>
LayerCount: 2
Fore
SplineSet
280 269 m 1xc8
 222 269 l 1xc8
 190 1493 l 1
 312 1493 l 1xd0
 280 269 l 1xc8
168 69 m 0xe0
 168 114 205 152 250 152 c 0
 295 152 333 114 333 69 c 0
 333 25 295 -15 250 -15 c 0
 205 -15 168 25 168 69 c 0xe0
EndSplineSet
Validated: 1
EndChar

StartChar: quotedbl
Encoding: 34 34 2
Width: 690
VWidth: 2982
Flags: W
HStem: 1164 387<197 258 436 495>
VStem: 197 61<1164 1355.31> 436 59<1164 1342.97>
LayerCount: 2
Fore
SplineSet
258 1164 m 1
 197 1164 l 1
 168 1551 l 1
 286 1551 l 1
 258 1164 l 1
495 1164 m 1
 436 1164 l 1
 406 1551 l 1
 526 1551 l 1
 495 1164 l 1
EndSplineSet
Validated: 1
EndChar

StartChar: numbersign
Encoding: 35 35 3
Width: 1066
VWidth: 2982
Flags: W
HStem: 0 21G<105 201.752 521 615.881> 463 90<0 215 325 634 743 965> 940 90<101 329 440 743 859 1068> 1473 20G<454.248 553 873.205 969>
DStem2: 105 0 197 0 0.231943 0.972729<21.3388 475.887 588.947 966.321 1079.61 1534.39> 521 0 611 0 0.233176 0.972435<20.9858 476.586 589.521 965.854 1080.42 1535.09>
LayerCount: 2
Fore
SplineSet
611 0 m 1
 521 0 l 1
 634 463 l 1
 307 463 l 1
 197 0 l 1
 105 0 l 1
 215 463 l 1
 0 463 l 1
 0 553 l 1
 235 553 l 1
 329 940 l 1
 101 940 l 1
 101 1030 l 1
 349 1030 l 1
 459 1493 l 1
 553 1493 l 1
 440 1030 l 1
 767 1030 l 1
 878 1493 l 1
 969 1493 l 1
 859 1030 l 1
 1068 1030 l 1
 1068 940 l 1
 835 940 l 1
 743 553 l 1
 965 553 l 1
 965 463 l 1
 724 463 l 1
 611 0 l 1
325 553 m 1
 651 553 l 1
 743 940 l 1
 419 940 l 1
 325 553 l 1
EndSplineSet
Validated: 1
EndChar

StartChar: dollar
Encoding: 36 36 4
Width: 1179
VWidth: 2982
Flags: W
HStem: -27 91<407.302 549 643 770.086> 1198 21G<861.5 943.286> 1403 99<435.686 549 643 764.821>
VStem: 124 89<278.73 416.094> 239 90<1022.24 1295.89> 549 89<-150 -22.5747 64 763 902 1403 1496.39 1636> 967 92<255.972 571.096>
LayerCount: 2
Fore
SplineSet
643 -150 m 1
 549 -150 l 1
 549 -27 l 1
 352 -11 161 126 124 414 c 1
 213 427 l 1
 244 188 391 81 549 64 c 1
 549 806 l 1
 387 878 239 961 239 1155 c 0
 239 1332 361 1484 549 1502 c 1
 549 1636 l 1
 638 1636 l 1
 638 1502 l 1
 777 1484 912 1390 967 1226 c 1
 884 1198 l 1
 839 1325 743 1395 643 1412 c 1
 643 869 l 1
 839 786 1059 696 1059 427 c 0
 1059 179 867 9 643 -15 c 1
 643 -150 l 1
638 763 m 1
 638 64 l 1
 812 90 967 222 967 421 c 0
 967 615 808 692 638 763 c 1
549 902 m 1
 549 1403 l 1
 414 1386 329 1278 329 1149 c 0
 329 1023 427 959 549 902 c 1
EndSplineSet
Validated: 1
EndChar

StartChar: percent
Encoding: 37 37 5
Width: 1568
VWidth: 2982
Flags: W
HStem: -17 91<1028.31 1281.59> 0 21G<199 326.173> 474 92<1028.31 1281.59> 920 92<288.479 540.591> 1412 92<288.479 540.591>
VStem: 124 89<1089.82 1336.59> 618 89<1089.82 1333.37> 861 90<152.928 396.39> 1359 89<152.928 396.39>
DStem2: 199 0 312 0 0.579274 0.815133<65.458 1831.6>
LayerCount: 2
Fore
SplineSet
1155 566 m 0xbf80
 1316 566 1448 436 1448 275 c 0
 1448 114 1316 -17 1155 -17 c 0
 994 -17 861 114 861 275 c 0
 861 436 994 566 1155 566 c 0xbf80
951 275 m 0
 951 164 1041 74 1155 74 c 0
 1269 74 1359 164 1359 275 c 0
 1359 385 1269 474 1155 474 c 0
 1041 474 951 385 951 275 c 0
414 1504 m 0
 575 1504 707 1372 707 1211 c 0
 707 1050 575 920 414 920 c 0
 252 920 124 1050 124 1211 c 0
 124 1372 252 1504 414 1504 c 0
213 1211 m 0
 213 1102 302 1012 414 1012 c 0
 528 1012 618 1102 618 1211 c 0
 618 1323 528 1412 414 1412 c 0
 302 1412 213 1323 213 1211 c 0
1260 1493 m 1
 1370 1493 l 1
 312 0 l 1
 199 0 l 1x7f80
 1260 1493 l 1
EndSplineSet
Validated: 1
EndChar

StartChar: ampersand
Encoding: 38 38 6
Width: 1354
VWidth: 2982
Flags: W
HStem: -15 87<492.188 887.427> 0 21G<1194.44 1318> 1424 89<585.066 863.992>
VStem: 124 89<346.196 728.333> 421 89<1076.88 1352.22> 949 89<1191 1339.43> 1155 96<329.833 534>
DStem2: 575 1041 517 967 0.580942 -0.813945<16.6939 902.43 1020.22 1215.63>
LayerCount: 2
Fore
SplineSet
1155 534 m 1xbe
 1251 534 l 1
 1251 421 1215 316 1155 231 c 1
 1318 0 l 1
 1209 0 l 1x7e
 1094 158 l 1
 994 51 848 -15 687 -15 c 0
 376 -15 124 233 124 538 c 0
 124 767 267 965 468 1047 c 1
 436 1110 421 1173 421 1229 c 0
 421 1399 553 1513 726 1513 c 0
 886 1513 1038 1408 1038 1191 c 1
 949 1191 l 1
 949 1361 833 1424 726 1424 c 0
 598 1424 510 1345 510 1229 c 0
 510 1175 528 1113 575 1041 c 1
 1100 307 l 1
 1137 376 1155 450 1155 534 c 1xbe
1045 231 m 1
 517 967 l 1
 338 902 213 732 213 534 c 0
 213 280 423 72 687 72 c 0xbe
 831 72 959 134 1045 231 c 1
EndSplineSet
Validated: 1
EndChar

StartChar: quoteright
Encoding: 8217 8217 7
Width: 523
VWidth: 2982
Flags: W
HStem: 1305 201<145.824 249.474>
VStem: 252 104<1207.45 1307>
LayerCount: 2
Fore
SplineSet
231 1506 m 0
 286 1506 356 1464 356 1367 c 0
 356 1254 289 1147 201 1077 c 1
 126 1077 l 1
 197 1135 252 1238 252 1307 c 1
 246 1305 237 1305 231 1305 c 0
 175 1305 128 1350 128 1406 c 0
 128 1461 175 1506 231 1506 c 0
EndSplineSet
Validated: 1
EndChar

StartChar: parenleft
Encoding: 40 40 8
Width: 487
VWidth: 2982
Flags: W
VStem: 124 100<273.247 1079.99>
LayerCount: 2
Fore
SplineSet
352 1574 m 1
 421 1574 l 1
 289 1278 224 976 224 669 c 0
 224 363 291 49 427 -269 c 1
 359 -269 l 1
 201 51 124 369 124 683 c 0
 124 985 197 1283 352 1574 c 1
EndSplineSet
Validated: 1
EndChar

StartChar: parenright
Encoding: 41 41 9
Width: 457
VWidth: 2982
Flags: W
VStem: 267 100<280.678 1072.9>
LayerCount: 2
Fore
SplineSet
69 1574 m 1
 137 1574 l 1
 291 1283 367 985 367 683 c 0
 367 369 286 51 132 -269 c 1
 62 -269 l 1
 199 49 267 363 267 669 c 0
 267 976 199 1278 69 1574 c 1
EndSplineSet
Validated: 1
EndChar

StartChar: asterisk
Encoding: 42 42 10
Width: 910
VWidth: 2982
Flags: W
HStem: 1224 542
VStem: 410 94<1558 1766>
DStem2: 188 1612 168 1525 0.971668 -0.236352<1.12924 221.619> 248 1273 322 1224 0.553753 0.832681<0.17638 241.469> 530 1476 457 1424 0.553753 -0.832681<2.87542 243.615> 504 1558 530 1476 0.971668 0.236352<5.88253 226.372>
LayerCount: 2
Fore
SplineSet
410 1766 m 1
 504 1766 l 1
 504 1558 l 1
 726 1612 l 1
 745 1525 l 1
 530 1476 l 1
 665 1273 l 1
 591 1224 l 1
 457 1424 l 1
 322 1224 l 1
 248 1273 l 1
 383 1476 l 1
 168 1525 l 1
 188 1612 l 1
 410 1558 l 1
 410 1766 l 1
EndSplineSet
Validated: 1
EndChar

StartChar: plus
Encoding: 43 43 11
Width: 1036
VWidth: 2982
Flags: W
HStem: 701 89<124 474 564 916>
VStem: 474 90<349 701 790 1144>
LayerCount: 2
Fore
SplineSet
564 349 m 1
 474 349 l 1
 474 701 l 1
 124 701 l 1
 124 790 l 1
 474 790 l 1
 474 1144 l 1
 564 1144 l 1
 564 790 l 1
 916 790 l 1
 916 701 l 1
 564 701 l 1
 564 349 l 1
EndSplineSet
Validated: 1
EndChar

StartChar: comma
Encoding: 44 44 12
Width: 523
VWidth: 2982
Flags: W
HStem: -15 167<177.955 293.811>
VStem: 295 64<-101.021 0>
LayerCount: 2
Fore
SplineSet
168 69 m 4
 168 114 205 152 250 152 c 4
 297 152 359 116 359 30 c 4
 359 -137 213 -242 213 -242 c 5
 168 -242 l 5
 226 -195 295 -74 295 0 c 5
 280 -11 269 -15 250 -15 c 4
 205 -15 168 25 168 69 c 4
EndSplineSet
Validated: 1
EndChar

StartChar: hyphen
Encoding: 45 45 13
Width: 856
VWidth: 2982
Flags: W
HStem: 553 90<124 737>
VStem: 124 613<553 643>
LayerCount: 2
Fore
SplineSet
737 643 m 5
 737 553 l 5
 124 553 l 5
 124 643 l 5
 737 643 l 5
EndSplineSet
Validated: 1
EndChar

StartChar: period
Encoding: 46 46 14
Width: 498
VWidth: 2982
Flags: W
HStem: -15 167<177.955 322.813>
VStem: 168 165<-4.37988 141.813>
LayerCount: 2
Fore
SplineSet
168 69 m 4
 168 114 205 152 250 152 c 4
 295 152 333 114 333 69 c 4
 333 25 295 -15 250 -15 c 4
 205 -15 168 25 168 69 c 4
EndSplineSet
Validated: 1
EndChar

StartChar: slash
Encoding: 47 47 15
Width: 1168
VWidth: 2982
Flags: W
HStem: 0 21G<0 123.226> 1473 20G<1044.81 1171>
DStem2: 0 0 109 0 0.579637 0.814875<63.1804 1830.44>
LayerCount: 2
Fore
SplineSet
1059 1493 m 1
 1171 1493 l 1
 109 0 l 1
 0 0 l 1
 1059 1493 l 1
EndSplineSet
Validated: 1
EndChar

StartChar: zero
Encoding: 48 48 16
Width: 1192
VWidth: 2982
Flags: W
HStem: -15 89<461.783 733.164> 1417 89<455.673 733.164>
VStem: 101 89<451.994 1039.47> 1003 89<451.994 1039.47>
LayerCount: 2
Fore
SplineSet
1092 745 m 0
 1092 346 889 -15 598 -15 c 0
 305 -15 101 346 101 745 c 0
 101 1147 305 1506 598 1506 c 0
 889 1506 1092 1147 1092 745 c 0
190 745 m 0
 190 356 391 74 598 74 c 0
 803 74 1003 356 1003 745 c 0
 1003 1137 803 1417 598 1417 c 0
 391 1417 190 1137 190 745 c 0
EndSplineSet
Validated: 1
EndChar

StartChar: one
Encoding: 49 49 17
Width: 1192
VWidth: 2982
Flags: W
HStem: 0 21G<552.94 643> 1473 20G<609.369 643>
VStem: 553 90<0 1332>
DStem2: 342 1314 387 1235 0.859502 0.511132<0 187.117>
LayerCount: 2
Fore
SplineSet
553 0 m 1
 549 1332 l 1
 387 1235 l 1
 342 1314 l 1
 643 1493 l 1
 643 0 l 1
 553 0 l 1
EndSplineSet
Validated: 1
EndChar

StartChar: two
Encoding: 50 50 18
Width: 1192
VWidth: 2982
Flags: W
HStem: 0 90<190 1074> 1032 21G<164 252> 1417 89<440.666 755.913>
VStem: 164 88<1032 1215.75> 942 88<895.065 1217.04>
LayerCount: 2
Fore
SplineSet
1074 0 m 1
 101 0 l 1
 101 43 l 2
 101 553 942 628 942 1032 c 0
 942 1251 786 1417 600 1417 c 0
 412 1417 252 1251 252 1032 c 1
 164 1032 l 1
 164 1292 356 1506 598 1506 c 0
 839 1506 1030 1292 1030 1032 c 0
 1030 579 244 495 190 90 c 1
 1074 90 l 1
 1074 0 l 1
EndSplineSet
Validated: 1
EndChar

StartChar: three
Encoding: 51 51 19
Width: 1192
VWidth: 2982
Flags: W
HStem: -15 89<430.154 766.662> 814 90<600 751.516> 1417 89<453.678 746.41>
VStem: 137 94<276.387 446> 242 89<1153 1291.27> 869 90<1013.65 1297.04> 969 88<276.836 614.367>
LayerCount: 2
Fore
SplineSet
137 446 m 1
 231 446 l 1
 231 242 396 74 600 74 c 0
 803 74 969 242 969 446 c 0
 969 647 803 814 600 814 c 1
 600 904 l 1
 745 904 869 1003 869 1153 c 0
 869 1298 750 1417 600 1417 c 0
 450 1417 331 1298 331 1153 c 1
 242 1153 l 1
 242 1350 403 1506 600 1506 c 0
 797 1506 959 1350 959 1153 c 0
 959 1023 889 920 788 861 c 1
 947 790 1057 628 1057 446 c 0
 1057 190 850 -15 598 -15 c 0
 342 -15 137 190 137 446 c 1
EndSplineSet
Validated: 1
EndChar

StartChar: four
Encoding: 52 52 20
Width: 1192
VWidth: 2982
Flags: W
HStem: 0 21G<844 933> 278 89<179 844 933 1068> 1491 20G<917.866 933>
VStem: 844 89<0 278 367 1243>
DStem2: 0 278 179 367 0.603409 0.797432<178.982 1278.8>
LayerCount: 2
Fore
SplineSet
844 367 m 1
 844 1243 l 1
 179 367 l 1
 844 367 l 1
933 0 m 1
 844 0 l 1
 844 278 l 1
 0 278 l 1
 933 1511 l 1
 933 367 l 1
 1100 367 l 1
 1068 278 l 1
 933 278 l 1
 933 0 l 1
EndSplineSet
Validated: 1
EndChar

StartChar: five
Encoding: 53 53 21
Width: 1192
VWidth: 2982
Flags: W
HStem: -17 89<421.067 769.045> 978 85<423.439 764.51> 1403 90<280 916>
VStem: 98 90<314.323 440> 1006 88<325.96 721.101>
DStem2: 134 745 239 904 0.0839274 0.996472<167.251 667.932>
LayerCount: 2
Fore
SplineSet
916 1403 m 1
 280 1403 l 1
 239 904 l 1
 331 1003 457 1063 593 1063 c 0
 875 1063 1094 818 1094 521 c 0
 1094 226 875 -17 593 -17 c 0
 340 -17 134 186 98 440 c 1
 188 440 l 1
 224 231 393 72 593 72 c 0
 818 72 1006 271 1006 526 c 0
 1006 779 818 978 593 978 c 0
 440 978 305 884 233 745 c 1
 134 745 l 1
 197 1493 l 1
 947 1493 l 1
 916 1403 l 1
EndSplineSet
Validated: 1
EndChar

StartChar: six
Encoding: 54 54 22
Width: 1192
VWidth: 2982
Flags: W
HStem: 0 87<422.392 764.51> 994 87<424.229 764.51> 1484 20G<456.5 728>
VStem: 92 89<342.43 736.244> 1006 88<342.43 737.748>
LayerCount: 2
Fore
SplineSet
1006 540 m 0
 1006 795 818 994 593 994 c 0
 369 994 181 795 181 540 c 0
 181 286 369 87 593 87 c 0
 818 87 1006 286 1006 540 c 0
620 1504 m 1
 728 1504 l 1
 421 1047 l 1
 474 1068 534 1081 593 1081 c 0
 875 1081 1094 835 1094 540 c 0
 1094 244 875 0 593 0 c 0
 314 0 92 244 92 540 c 0
 92 835 293 1014 620 1504 c 1
EndSplineSet
Validated: 1
EndChar

StartChar: seven
Encoding: 55 55 23
Width: 1192
VWidth: 2982
Flags: W
HStem: 0 21G<396 503.962> 1403 90<164 1027>
DStem2: 396 0 495 0 0.408915 0.912572<40.4826 1538.36>
LayerCount: 2
Fore
SplineSet
164 1493 m 1
 1164 1493 l 1
 495 0 l 1
 396 0 l 1
 1027 1403 l 1
 134 1403 l 1
 164 1493 l 1
EndSplineSet
Validated: 1
EndChar

StartChar: eight
Encoding: 56 56 24
Width: 1192
VWidth: 2982
Flags: W
HStem: -15 89<428.616 765.222> 814 90<453.391 740.453> 1417 89<450.333 743.469>
VStem: 137 89<276.836 612.497> 242 89<1023.54 1297.27> 861 90<1018.41 1303.67> 967 90<276.836 616.349>
LayerCount: 2
Fore
SplineSet
598 1506 m 0
 790 1506 951 1352 951 1162 c 0
 951 1036 884 925 781 867 c 1
 942 795 1057 634 1057 446 c 0
 1057 190 850 -15 598 -15 c 0
 342 -15 137 190 137 446 c 0
 137 634 250 795 412 867 c 1
 312 925 242 1036 242 1162 c 0
 242 1352 403 1506 598 1506 c 0
226 446 m 0
 226 242 393 74 598 74 c 0
 799 74 967 242 967 446 c 0
 967 647 799 814 598 814 c 0
 393 814 226 647 226 446 c 0
598 904 m 0
 743 904 861 1021 861 1162 c 0
 861 1301 743 1417 598 1417 c 0
 450 1417 331 1301 331 1162 c 0
 331 1021 450 904 598 904 c 0
EndSplineSet
Validated: 1
EndChar

StartChar: nine
Encoding: 57 57 25
Width: 1192
VWidth: 2982
Flags: W
HStem: 0 21G<459 730.5> 423 87<422.392 763.073> 1417 87<422.392 764.51>
VStem: 92 89<766.662 1161.98> 1006 88<768.229 1161.98>
LayerCount: 2
Fore
SplineSet
181 965 m 0
 181 709 369 510 593 510 c 0
 818 510 1006 709 1006 965 c 0
 1006 1218 818 1417 593 1417 c 0
 369 1417 181 1218 181 965 c 0
566 0 m 1
 459 0 l 1
 767 457 l 1
 714 436 654 423 593 423 c 0
 314 423 92 669 92 965 c 0
 92 1260 314 1504 593 1504 c 0
 875 1504 1094 1260 1094 965 c 0
 1094 669 895 491 566 0 c 1
EndSplineSet
Validated: 1
EndChar

StartChar: colon
Encoding: 58 58 26
Width: 498
VWidth: 2982
Flags: W
HStem: -15 167<177.955 322.813> 867 165<177.955 322.813>
VStem: 168 165<-4.37988 141.813 876.955 1021.81>
LayerCount: 2
Fore
SplineSet
168 69 m 0
 168 114 205 152 250 152 c 0
 295 152 333 114 333 69 c 0
 333 25 295 -15 250 -15 c 0
 205 -15 168 25 168 69 c 0
168 949 m 0
 168 994 205 1032 250 1032 c 0
 295 1032 333 994 333 949 c 0
 333 904 295 867 250 867 c 0
 205 867 168 904 168 949 c 0
EndSplineSet
Validated: 1
EndChar

StartChar: semicolon
Encoding: 59 59 27
Width: 498
VWidth: 2982
Flags: W
HStem: -15 167<177.955 293.811> 867 165<177.955 322.813>
VStem: 168 165<876.955 1021.81> 295 64<-101.021 0>
LayerCount: 2
Fore
SplineSet
168 69 m 0xe0
 168 114 205 152 250 152 c 0
 297 152 359 116 359 30 c 0xd0
 359 -137 213 -242 213 -242 c 1
 168 -242 l 1xe0
 226 -195 295 -74 295 0 c 1xd0
 280 -11 269 -15 250 -15 c 0
 205 -15 168 25 168 69 c 0xe0
168 949 m 0xe0
 168 994 205 1032 250 1032 c 0
 295 1032 333 994 333 949 c 0
 333 904 295 867 250 867 c 0
 205 867 168 904 168 949 c 0xe0
EndSplineSet
Validated: 1
EndChar

StartChar: less
Encoding: 60 60 28
Width: 1183
VWidth: 2982
Flags: W
HStem: 0 21G<918.441 1126> 994 20G<918.312 1126>
DStem2: 124 508 295 508 0.854119 0.520077<146.054 969.516> 295 508 124 508 0.853206 -0.521575<0 824.663>
LayerCount: 2
Fore
SplineSet
1126 0 m 1
 951 0 l 1
 124 508 l 1
 951 1014 l 1
 1126 1014 l 1
 295 508 l 1
 1126 0 l 1
EndSplineSet
Validated: 1
EndChar

StartChar: equal
Encoding: 61 61 29
Width: 1036
VWidth: 2982
Flags: W
HStem: 432 89<124 916> 671 90<124 916>
LayerCount: 2
Fore
SplineSet
916 761 m 1
 916 671 l 1
 124 671 l 1
 124 761 l 1
 916 761 l 1
916 521 m 1
 916 432 l 1
 124 432 l 1
 124 521 l 1
 916 521 l 1
EndSplineSet
Validated: 1
EndChar

StartChar: greater
Encoding: 62 62 30
Width: 1203
VWidth: 2982
Flags: W
HStem: 0 21G<124 327.717> 994 20G<124 327.846>
DStem2: 295 1014 124 1014 0.854119 -0.520077<0 823.461> 124 0 295 0 0.853206 0.521575<145.898 970.561>
LayerCount: 2
Fore
SplineSet
295 0 m 1
 124 0 l 1
 951 508 l 1
 124 1014 l 1
 295 1014 l 1
 1126 508 l 1
 295 0 l 1
EndSplineSet
Validated: 1
EndChar

StartChar: question
Encoding: 63 63 31
Width: 1036
VWidth: 2982
Flags: W
HStem: -15 167<416.651 562.642> 1417 89<374.657 696.481>
VStem: 124 89<1130 1263.48> 406 167<-3.35188 140.821> 448 90<307 618.468> 826 90<1011.34 1290.13>
LayerCount: 2
Fore
SplineSet
406 69 m 0xf4
 406 114 446 152 491 152 c 0
 534 152 573 114 573 69 c 0
 573 25 534 -15 491 -15 c 0
 446 -15 406 25 406 69 c 0xf4
538 307 m 1xec
 448 307 l 1
 448 457 l 2
 448 806 826 929 826 1130 c 0
 826 1301 701 1417 540 1417 c 0
 349 1417 213 1269 213 1130 c 1
 124 1130 l 1
 124 1327 307 1506 540 1506 c 0
 754 1506 916 1350 916 1130 c 0
 916 871 538 763 538 457 c 2
 538 307 l 1xec
EndSplineSet
Validated: 1
EndChar

StartChar: at
Encoding: 64 64 32
Width: 2029
VWidth: 2982
Flags: W
HStem: -495 85<787.418 1252.17> -17 91<676.507 998.92 1490.99 1698.24> 938 89<908.736 1232.83> 1412 92<776.69 1257.01>
VStem: 124 91<207.69 798.427> 466 96<194.203 564.656> 1350 47<352 430> 1820 89<238.398 814.013>
DStem2: 1399 822 1542 1014 0.231003 0.972953<0 198.126>
LayerCount: 2
Fore
SplineSet
1448 1014 m 1
 1542 1014 l 1
 1424 517 l 1
 1417 495 1397 430 1397 359 c 0
 1397 177 1506 72 1596 72 c 0
 1685 72 1820 179 1820 526 c 0
 1820 1021 1450 1412 1019 1412 c 0
 579 1412 215 1010 215 502 c 0
 215 -7 579 -410 1019 -410 c 0
 1157 -410 1290 -367 1406 -295 c 1
 1453 -369 l 1
 1325 -450 1175 -495 1019 -495 c 0
 519 -495 124 -45 124 504 c 0
 124 1055 519 1504 1019 1504 c 0
 1506 1504 1909 1063 1909 526 c 0
 1909 107 1726 -20 1596 -20 c 0
 1459 -20 1343 105 1314 275 c 1
 1198 105 1012 -17 824 -17 c 0
 609 -17 466 143 466 365 c 0
 466 701 779 1027 1077 1027 c 0
 1229 1027 1345 947 1399 822 c 1
 1448 1014 l 1
1083 938 m 0
 833 938 562 651 562 367 c 0
 562 197 662 74 826 74 c 0
 1072 74 1350 352 1350 645 c 0
 1350 814 1247 938 1083 938 c 0
EndSplineSet
Validated: 1
EndChar

StartChar: A
Encoding: 65 65 33
Width: 1322
VWidth: 2982
Flags: W
HStem: 0 21G<36 140.207 1185.75 1290> 463 90<365 967> 1491 20G<653.714 670.312>
DStem2: 36 0 132 0 0.382748 0.923853<36.7438 537.21 636.815 1421.43> 662 1511 665 1278 0.383791 -0.92342<216.308 1001.69 1098.62 1599.46>
LayerCount: 2
Fore
SplineSet
365 553 m 1
 967 553 l 1
 665 1278 l 1
 365 553 l 1
1003 463 m 1
 322 463 l 1
 132 0 l 1
 36 0 l 1
 662 1511 l 1
 1290 0 l 1
 1194 0 l 1
 1003 463 l 1
EndSplineSet
Validated: 1
EndChar

StartChar: B
Encoding: 66 66 34
Width: 1293
VWidth: 2982
Flags: W
HStem: 0 90<258 878.109> 786 89<258 835.427> 1403 90<258 834.985>
VStem: 168 90<90 786 875 1403> 969 94<997.251 1273.18> 1083 90<279.181 596.47>
LayerCount: 2
Fore
SplineSet
258 90 m 1
 692 90 l 2
 914 90 1083 250 1083 438 c 0
 1083 626 914 786 692 786 c 2
 258 786 l 1
 258 90 l 1
969 1137 m 0
 969 1278 842 1403 673 1403 c 2
 258 1403 l 1
 258 875 l 1
 673 875 l 2
 843 875 969 994 969 1137 c 0
168 1493 m 1
 681 1493 l 2
 889 1493 1063 1332 1063 1135 c 0
 1063 1010 991 902 884 839 c 1
 1055 773 1173 620 1173 438 c 0
 1173 195 955 0 692 0 c 2
 168 0 l 1
 168 1493 l 1
EndSplineSet
Validated: 1
EndChar

StartChar: C
Encoding: 67 67 35
Width: 1608
VWidth: 2982
Flags: W
HStem: -11 85<652.698 1110.72> 1417 94<652.698 1115.3>
VStem: 124 89<510.286 976.482>
LayerCount: 2
Fore
SplineSet
1417 346 m 1
 1489 297 l 1
 1352 109 1130 -11 880 -11 c 0
 463 -11 124 329 124 750 c 0
 124 1171 463 1511 880 1511 c 0
 1130 1511 1352 1388 1489 1200 c 1
 1417 1147 l 1
 1296 1309 1102 1417 880 1417 c 0
 510 1417 213 1117 213 745 c 0
 213 376 510 74 880 74 c 0
 1102 74 1296 181 1417 346 c 1
EndSplineSet
Validated: 1
EndChar

StartChar: D
Encoding: 68 68 36
Width: 1346
VWidth: 2982
Flags: W
HStem: 0 90<258 710.868> 1403 90<258 710.868>
VStem: 168 90<90 1403> 1137 89<518.585 972.524>
LayerCount: 2
Fore
SplineSet
258 90 m 1
 468 90 l 2
 839 90 1137 376 1137 745 c 0
 1137 1117 839 1403 468 1403 c 2
 258 1403 l 1
 258 90 l 1
168 0 m 1
 168 1493 l 1
 468 1493 l 2
 886 1493 1226 1166 1226 745 c 0
 1226 325 886 0 468 0 c 2
 168 0 l 1
EndSplineSet
Validated: 1
EndChar

StartChar: E
Encoding: 69 69 37
Width: 1094
VWidth: 2982
Flags: W
HStem: 0 90<258 1032> 822 90<258 974> 1403 90<258 1036>
VStem: 168 90<90 822 912 1403>
LayerCount: 2
Fore
SplineSet
974 912 m 1
 974 822 l 1
 258 822 l 1
 258 90 l 1
 1032 90 l 1
 1032 0 l 1
 168 0 l 1
 168 1493 l 1
 1036 1493 l 1
 1036 1403 l 1
 258 1403 l 1
 258 912 l 1
 974 912 l 1
EndSplineSet
Validated: 1
EndChar

StartChar: F
Encoding: 70 70 38
Width: 1094
VWidth: 2982
Flags: W
HStem: 0 21G<168 258> 822 90<258 974> 1403 90<258 1036>
VStem: 168 90<0 822 912 1403>
LayerCount: 2
Fore
SplineSet
974 912 m 1
 974 822 l 1
 258 822 l 1
 258 0 l 1
 168 0 l 1
 168 1493 l 1
 1036 1493 l 1
 1036 1403 l 1
 258 1403 l 1
 258 912 l 1
 974 912 l 1
EndSplineSet
Validated: 1
EndChar

StartChar: G
Encoding: 71 71 39
Width: 1758
VWidth: 2982
Flags: W
HStem: -15 89<652.698 1110.73> 701 89<880 1547> 1417 89<652.698 1114.86>
VStem: 124 89<516.912 973.982>
CounterMasks: 1 e0
LayerCount: 2
Fore
SplineSet
1489 1200 m 1
 1417 1147 l 1
 1296 1309 1102 1417 880 1417 c 0
 510 1417 213 1117 213 745 c 0
 213 376 510 74 880 74 c 0
 1235 74 1525 352 1547 701 c 1
 880 701 l 1
 880 790 l 1
 1638 790 l 1
 1638 745 l 2
 1638 325 1298 -15 880 -15 c 0
 463 -15 124 325 124 745 c 0
 124 1166 463 1506 880 1506 c 0
 1128 1506 1352 1386 1489 1200 c 1
EndSplineSet
Validated: 1
EndChar

StartChar: H
Encoding: 72 72 40
Width: 1393
VWidth: 2982
Flags: W
HStem: 0 21G<168 258 1139 1229> 822 90<258 1139> 1473 20G<168 258 1139 1229>
VStem: 168 90<0 822 912 1493> 1139 90<0 822 912 1493>
LayerCount: 2
Fore
SplineSet
1139 1493 m 1
 1229 1493 l 1
 1229 0 l 1
 1139 0 l 1
 1139 822 l 1
 258 822 l 1
 258 0 l 1
 168 0 l 1
 168 1493 l 1
 258 1493 l 1
 258 912 l 1
 1139 912 l 1
 1139 1493 l 1
EndSplineSet
Validated: 1
EndChar

StartChar: I
Encoding: 73 73 41
Width: 422
VWidth: 2982
Flags: W
HStem: 0 21G<168 258> 1473 20G<168 258>
VStem: 168 90<0 1493>
LayerCount: 2
Fore
SplineSet
258 0 m 1
 168 0 l 1
 168 1493 l 1
 258 1493 l 1
 258 0 l 1
EndSplineSet
Validated: 1
EndChar

StartChar: J
Encoding: 74 74 42
Width: 1021
VWidth: 2982
Flags: W
HStem: -15 89<354.505 632.935> 1473 20G<773 857>
VStem: 124 89<224.194 387> 773 84<224.194 1493>
LayerCount: 2
Fore
SplineSet
773 1493 m 1
 857 1493 l 1
 857 387 l 2
 857 168 696 -15 491 -15 c 0
 284 -15 124 168 124 387 c 1
 213 387 l 1
 213 213 340 74 493 74 c 0
 645 74 773 213 773 387 c 2
 773 1493 l 1
EndSplineSet
Validated: 1
EndChar

StartChar: K
Encoding: 75 75 43
Width: 1149
VWidth: 2982
Flags: W
HStem: 0 21G<168 258 1009.33 1139> 1473 20G<168 258 929.139 1085>
VStem: 168 90<0 737 859 1493>
DStem2: 258 859 258 737 0.73808 0.674714<0 135.699 220.593 939.258> 481 942 419 884 0.572644 -0.819804<12.0447 1082.63>
LayerCount: 2
Fore
SplineSet
168 1493 m 1
 258 1493 l 1
 258 859 l 1
 951 1493 l 1
 1085 1493 l 1
 481 942 l 1
 1139 0 l 1
 1023 0 l 1
 419 884 l 1
 258 737 l 1
 258 0 l 1
 168 0 l 1
 168 1493 l 1
EndSplineSet
Validated: 1
EndChar

StartChar: L
Encoding: 76 76 44
Width: 1094
VWidth: 2982
Flags: W
HStem: 0 90<258 1036> 1473 20G<168 258>
VStem: 168 90<90 1493>
LayerCount: 2
Fore
SplineSet
1036 0 m 1
 168 0 l 1
 168 1493 l 1
 258 1493 l 1
 258 90 l 1
 1036 90 l 1
 1036 0 l 1
EndSplineSet
Validated: 1
EndChar

StartChar: M
Encoding: 77 77 45
Width: 1732
VWidth: 2982
Flags: W
HStem: 0 21G<36 127.8 852.635 869.628 1601.35 1699> 1491 20G<318.214 330.41 1412.45 1424.68>
DStem2: 36 0 124 0 0.185977 0.982554<16.3659 1237.83> 322 1511 352 1200 0.387644 -0.921809<298.312 1405.93> 867 215 861 -17 0.393063 0.919512<0 1109.72> 1421 1511 1386 1200 0.180947 -0.983493<299.533 1519.35>
LayerCount: 2
Fore
SplineSet
124 0 m 1
 36 0 l 1
 322 1511 l 1
 867 215 l 1
 1421 1511 l 1
 1699 0 l 1
 1605 0 l 1
 1386 1200 l 1
 861 -17 l 1
 352 1200 l 1
 124 0 l 1
EndSplineSet
Validated: 1
EndChar

StartChar: N
Encoding: 78 78 46
Width: 1678
VWidth: 2982
Flags: W
HStem: 0 21G<168 258 1493.8 1513> 1491 2G<168 187.19 1424 1513>
VStem: 168 90<0 1290> 1424 89<202 1493>
DStem2: 168 1511 258 1290 0.692348 -0.721564<221.777 1814.12>
LayerCount: 2
Fore
SplineSet
168 0 m 1
 168 1511 l 1
 1424 202 l 1
 1424 1493 l 1
 1513 1493 l 1
 1513 -17 l 1
 258 1290 l 1
 258 0 l 1
 168 0 l 1
EndSplineSet
Validated: 1
EndChar

StartChar: O
Encoding: 79 79 47
Width: 1758
VWidth: 2982
Flags: W
HStem: -15 89<652.698 1107.9> 1417 89<652.698 1107.9>
VStem: 124 89<516.912 973.982> 1549 89<516.912 973.982>
LayerCount: 2
Fore
SplineSet
880 1506 m 0
 1298 1506 1638 1166 1638 745 c 0
 1638 325 1298 -15 880 -15 c 0
 463 -15 124 325 124 745 c 0
 124 1166 463 1506 880 1506 c 0
213 745 m 0
 213 376 510 74 880 74 c 0
 1251 74 1549 376 1549 745 c 0
 1549 1117 1251 1417 880 1417 c 0
 510 1417 213 1117 213 745 c 0
EndSplineSet
Validated: 1
EndChar

StartChar: P
Encoding: 80 80 48
Width: 1203
VWidth: 2982
Flags: W
HStem: 0 21G<168 258> 701 94<258 850.415> 1406 89<258 849.281>
VStem: 168 90<0 701 795 1406> 991 92<942.778 1260.15>
LayerCount: 2
Fore
SplineSet
168 0 m 1
 168 1495 l 1
 698 1495 l 2
 914 1495 1083 1316 1083 1100 c 0
 1083 880 914 701 701 701 c 2
 258 701 l 1
 258 0 l 1
 168 0 l 1
258 795 m 1
 701 795 l 2
 859 795 991 929 991 1100 c 0
 991 1269 859 1406 698 1406 c 2
 258 1406 l 1
 258 795 l 1
EndSplineSet
Validated: 1
EndChar

StartChar: Q
Encoding: 81 81 49
Width: 1758
VWidth: 2982
Flags: W
HStem: -15 89<652.698 1116.06> 0 21G<1525.2 1664> 1417 89<652.698 1107.9>
VStem: 124 89<516.912 973.982> 1549 89<508.421 973.982>
DStem2: 1238 508 1121 508 0.642555 -0.766239<0 246.219 348.229 584.586>
LayerCount: 2
Fore
SplineSet
1121 508 m 1xb8
 1238 508 l 1
 1397 320 l 1
 1493 436 1549 585 1549 745 c 0
 1549 1117 1251 1417 880 1417 c 0
 510 1417 213 1117 213 745 c 0
 213 376 510 74 880 74 c 0
 1057 74 1215 143 1335 252 c 1
 1121 508 l 1xb8
1664 0 m 1x78
 1542 0 l 1x78
 1390 181 l 1
 1256 60 1077 -15 880 -15 c 0xb8
 463 -15 124 325 124 745 c 0
 124 1166 463 1506 880 1506 c 0
 1298 1506 1638 1166 1638 745 c 0
 1638 555 1570 383 1453 248 c 1
 1664 0 l 1x78
EndSplineSet
Validated: 1
EndChar

StartChar: R
Encoding: 82 82 50
Width: 1203
VWidth: 2982
Flags: W
HStem: 0 21G<168 258 1052.04 1164> 701 89<258 679> 1403 90<258 849.281>
VStem: 168 90<0 701 790 1403> 991 92<935.417 1256.21>
DStem2: 777 707 679 701 0.480156 -0.877183<0 757.493>
LayerCount: 2
Fore
SplineSet
168 0 m 1
 168 1493 l 1
 698 1493 l 2
 914 1493 1083 1314 1083 1094 c 0
 1083 904 951 743 777 707 c 1
 1164 0 l 1
 1063 0 l 1
 679 701 l 1
 258 701 l 1
 258 0 l 1
 168 0 l 1
258 790 m 1
 701 790 l 2
 859 790 991 925 991 1094 c 0
 991 1265 859 1403 698 1403 c 2
 258 1403 l 1
 258 790 l 1
EndSplineSet
Validated: 1
EndChar

StartChar: S
Encoding: 83 83 51
Width: 1177
VWidth: 2982
Flags: W
HStem: -17 92<405.536 770.269> 1200 21G<855.5 938.621> 1417 94<437.548 745.08>
VStem: 124 89<286.086 422.772> 239 90<1040.01 1306.6> 967 90<260.888 581.24>
LayerCount: 2
Fore
SplineSet
965 1229 m 1
 880 1200 l 1
 831 1350 707 1417 589 1417 c 0
 432 1417 329 1301 329 1162 c 0
 329 814 1057 916 1057 427 c 0
 1057 158 831 -17 585 -17 c 0
 376 -17 164 114 124 421 c 1
 213 432 l 1
 248 177 414 75 585 75 c 0
 779 75 967 208 967 430 c 0
 967 848 239 734 239 1164 c 0
 239 1350 378 1511 589 1511 c 0
 741 1511 902 1414 965 1229 c 1
EndSplineSet
Validated: 1
EndChar

StartChar: T
Encoding: 84 84 52
Width: 982
VWidth: 2982
Flags: W
HStem: 0 21G<448 538> 1403 90<60 448 538 925>
VStem: 448 90<0 1403>
LayerCount: 2
Fore
SplineSet
925 1493 m 1
 925 1403 l 1
 538 1403 l 1
 538 0 l 1
 448 0 l 1
 448 1403 l 1
 60 1403 l 1
 60 1493 l 1
 925 1493 l 1
EndSplineSet
Validated: 1
EndChar

StartChar: U
Encoding: 85 85 53
Width: 1393
VWidth: 2982
Flags: W
HStem: -15 89<524.34 880.839> 1473 20G<168 258 1139 1229>
VStem: 168 90<354.148 1493> 1139 90<354.148 1493>
LayerCount: 2
Fore
SplineSet
168 1493 m 1
 258 1493 l 1
 258 566 l 2
 258 289 463 74 701 74 c 0
 940 74 1139 289 1139 566 c 2
 1139 1493 l 1
 1229 1493 l 1
 1229 566 l 2
 1229 248 994 -15 698 -15 c 0
 403 -15 168 248 168 566 c 2
 168 1493 l 1
EndSplineSet
Validated: 1
EndChar

StartChar: V
Encoding: 86 86 54
Width: 1286
VWidth: 2982
Flags: W
HStem: -17 21G<645.815 661.947> 1473 20G<36 140.18 1147.06 1254>
DStem2: 132 1493 36 1493 0.378776 -0.925488<0 1371.03> 651 224 654 -17 0.369267 0.929323<0 1365.42>
LayerCount: 2
Fore
SplineSet
1155 1493 m 1
 1254 1493 l 1
 654 -17 l 1
 36 1493 l 1
 132 1493 l 1
 651 224 l 1
 1155 1493 l 1
EndSplineSet
Validated: 1
EndChar

StartChar: W
Encoding: 87 87 55
Width: 1965
VWidth: 2982
Flags: W
HStem: -17 21G<549.954 563.87 1405.15 1419.03> 1473 20G<25 121.109 976.136 989.848 1839.96 1943>
DStem2: 114 1493 25 1493 0.332297 -0.943175<0 1310.7> 553 258 557 -17 0.324594 0.945853<0 1058.65> 983 1511 985 1229 0.323919 -0.946085<267.444 1324.41> 1412 258 1412 -17 0.331741 0.94337<0 1309.37>
LayerCount: 2
Fore
SplineSet
25 1493 m 1
 114 1493 l 1
 553 258 l 1
 983 1511 l 1
 1412 258 l 1
 1847 1493 l 1
 1943 1493 l 1
 1412 -17 l 1
 985 1229 l 1
 557 -17 l 1
 25 1493 l 1
EndSplineSet
Validated: 1
EndChar

StartChar: X
Encoding: 88 88 56
Width: 964
VWidth: 2982
Flags: W
HStem: 0 21G<25 136.128 831.816 942> 1473 20G<83 196.085 770.881 884>
DStem2: 25 0 126 0 0.4527 0.891663<45.7227 835.959 1013.4 1673.49> 186 1493 83 1493 0.453174 -0.891422<0 659.64 837.033 1628.18>
LayerCount: 2
Fore
SplineSet
83 1493 m 1
 186 1493 l 1
 483 904 l 1
 781 1493 l 1
 884 1493 l 1
 534 806 l 1
 942 0 l 1
 842 0 l 1
 483 705 l 1
 126 0 l 1
 25 0 l 1
 432 806 l 1
 83 1493 l 1
EndSplineSet
Validated: 1
EndChar

StartChar: Y
Encoding: 89 89 57
Width: 1228
VWidth: 2982
Flags: W
HStem: 0 21G<571 660> 1473 20G<36 153.606 1077.37 1194>
VStem: 571 89<0 645>
DStem2: 141 1493 36 1493 0.53358 -0.845749<0 888.921> 615 741 660 645 0.532866 0.8462<0 889.453>
LayerCount: 2
Fore
SplineSet
36 1493 m 1
 141 1493 l 1
 615 741 l 1
 1090 1493 l 1
 1194 1493 l 1
 660 645 l 1
 660 0 l 1
 571 0 l 1
 571 645 l 1
 36 1493 l 1
EndSplineSet
Validated: 1
EndChar

StartChar: Z
Encoding: 90 90 58
Width: 1185
VWidth: 2982
Flags: W
HStem: 0 90<203 1121> 1403 90<134 965>
DStem2: 36 0 203 90 0.552092 0.833783<167.24 1682.69>
LayerCount: 2
Fore
SplineSet
134 1493 m 1
 1130 1493 l 1
 203 90 l 1
 1153 90 l 1
 1121 0 l 1
 36 0 l 1
 965 1403 l 1
 105 1403 l 1
 134 1493 l 1
EndSplineSet
Validated: 1
EndChar

StartChar: bracketleft
Encoding: 91 91 59
Width: 433
VWidth: 2982
Flags: W
HStem: -314 90<258 436> 1493 90<258 436>
VStem: 168 268<-314 -224 1493 1583> 168 90<-224 1493>
LayerCount: 2
Fore
SplineSet
258 1493 m 1xd0
 258 -224 l 1xd0
 436 -224 l 1
 436 -314 l 1
 168 -314 l 1
 168 1583 l 1
 436 1583 l 1
 436 1493 l 1xe0
 258 1493 l 1xd0
EndSplineSet
Validated: 1
EndChar

StartChar: backslash
Encoding: 92 92 60
Width: 1168
VWidth: 2982
Flags: W
HStem: 0 21G<1044.81 1171> 1473 20G<0 123.226>
DStem2: 109 1493 0 1493 0.579637 -0.814875<0 1767.26>
LayerCount: 2
Fore
SplineSet
0 1493 m 1
 109 1493 l 1
 1171 0 l 1
 1059 0 l 1
 0 1493 l 1
EndSplineSet
Validated: 1
EndChar

StartChar: bracketright
Encoding: 93 93 61
Width: 433
VWidth: 2982
Flags: W
HStem: -314 90<0 179> 1493 90<0 179>
VStem: 0 269<-314 -224 1493 1583> 179 90<-224 1493>
LayerCount: 2
Fore
SplineSet
179 1493 m 1xd0
 0 1493 l 1
 0 1583 l 1
 269 1583 l 1
 269 -314 l 1
 0 -314 l 1
 0 -224 l 1xe0
 179 -224 l 1
 179 1493 l 1xd0
EndSplineSet
Validated: 1
EndChar

StartChar: asciicircum
Encoding: 94 94 62
Width: 1196
VWidth: 2982
Flags: W
HStem: 1473 20G<541.529 665.31>
DStem2: 124 745 226 745 0.497512 0.867457<50.7462 805.128> 654 1493 602 1399 0.492249 -0.870454<56.2258 808.62>
LayerCount: 2
Fore
SplineSet
553 1493 m 1
 654 1493 l 1
 1077 745 l 1
 974 745 l 1
 602 1399 l 1
 226 745 l 1
 124 745 l 1
 553 1493 l 1
EndSplineSet
Validated: 1
EndChar

StartChar: underscore
Encoding: 95 95 63
Width: 970
VWidth: 2982
Flags: W
HStem: -90 90<0 974>
LayerCount: 2
Fore
SplineSet
974 0 m 1
 974 -90 l 1
 0 -90 l 1
 0 0 l 1
 974 0 l 1
EndSplineSet
Validated: 1
EndChar

StartChar: quoteleft
Encoding: 8216 8216 64
Width: 523
VWidth: 2982
Flags: W
HStem: 1083 205<228.02 333.368>
VStem: 126 102<1285 1385.47>
LayerCount: 2
Fore
SplineSet
250 1083 m 0
 192 1083 126 1128 126 1224 c 0
 126 1339 190 1444 280 1513 c 1
 356 1513 l 1
 281 1455 228 1358 228 1285 c 1
 235 1285 242 1288 250 1288 c 0
 307 1288 352 1241 352 1184 c 0
 352 1130 307 1083 250 1083 c 0
EndSplineSet
Validated: 1
EndChar

StartChar: a
Encoding: 97 97 65
Width: 1060
VWidth: 2982
Flags: W
HStem: -17 89<268.282 586.482> 0 21G<818 920> 517 64<453.295 806> 942 90<345.404 643.657>
VStem: 101 89<149.022 375.802> 806 89<1.78638 213 262.714 517 581 759.271>
LayerCount: 2
Fore
SplineSet
920 0 m 1x7c
 824 0 l 1x7c
 812 38 806 83 806 134 c 2
 806 213 l 1
 718 90 579 -17 421 -17 c 0xbc
 195 -17 101 137 101 262 c 0
 101 577 526 581 779 581 c 2
 806 581 l 1
 799 812 647 942 495 942 c 0
 403 942 307 895 239 797 c 1
 168 844 l 1
 252 974 376 1032 495 1032 c 0
 696 1032 889 871 895 581 c 1
 895 134 l 2
 895 74 904 30 920 0 c 1x7c
421 72 m 0xbc
 585 72 741 205 806 325 c 1
 806 517 l 1
 589 513 190 502 190 262 c 0
 190 179 260 72 421 72 c 0xbc
EndSplineSet
Validated: 1
EndChar

StartChar: b
Encoding: 98 98 66
Width: 1215
VWidth: 2982
Flags: W
HStem: -15 89<472.756 794.127> 0 21G<143 244.5> 940 90<472.756 794.127> 1473 20G<168 258>
VStem: 168 90<1.78638 260 309.845 706.171 754 1493> 1010 84<318.749 696.794>
LayerCount: 2
Fore
SplineSet
239 0 m 1x7c
 143 0 l 1x7c
 158 30 168 74 168 134 c 2
 168 1493 l 1
 258 1493 l 1
 258 754 l 1
 307 897 477 1030 634 1030 c 0
 893 1030 1094 790 1094 508 c 0
 1094 224 893 -15 634 -15 c 0xbc
 477 -15 307 126 258 260 c 1
 258 134 l 2
 258 83 250 38 239 0 c 1x7c
258 508 m 0
 258 267 430 74 634 74 c 0xbc
 835 74 1010 267 1010 508 c 0
 1010 750 835 940 634 940 c 0
 430 940 258 750 258 508 c 0
EndSplineSet
Validated: 1
EndChar

StartChar: c
Encoding: 99 99 67
Width: 1098
VWidth: 2982
Flags: W
HStem: -11 92<424.297 749.503> 940 92<424.297 746.883>
VStem: 124 84<322.363 700.212>
LayerCount: 2
Fore
SplineSet
902 280 m 1
 978 235 l 1
 897 90 752 -11 585 -11 c 0
 325 -11 124 226 124 510 c 0
 124 795 325 1032 585 1032 c 0
 752 1032 897 931 978 786 c 1
 902 741 l 1
 833 861 716 940 585 940 c 0
 383 940 208 754 208 513 c 0
 208 271 383 81 585 81 c 0
 716 81 833 158 902 280 c 1
EndSplineSet
Validated: 1
EndChar

StartChar: d
Encoding: 100 100 68
Width: 1215
VWidth: 2982
Flags: W
HStem: -15 89<424.297 745.804> 0 21G<972.5 1074> 940 90<424.297 745.804> 1473 20G<961 1050>
VStem: 124 84<318.749 696.794> 961 89<1.78638 260 309.845 706.171 754 1493>
LayerCount: 2
Fore
SplineSet
1074 0 m 1x7c
 978 0 l 1x7c
 967 38 961 83 961 134 c 2
 961 260 l 1
 912 126 741 -15 585 -15 c 0xbc
 325 -15 124 224 124 508 c 0
 124 790 325 1030 585 1030 c 0
 741 1030 912 897 961 754 c 1
 961 1493 l 1
 1050 1493 l 1
 1050 134 l 2
 1050 74 1059 30 1074 0 c 1x7c
961 508 m 0
 961 750 788 940 585 940 c 0
 383 940 208 750 208 508 c 0
 208 267 383 74 585 74 c 0xbc
 788 74 961 267 961 508 c 0
EndSplineSet
Validated: 1
EndChar

StartChar: e
Encoding: 101 101 69
Width: 1177
VWidth: 2982
Flags: W
HStem: -15 94<424.297 763.711> 508 85<222 959> 940 90<426.696 752.859>
VStem: 124 84<320.237 508 593 683.177>
LayerCount: 2
Fore
SplineSet
222 593 m 1
 959 593 l 1
 922 795 767 940 589 940 c 0
 412 940 258 795 222 593 c 1
1057 508 m 1
 208 508 l 1
 208 267 383 79 585 79 c 0
 716 79 861 154 931 278 c 1
 1010 233 l 1
 929 87 752 -15 585 -15 c 0
 325 -15 124 224 124 508 c 0
 124 790 329 1030 589 1030 c 0
 835 1030 1032 814 1055 553 c 1
 1057 508 l 1
EndSplineSet
Validated: 1
EndChar

StartChar: f
Encoding: 102 102 70
Width: 532
VWidth: 2982
Flags: W
HStem: 0 21G<164 252> 925 89<79 164 252 504> 1448 58<432.476 534>
VStem: 164 88<0 925 1014 1276.17>
LayerCount: 2
Fore
SplineSet
164 0 m 1
 164 925 l 1
 79 925 l 1
 79 1014 l 1
 164 1014 l 1
 164 1104 l 2
 164 1325 329 1506 534 1506 c 1
 534 1448 l 1
 383 1448 252 1280 252 1104 c 2
 252 1014 l 1
 534 1014 l 1
 504 925 l 1
 252 925 l 1
 252 0 l 1
 164 0 l 1
EndSplineSet
Validated: 1
EndChar

StartChar: g
Encoding: 103 103 71
Width: 1215
VWidth: 2982
Flags: W
HStem: -521 89<418.764 744.516> -15 89<421.175 739.056> 940 90<415.879 739.056> 994 20G<972.5 1074>
VStem: 124 79<318.749 696.794> 961 89<-198.171 260 319.273 696.778 754 1012.21>
LayerCount: 2
Fore
SplineSet
978 1014 m 1xdc
 1074 1014 l 1xdc
 1059 985 1050 940 1050 880 c 2
 1050 0 l 2
 1050 -284 842 -521 581 -521 c 0
 463 -521 356 -472 275 -391 c 1
 340 -329 l 1
 406 -393 493 -432 585 -432 c 0
 788 -432 961 -242 961 0 c 2
 961 260 l 1
 912 116 741 -15 585 -15 c 0
 325 -15 124 224 124 508 c 0
 124 790 325 1030 585 1030 c 0xec
 741 1030 912 889 961 754 c 1
 961 880 l 2
 961 931 967 976 978 1014 c 1xdc
955 508 m 0
 955 750 781 940 579 940 c 0xec
 376 940 203 750 203 508 c 0
 203 267 376 74 579 74 c 0
 781 74 955 267 955 508 c 0
EndSplineSet
Validated: 1
EndChar

StartChar: h
Encoding: 104 104 72
Width: 1071
VWidth: 2982
Flags: W
HStem: 0 21G<168 258 818 906> 940 90<480.324 722.074> 1473 20G<168 258>
VStem: 168 90<0 666.543 726 1493> 818 88<0 823.929>
LayerCount: 2
Fore
SplineSet
168 0 m 1
 168 1493 l 1
 258 1493 l 1
 258 726 l 1
 325 884 474 1030 600 1030 c 0
 812 1030 906 842 906 626 c 2
 906 0 l 1
 818 0 l 1
 818 626 l 2
 818 759 773 940 598 940 c 0
 432 940 258 660 258 508 c 2
 258 0 l 1
 168 0 l 1
EndSplineSet
Validated: 1
EndChar

StartChar: i
Encoding: 105 105 73
Width: 422
VWidth: 2982
Flags: W
HStem: 0 21G<168 258> 994 20G<168 258> 1173 162<140.812 284.4>
VStem: 132 161<1181.81 1326> 168 90<0 1014>
LayerCount: 2
Fore
SplineSet
132 1254 m 0xf0
 132 1298 168 1335 213 1335 c 0
 258 1335 293 1298 293 1254 c 0
 293 1209 258 1173 213 1173 c 0
 168 1173 132 1209 132 1254 c 0xf0
258 0 m 1xe8
 168 0 l 1
 168 1014 l 1
 258 1014 l 1
 258 0 l 1xe8
EndSplineSet
Validated: 1
EndChar

StartChar: j
Encoding: 106 106 74
Width: 415
VWidth: 2982
Flags: W
HStem: -312 77<-30 76.5641> 994 20G<168 258> 1173 162<136.786 280.002>
VStem: 128 161<1181.81 1326> 168 90<-143.098 1014>
LayerCount: 2
Fore
SplineSet
168 1014 m 1xe8
 258 1014 l 1
 258 2 l 2
 258 -168 132 -312 -30 -312 c 1
 -30 -235 l 1
 79 -235 168 -126 168 2 c 2
 168 1014 l 1xe8
128 1254 m 0xf0
 128 1298 164 1335 208 1335 c 0
 252 1335 289 1298 289 1254 c 0
 289 1209 252 1173 208 1173 c 0
 164 1173 128 1209 128 1254 c 0xf0
EndSplineSet
Validated: 1
EndChar

StartChar: k
Encoding: 107 107 75
Width: 950
VWidth: 2982
Flags: W
HStem: 0 21G<168 258 817.827 951> 994 20G<684.936 842> 1473 20G<168 258>
VStem: 168 90<0 485 607 1493>
DStem2: 258 607 349 566 0.741145 0.671345<0 39.919 128.374 606.012> 414 626 349 566 0.651091 -0.759<3.21908 749.243>
LayerCount: 2
Fore
SplineSet
258 0 m 1
 168 0 l 1
 168 1493 l 1
 258 1493 l 1
 258 607 l 1
 707 1014 l 1
 842 1014 l 1
 414 626 l 1
 951 0 l 1
 835 0 l 1
 349 566 l 1
 258 485 l 1
 258 0 l 1
EndSplineSet
Validated: 1
EndChar

StartChar: l
Encoding: 108 108 76
Width: 422
VWidth: 2982
Flags: W
HStem: 0 21G<168 258> 1473 20G<168 258>
VStem: 168 90<0 1493>
LayerCount: 2
Fore
SplineSet
258 0 m 1
 168 0 l 1
 168 1493 l 1
 258 1493 l 1
 258 0 l 1
EndSplineSet
Validated: 1
EndChar

StartChar: m
Encoding: 109 109 77
Width: 1595
VWidth: 2982
Flags: W
HStem: 0 21G<168 258 752 842 1341 1431> 940 90<457.095 669.042 1046.89 1255.49> 994 20G<143 244.5>
VStem: 168 90<0 683.968 734 1012.21> 752 90<0 674.671> 1341 90<0 835.208>
LayerCount: 2
Fore
SplineSet
143 1014 m 1xbc
 239 1014 l 1xbc
 250 976 258 931 258 880 c 2
 258 734 l 1
 320 886 457 1030 566 1030 c 0
 732 1030 824 897 848 734 c 1
 912 889 1036 1027 1149 1027 c 0
 1345 1027 1431 833 1431 624 c 2
 1431 0 l 1
 1341 0 l 1
 1341 624 l 2
 1341 754 1301 938 1147 938 c 0
 1006 938 842 662 842 504 c 2
 842 0 l 1
 752 0 l 1
 752 626 l 2
 752 759 714 940 557 940 c 0xdc
 427 940 258 679 258 508 c 2
 258 0 l 1
 168 0 l 1
 168 880 l 2
 168 940 158 985 143 1014 c 1xbc
EndSplineSet
Validated: 1
EndChar

StartChar: n
Encoding: 110 110 78
Width: 1071
VWidth: 2982
Flags: W
HStem: 0 21G<168 258 818 906> 940 90<480.726 722.074> 994 20G<143 244.5>
VStem: 168 90<0 666.543 728 1012.21> 818 88<0 823.929>
LayerCount: 2
Fore
SplineSet
143 1014 m 1xb8
 239 1014 l 1xb8
 250 976 258 931 258 880 c 2
 258 728 l 1
 329 889 474 1030 600 1030 c 0
 812 1030 906 842 906 626 c 2
 906 0 l 1
 818 0 l 1
 818 626 l 2
 818 759 773 940 598 940 c 0xd8
 432 940 258 660 258 508 c 2
 258 0 l 1
 168 0 l 1
 168 880 l 2
 168 940 158 985 143 1014 c 1xb8
EndSplineSet
Validated: 1
EndChar

StartChar: o
Encoding: 111 111 79
Width: 1282
VWidth: 2982
Flags: W
HStem: -15 89<460.967 832.756> 940 90<460.967 832.756>
VStem: 124 89<323.928 691.181> 1077 85<328.701 686.433>
LayerCount: 2
Fore
SplineSet
643 1030 m 4
 929 1030 1162 797 1162 508 c 0
 1162 218 929 -15 643 -15 c 0
 356 -15 124 218 124 508 c 0
 124 797 356 1030 643 1030 c 4
213 508 m 0
 213 269 406 74 645 74 c 0
 884 74 1077 269 1077 508 c 0
 1077 745 884 940 645 940 c 0
 406 940 213 745 213 508 c 0
EndSplineSet
Validated: 1
EndChar

StartChar: p
Encoding: 112 112 80
Width: 1215
VWidth: 2982
Flags: W
HStem: -501 21G<168 258> -15 89<472.756 794.127> 940 90<472.756 794.127> 994 20G<143 244.5>
VStem: 168 90<-501 260 309.845 706.171 754 1012.21> 1010 84<318.749 696.794>
LayerCount: 2
Fore
SplineSet
143 1014 m 1xdc
 239 1014 l 1xdc
 250 976 258 931 258 880 c 2
 258 754 l 1
 307 889 477 1030 634 1030 c 0xec
 893 1030 1094 790 1094 508 c 0
 1094 224 893 -15 634 -15 c 0
 477 -15 307 116 258 260 c 1
 258 -501 l 1
 168 -501 l 1
 168 880 l 2
 168 940 158 985 143 1014 c 1xdc
258 508 m 0
 258 267 430 74 634 74 c 0
 835 74 1010 267 1010 508 c 0
 1010 750 835 940 634 940 c 0xec
 430 940 258 750 258 508 c 0
EndSplineSet
Validated: 1
EndChar

StartChar: q
Encoding: 113 113 81
Width: 1215
VWidth: 2982
Flags: W
HStem: -501 21G<961 1050> -15 89<424.297 745.804> 940 90<424.297 745.804> 994 20G<972.5 1074>
VStem: 124 84<318.749 696.794> 961 89<-501 260 309.845 706.171 754 1012.21>
LayerCount: 2
Fore
SplineSet
978 1014 m 1xdc
 1074 1014 l 1xdc
 1059 985 1050 940 1050 880 c 2
 1050 -501 l 1
 961 -501 l 1
 961 260 l 1
 912 116 741 -15 585 -15 c 0
 325 -15 124 224 124 508 c 0
 124 790 325 1030 585 1030 c 0xec
 741 1030 912 889 961 754 c 1
 961 880 l 2
 961 931 967 976 978 1014 c 1xdc
961 508 m 0
 961 750 788 940 585 940 c 0xec
 383 940 208 750 208 508 c 0
 208 267 383 74 585 74 c 0
 788 74 961 267 961 508 c 0
EndSplineSet
Validated: 1
EndChar

StartChar: r
Encoding: 114 114 82
Width: 648
VWidth: 2982
Flags: W
HStem: 0 21G<168 258> 994 20G<143 244.5 478.5 562.169>
VStem: 168 90<0 703.089 754 1012.21>
LayerCount: 2
Fore
SplineSet
143 1014 m 1
 239 1014 l 1
 250 976 258 931 258 880 c 2
 258 754 l 1
 289 859 423 987 534 1030 c 1
 634 959 l 1
 455 959 258 745 258 521 c 2
 258 0 l 1
 168 0 l 1
 168 880 l 2
 168 940 158 985 143 1014 c 1
EndSplineSet
Validated: 1
EndChar

StartChar: s
Encoding: 115 115 83
Width: 892
VWidth: 2982
Flags: W
HStem: -17 89<311.36 586.646> 944 88<336.531 564.599>
VStem: 124 89<174.217 291.094> 197 92<692.106 898.163> 626 83<829.991 876.431> 683 90<164.321 409.444>
LayerCount: 2
Fore
SplineSet
709 835 m 1xd8
 626 806 l 1
 596 900 519 944 448 944 c 0
 365 944 289 889 289 788 c 0xd8
 289 573 773 634 773 295 c 0
 773 101 609 -17 444 -17 c 0
 297 -17 150 77 124 289 c 1
 213 302 l 1
 233 141 338 72 446 72 c 0
 564 72 683 158 683 295 c 0xe4
 683 562 197 491 197 788 c 0
 197 944 320 1032 448 1032 c 0
 553 1032 665 969 709 835 c 1xd8
EndSplineSet
Validated: 1
EndChar

StartChar: t
Encoding: 116 116 84
Width: 551
VWidth: 2982
Flags: W
HStem: 0 21G<168 258> 925 89<79 168 258 508>
VStem: 168 90<0 925 1014 1254>
LayerCount: 2
Fore
SplineSet
258 0 m 1
 168 0 l 1
 168 925 l 1
 79 925 l 1
 79 1014 l 1
 168 1014 l 1
 168 1254 l 1
 258 1254 l 1
 258 1014 l 1
 538 1014 l 1
 508 925 l 1
 258 925 l 1
 258 0 l 1
EndSplineSet
Validated: 1
EndChar

StartChar: u
Encoding: 117 117 85
Width: 1066
VWidth: 2982
Flags: W
HStem: -15 89<392.074 669.817> 994 20G<168 258 812 902>
VStem: 168 90<217.794 1014> 812 90<224.194 1014>
LayerCount: 2
Fore
SplineSet
168 1014 m 1
 258 1014 l 1
 258 387 l 2
 258 213 378 74 530 74 c 0
 683 74 812 213 812 387 c 2
 812 1014 l 1
 902 1014 l 1
 902 387 l 2
 902 168 741 -15 534 -15 c 0
 329 -15 168 168 168 387 c 2
 168 1014 l 1
EndSplineSet
Validated: 1
EndChar

StartChar: v
Encoding: 118 118 86
Width: 946
VWidth: 2982
Flags: W
HStem: 994 20G<36 140.434 805.615 914>
DStem2: 132 1014 36 1014 0.389122 -0.921186<0 880.162> 474 203 477 -30 0.386121 0.922448<0 879.387>
LayerCount: 2
Fore
SplineSet
36 1014 m 1
 132 1014 l 1
 474 203 l 1
 814 1014 l 1
 914 1014 l 1
 477 -30 l 1
 36 1014 l 1
EndSplineSet
Validated: 1
EndChar

StartChar: w
Encoding: 119 119 87
Width: 1600
VWidth: 2982
Flags: W
HStem: -17 21G<454.717 471.395 1138.51 1155.15> 994 20G<36 142.373 797.615 814.409 1462.83 1567>
DStem2: 134 1014 36 1014 0.382642 -0.923897<0 859.687> 466 221 463 -17 0.386633 0.922234<0 657.813> 806 1032 803 793 0.3909 -0.920433<218.811 879.768> 1147 221 1147 -17 0.377268 0.926104<0 856.635>
LayerCount: 2
Fore
SplineSet
36 1014 m 1
 134 1014 l 1
 466 221 l 1
 806 1032 l 1
 1147 221 l 1
 1471 1014 l 1
 1567 1014 l 1
 1147 -17 l 1
 803 793 l 1
 463 -17 l 1
 36 1014 l 1
EndSplineSet
Validated: 1
EndChar

StartChar: x
Encoding: 120 120 88
Width: 906
VWidth: 2982
Flags: W
HStem: 0 21G<36 154.682 753.405 871> 994 20G<79 190.684 712.165 831>
DStem2: 36 0 141 0 0.562578 0.826744<59.0706 615.196 741.355 1226.5> 177 1014 79 1014 0.564801 -0.825227<0 483.456 615.016 1170.01>
LayerCount: 2
Fore
SplineSet
79 1014 m 1
 177 1014 l 1
 450 615 l 1
 726 1014 l 1
 831 1014 l 1
 504 538 l 1
 871 0 l 1
 767 0 l 1
 455 459 l 1
 141 0 l 1
 36 0 l 1
 403 538 l 1
 79 1014 l 1
EndSplineSet
Validated: 1
EndChar

StartChar: y
Encoding: 121 121 89
Width: 946
VWidth: 2982
Flags: W
HStem: -521 21G<235 338.596> 994 20G<36 135.799 810.38 914>
DStem2: 128 1014 36 1014 0.363154 -0.931729<0 960.638> 235 -521 331 -521 0.355058 0.934844<34.0856 555.131 684.224 1641.98>
LayerCount: 2
Fore
SplineSet
36 1014 m 1
 128 1014 l 1
 477 119 l 1
 818 1014 l 1
 914 1014 l 1
 331 -521 l 1
 235 -521 l 1
 432 -2 l 1
 36 1014 l 1
EndSplineSet
Validated: 1
EndChar

StartChar: z
Encoding: 122 122 90
Width: 888
VWidth: 2982
Flags: W
HStem: 0 90<205 822> 925 89<158 687>
DStem2: 36 0 205 90 0.575537 0.817776<170.866 1131.12>
LayerCount: 2
Fore
SplineSet
158 1014 m 1
 853 1014 l 1
 205 90 l 1
 850 90 l 1
 822 0 l 1
 36 0 l 1
 687 925 l 1
 128 925 l 1
 158 1014 l 1
EndSplineSet
Validated: 1
EndChar

StartChar: braceleft
Encoding: 123 123 91
Width: 570
VWidth: 2982
Flags: W
HStem: -312 62<430.547 513> 1506 61<430.547 513>
VStem: 258 88<-168.829 511.158 744.75 1424.87>
LayerCount: 2
Fore
SplineSet
346 1224 m 2
 346 929 l 2
 346 771 307 696 231 628 c 1
 295 575 346 504 346 331 c 2
 346 34 l 2
 346 -145 410 -250 513 -250 c 1
 513 -312 l 1
 412 -312 258 -260 258 34 c 2
 258 331 l 2
 258 483 215 530 126 591 c 1
 126 665 l 1
 215 726 258 773 258 925 c 2
 258 1224 l 2
 258 1515 412 1567 513 1567 c 1
 513 1506 l 1
 410 1506 346 1403 346 1224 c 2
EndSplineSet
Validated: 1
EndChar

StartChar: bar
Encoding: 124 124 92
Width: 422
VWidth: 2982
Flags: W
VStem: 168 90<-150 1641>
LayerCount: 2
Fore
SplineSet
258 -150 m 1
 168 -150 l 1
 168 1641 l 1
 258 1641 l 1
 258 -150 l 1
EndSplineSet
Validated: 1
EndChar

StartChar: braceright
Encoding: 125 125 93
Width: 574
VWidth: 2982
Flags: W
HStem: -314 62<60 143.234> 1506 59<60 143.234>
VStem: 231 89<-171.524 509.158 741.395 1422.18>
LayerCount: 2
Fore
SplineSet
60 1506 m 1
 60 1565 l 1
 161 1565 320 1513 320 1220 c 2
 320 922 l 2
 320 771 361 724 450 662 c 1
 450 589 l 1
 361 528 320 481 320 329 c 2
 320 30 l 2
 320 -262 161 -314 60 -314 c 1
 60 -252 l 1
 164 -252 231 -150 231 30 c 2
 231 329 l 2
 231 502 280 573 346 626 c 1
 269 692 226 767 226 925 c 2
 226 1224 l 2
 226 1403 164 1506 60 1506 c 1
EndSplineSet
Validated: 1
EndChar

StartChar: asciitilde
Encoding: 126 126 94
Width: 1058
VWidth: 2982
Flags: W
HStem: 378 94<601.894 856.31> 513 94<205.42 475.458>
VStem: 124 57<387 474.328> 878 60<506.937 598>
LayerCount: 2
Fore
SplineSet
878 598 m 1
 938 598 l 1
 938 438 857 378 759 378 c 0
 607 378 448 513 312 513 c 0
 260 513 181 495 181 387 c 1
 124 387 l 1
 124 553 215 607 312 607 c 0
 481 607 624 472 759 472 c 0
 803 472 878 485 878 598 c 1
EndSplineSet
Validated: 1
EndChar

StartChar: exclamdown
Encoding: 161 161 95
Width: 570
VWidth: 2982
Flags: W
HStem: -477 21G<226 346> 861 169<214.396 357.821>
VStem: 203 166<871.883 1019.61> 226 120<-477 70.456> 258 58<197.544 745>
LayerCount: 2
Fore
SplineSet
258 745 m 1xc8
 316 745 l 1xc8
 346 -477 l 1
 226 -477 l 1xd0
 258 745 l 1xc8
203 947 m 0xe0
 203 991 242 1030 286 1030 c 0
 331 1030 369 991 369 947 c 0
 369 902 331 861 286 861 c 0
 242 861 203 902 203 947 c 0xe0
EndSplineSet
Validated: 1
EndChar

StartChar: cent
Encoding: 162 162 96
Width: 1105
VWidth: 2982
Flags: W
HStem: -11 92<422.551 544 636 765.406> 940 87<426.53 544 636 753.3>
VStem: 124 89<305.97 712.223> 544 90<-239 -5.19318 81 938 1024.16 1254>
LayerCount: 2
Fore
SplineSet
544 1254 m 1
 634 1254 l 1
 634 1030 l 1
 781 1014 912 920 985 786 c 1
 906 741 l 1
 848 848 750 922 636 938 c 1
 636 79 l 1
 750 92 848 168 906 275 c 1
 985 231 l 1
 912 98 781 2 634 -11 c 1
 634 -239 l 1
 544 -239 l 1
 544 -11 l 1
 305 11 124 239 124 508 c 0
 124 777 305 1003 544 1027 c 1
 544 1254 l 1
544 81 m 1
 544 940 l 1
 361 916 213 737 213 510 c 0
 213 284 361 105 544 81 c 1
EndSplineSet
Validated: 1
EndChar

StartChar: sterling
Encoding: 163 163 97
Width: 1033
VWidth: 2982
Flags: W
HStem: 0 90<233 933> 701 89<114 342 438 724> 1424 87<486.142 777.517>
VStem: 302 85<798.305 1330.33> 356 84<350.211 697.072 790 1021.38> 893 58<1199.28 1283.26>
LayerCount: 2
Fore
SplineSet
724 701 m 1xf4
 438 701 l 1
 440 671 440 643 440 611 c 0
 440 419 396 235 233 90 c 1
 965 90 l 1
 933 0 l 1
 96 0 l 1
 72 83 l 1
 302 215 356 401 356 607 c 0xec
 356 636 356 665 352 696 c 1
 83 696 l 1
 114 786 l 1
 342 786 l 1
 329 931 302 1072 302 1200 c 0
 302 1395 466 1511 628 1511 c 0
 777 1511 922 1414 951 1202 c 1
 893 1191 l 1
 871 1350 750 1424 628 1424 c 0
 508 1424 387 1343 387 1202 c 0
 387 1085 414 940 430 790 c 1
 752 790 l 1
 724 701 l 1xf4
EndSplineSet
Validated: 1
EndChar

StartChar: fraction
Encoding: 8260 8260 98
Width: 1177
VWidth: 2982
Flags: W
HStem: 0 21G<2 128.186> 1473 20G<1048.79 1173>
DStem2: 2 0 114 0 0.579274 0.815133<64.8787 1831.6>
LayerCount: 2
Fore
SplineSet
1063 1493 m 1
 1173 1493 l 1
 114 0 l 1
 2 0 l 1
 1063 1493 l 1
EndSplineSet
Validated: 1
EndChar

StartChar: yen
Encoding: 165 165 99
Width: 1228
VWidth: 2982
Flags: W
HStem: 0 21G<571 660> 401 94<208 571 660 1012> 645 96<213 510 718 1021> 1473 20G<36 153.606 1077.37 1194>
VStem: 571 89<0 401 495 645>
DStem2: 141 1493 36 1493 0.533231 -0.84597<0 832.931> 615 741 718 741 0.534838 0.844954<55.0883 889.454>
LayerCount: 2
Fore
SplineSet
1012 495 m 1
 1012 401 l 1
 660 401 l 1
 660 0 l 1
 571 0 l 1
 571 401 l 1
 208 401 l 1
 208 495 l 1
 571 495 l 1
 571 645 l 1
 213 645 l 1
 213 741 l 1
 510 741 l 1
 36 1493 l 1
 141 1493 l 1
 615 741 l 1
 1090 1493 l 1
 1194 1493 l 1
 718 741 l 1
 1021 741 l 1
 1021 645 l 1
 660 645 l 1
 660 495 l 1
 1012 495 l 1
EndSplineSet
Validated: 1
EndChar

StartChar: florin
Encoding: 402 402 100
Width: 809
VWidth: 2982
Flags: W
HStem: -164 59<-74 66.1038> 786 89<222 378 491 853> 1448 58<739.221 880>
DStem2: 252 158 342 141 0.198102 0.980181<-168.915 640.515 750.136 1234.96>
LayerCount: 2
Fore
SplineSet
886 875 m 1
 853 786 l 1
 472 786 l 1
 342 141 l 2
 298 -78 126 -164 -74 -164 c 1
 -74 -105 l 1
 87 -105 218 -10 252 158 c 2
 378 786 l 1
 190 786 l 1
 222 875 l 1
 396 875 l 1
 463 1202 l 2
 508 1420 681 1506 880 1506 c 1
 880 1448 l 1
 718 1448 587 1353 553 1184 c 2
 491 875 l 1
 886 875 l 1
EndSplineSet
Validated: 1
EndChar

StartChar: section
Encoding: 167 167 101
Width: 897
VWidth: 2982
Flags: W
HStem: -134 89<305.994 586.624> 1202 21G<672.5 777> 1417 89<311.743 592.388>
VStem: 124 89<48.8384 173 625.183 866.177 1086.89 1324.29> 683 94<44.6793 292.832 508.389 759.801 1202 1323.8>
LayerCount: 2
Fore
SplineSet
124 173 m 1
 213 173 l 1
 233 11 338 -45 446 -45 c 0
 566 -45 683 38 683 177 c 0
 683 459 124 369 124 734 c 0
 124 853 181 929 239 974 c 1
 171 1021 124 1090 124 1198 c 0
 124 1386 280 1506 450 1506 c 0
 598 1506 745 1417 777 1202 c 1
 683 1202 l 1
 662 1354 562 1417 455 1417 c 0
 331 1417 215 1335 215 1198 c 0
 215 914 777 1006 777 643 c 0
 777 540 728 457 660 403 c 1
 728 356 777 286 777 179 c 0
 777 -9 618 -134 448 -134 c 0
 302 -134 152 -43 124 173 c 1
687 643 m 0
 687 806 483 848 322 922 c 1
 275 895 213 839 213 737 c 0
 213 566 412 530 573 455 c 1
 620 481 687 538 687 643 c 0
EndSplineSet
Validated: 1
EndChar

StartChar: currency
Encoding: 164 164 102
Width: 1301
VWidth: 2982
Flags: W
HStem: 331 92<485.97 821.502> 1104 90<488.752 818.04>
VStem: 224 90<593.992 932.024> 994 91<594.992 931.391>
DStem2: 143 316 205 252 0.711212 0.702977<0 255.053 1102.06 1334.33> 226 1254 164 1191 0.707863 -0.70635<0.612576 226.637 1075.2 1322.2>
LayerCount: 2
Fore
SplineSet
1155 1191 m 1
 996 1030 l 1
 1055 955 1085 861 1085 763 c 0
 1085 662 1050 566 991 493 c 1
 1162 320 l 1
 1100 258 l 1
 929 427 l 1
 853 367 759 331 656 331 c 0
 553 331 457 367 383 427 c 1
 205 252 l 1
 143 316 l 1
 320 491 l 1
 260 564 224 660 224 761 c 0
 224 867 260 961 320 1036 c 1
 164 1191 l 1
 226 1254 l 1
 383 1100 l 1
 457 1157 549 1194 651 1194 c 0
 754 1194 850 1155 925 1092 c 1
 1092 1254 l 1
 1155 1191 l 1
314 763 m 0
 314 575 466 423 654 423 c 0
 842 423 994 575 994 763 c 0
 994 951 842 1104 654 1104 c 0
 466 1104 314 951 314 763 c 0
EndSplineSet
Validated: 1
EndChar

StartChar: quotesingle
Encoding: 39 39 103
Width: 451
VWidth: 2982
Flags: W
HStem: 1164 387<197 258>
VStem: 197 61<1164 1355.31>
LayerCount: 2
Fore
SplineSet
258 1164 m 1
 197 1164 l 1
 168 1551 l 1
 286 1551 l 1
 258 1164 l 1
EndSplineSet
Validated: 1
EndChar

StartChar: quotedblleft
Encoding: 8220 8220 104
Width: 737
VWidth: 2982
Flags: W
HStem: 1083 205<228.02 333.368 499.712 601.427>
VStem: 126 102<1285 1385.47> 393 104<1285 1385.47>
LayerCount: 2
Fore
SplineSet
250 1083 m 0
 192 1083 126 1128 126 1224 c 0
 126 1339 190 1444 280 1513 c 1
 356 1513 l 1
 281 1455 228 1358 228 1285 c 1
 235 1285 242 1288 250 1288 c 0
 307 1288 352 1241 352 1184 c 0
 352 1130 307 1083 250 1083 c 0
519 1083 m 0
 461 1083 393 1128 393 1224 c 0
 393 1339 459 1444 549 1513 c 1
 624 1513 l 1
 550 1455 497 1358 497 1285 c 1
 504 1285 510 1288 519 1288 c 0
 575 1288 620 1241 620 1184 c 0
 620 1130 575 1083 519 1083 c 0
EndSplineSet
Validated: 1
EndChar

StartChar: guillemotleft
Encoding: 171 171 105
Width: 874
VWidth: 2982
Flags: W
DStem2: 233 508 124 508 0.584663 -0.811276<0 375.213> 124 508 233 508 0.583589 0.812049<63.6112 439.757> 562 508 450 508 0.583168 -0.812351<0 375.381> 450 508 562 508 0.582095 0.813121<65.1946 441.509>
LayerCount: 2
Fore
SplineSet
707 867 m 1
 818 867 l 1
 562 508 l 1
 818 150 l 1
 707 150 l 1
 450 508 l 1
 707 867 l 1
378 867 m 1
 491 867 l 1
 233 508 l 1
 491 150 l 1
 378 150 l 1
 124 508 l 1
 378 867 l 1
EndSplineSet
Validated: 1
EndChar

StartChar: guilsinglleft
Encoding: 8249 8249 106
Width: 472
VWidth: 2982
Flags: W
VStem: 36 367
DStem2: 145 508 36 508 0.584663 -0.811276<0 376.967> 36 508 145 508 0.583589 0.812049<63.6112 441.508>
LayerCount: 2
Fore
SplineSet
293 867 m 1
 403 867 l 1
 145 508 l 1
 403 150 l 1
 293 150 l 1
 36 508 l 1
 293 867 l 1
EndSplineSet
Validated: 1
EndChar

StartChar: guilsinglright
Encoding: 8250 8250 107
Width: 472
VWidth: 2982
Flags: W
VStem: 72 366
DStem2: 181 867 72 867 0.582095 -0.813121<0 378.06> 72 150 181 150 0.583168 0.812351<63.5654 440.696>
LayerCount: 2
Fore
SplineSet
72 867 m 1
 181 867 l 1
 438 508 l 1
 181 150 l 1
 72 150 l 1
 329 508 l 1
 72 867 l 1
EndSplineSet
Validated: 1
EndChar

StartChar: endash
Encoding: 8211 8211 108
Width: 530
VWidth: 2982
Flags: W
HStem: 446 125<0 530>
VStem: 0 530<446 571>
LayerCount: 2
Fore
SplineSet
530 571 m 1
 530 446 l 1
 0 446 l 1
 0 571 l 1
 530 571 l 1
EndSplineSet
Validated: 1
EndChar

StartChar: dagger
Encoding: 8224 8224 109
Width: 1168
VWidth: 2982
Flags: W
HStem: 940 90<143 512.152 657.848 1027> 1473 20G<540 628>
VStem: 540 88<-286 900.065 1035.2 1493> 555 60<-231.065 955 1014 1471.8>
LayerCount: 2
Fore
SplineSet
628 -286 m 1xe0
 540 -286 l 1xe0
 555 955 l 1
 143 940 l 1
 143 1030 l 1
 555 1014 l 1xd0
 540 1493 l 1
 628 1493 l 1xe0
 615 1014 l 1
 1027 1030 l 1
 1027 940 l 1
 615 955 l 1xd0
 628 -286 l 1xe0
EndSplineSet
Validated: 1
EndChar

StartChar: daggerdbl
Encoding: 8225 8225 110
Width: 1168
VWidth: 2982
Flags: W
HStem: 262 90<143 512.152 657.848 1027> 278 60<185.848 555 615 984.152> 857 90<143 512.152 657.848 1027> 871 60<185.848 555 615 984.152> 1473 20G<540 628>
VStem: 540 88<-286 253.034 955.878 1493> 555 60<-261.034 278 338 871 931 1468.12>
LayerCount: 2
Fore
SplineSet
628 -286 m 1x4c
 540 -286 l 1x4c
 555 278 l 1x4a
 143 262 l 1
 143 352 l 1x8a
 555 338 l 1
 555 871 l 1x5a
 143 857 l 1
 143 947 l 1x2a
 555 931 l 1x1a
 540 1493 l 1
 628 1493 l 1x1c
 615 931 l 1x1a
 1027 947 l 1
 1027 857 l 1x2a
 615 871 l 1
 615 338 l 1x5a
 1027 352 l 1
 1027 262 l 1x8a
 615 278 l 1x4a
 628 -286 l 1x4c
EndSplineSet
Validated: 1
EndChar

StartChar: periodcentered
Encoding: 183 183 111
Width: 498
VWidth: 2982
Flags: W
HStem: 662 169<178.926 321.821>
VStem: 168 165<672.388 820.117>
LayerCount: 2
Fore
SplineSet
168 745 m 0
 168 790 205 831 250 831 c 0
 295 831 333 790 333 745 c 0
 333 701 295 662 250 662 c 0
 205 662 168 701 168 745 c 0
EndSplineSet
Validated: 1
EndChar

StartChar: paragraph
Encoding: 182 182 112
Width: 1260
VWidth: 2982
Flags: W
HStem: 1403 90<857 1006>
VStem: 124 733<765.652 1173.73> 767 90<-248 448> 1006 88<-248 1403>
LayerCount: 2
Fore
SplineSet
857 -248 m 1xb0
 767 -248 l 1
 767 448 l 1xb0
 745 448 l 2
 333 448 124 707 124 969 c 0xd0
 124 1233 333 1493 745 1493 c 2
 1094 1493 l 1
 1094 -248 l 1
 1006 -248 l 1
 1006 1403 l 1
 857 1403 l 1
 857 -248 l 1xb0
EndSplineSet
Validated: 1
EndChar

StartChar: bullet
Encoding: 8226 8226 113
Width: 989
VWidth: 2982
Flags: W
HStem: 239 716<327.838 663.28>
VStem: 143 705<427.442 768.094>
LayerCount: 2
Fore
SplineSet
143 598 m 0
 143 795 302 955 495 955 c 0
 690 955 848 795 848 598 c 0
 848 401 690 239 495 239 c 0
 302 239 143 401 143 598 c 0
EndSplineSet
Validated: 1
EndChar

StartChar: quotesinglbase
Encoding: 8218 8218 114
Width: 523
VWidth: 2982
Flags: W
HStem: -34 205<207.131 313.48>
VStem: 314 100<-131.875 -32>
LayerCount: 2
Fore
SplineSet
289 171 m 0
 346 171 414 126 414 30 c 0
 414 -85 349 -190 262 -260 c 1
 186 -260 l 1
 258 -201 314 -101 314 -32 c 1
 307 -32 297 -34 289 -34 c 0
 235 -34 188 13 188 69 c 0
 188 124 235 171 289 171 c 0
EndSplineSet
Validated: 1
EndChar

StartChar: quotedblbase
Encoding: 8222 8222 115
Width: 737
VWidth: 2982
Flags: W
HStem: -15 203<147.25 249.474 415.588 518.441>
VStem: 252 104<-112.589 -13> 521 103<-112.589 -13>
LayerCount: 2
Fore
SplineSet
500 188 m 0
 555 188 624 143 624 47 c 0
 624 -67 557 -173 470 -242 c 1
 393 -242 l 1
 466 -184 521 -83 521 -13 c 1
 515 -13 506 -15 500 -15 c 0
 444 -15 396 32 396 87 c 0
 396 141 444 188 500 188 c 0
231 188 m 0
 286 188 356 143 356 47 c 0
 356 -67 289 -173 201 -242 c 1
 126 -242 l 1
 197 -184 252 -83 252 -13 c 1
 246 -13 237 -15 231 -15 c 0
 175 -15 128 32 128 87 c 0
 128 141 175 188 231 188 c 0
EndSplineSet
Validated: 1
EndChar

StartChar: quotedblright
Encoding: 8221 8221 116
Width: 737
VWidth: 2982
Flags: W
HStem: 1305 201<145.824 249.474 414.141 518.441>
VStem: 252 104<1207.45 1307> 521 103<1207.45 1307>
LayerCount: 2
Fore
SplineSet
500 1506 m 0
 555 1506 624 1464 624 1367 c 0
 624 1254 557 1147 470 1077 c 1
 393 1077 l 1
 466 1135 521 1238 521 1307 c 1
 515 1305 506 1305 500 1305 c 0
 444 1305 396 1350 396 1406 c 0
 396 1461 444 1506 500 1506 c 0
231 1506 m 0
 286 1506 356 1464 356 1367 c 0
 356 1254 289 1147 201 1077 c 1
 126 1077 l 1
 197 1135 252 1238 252 1307 c 1
 246 1305 237 1305 231 1305 c 0
 175 1305 128 1350 128 1406 c 0
 128 1461 175 1506 231 1506 c 0
EndSplineSet
Validated: 1
EndChar

StartChar: guillemotright
Encoding: 187 187 117
Width: 874
VWidth: 2982
Flags: W
DStem2: 233 867 124 867 0.583589 -0.812049<0 376.146> 124 150 233 150 0.584663 0.811276<63.7283 438.941> 562 867 450 867 0.582095 -0.813121<0 376.314> 450 150 562 150 0.583168 0.812351<65.3149 440.696>
LayerCount: 2
Fore
SplineSet
124 867 m 1
 233 867 l 1
 491 508 l 1
 233 150 l 1
 124 150 l 1
 378 508 l 1
 124 867 l 1
450 867 m 1
 562 867 l 1
 818 508 l 1
 562 150 l 1
 450 150 l 1
 707 508 l 1
 450 867 l 1
EndSplineSet
Validated: 1
EndChar

StartChar: ellipsis
Encoding: 8230 8230 118
Width: 1765
VWidth: 2982
Flags: W
HStem: -15 167<213.388 358.813 813.388 958.813 1407.19 1554.35>
VStem: 203 166<-4.37988 141.813> 803 166<-4.37988 141.813> 1397 168<-3.35188 140.821>
LayerCount: 2
Fore
SplineSet
203 69 m 0
 203 114 242 152 286 152 c 0
 331 152 369 114 369 69 c 0
 369 25 331 -15 286 -15 c 0
 242 -15 203 25 203 69 c 0
1397 69 m 0
 1397 114 1435 152 1480 152 c 0
 1525 152 1565 114 1565 69 c 0
 1565 25 1525 -15 1480 -15 c 0
 1435 -15 1397 25 1397 69 c 0
803 69 m 0
 803 114 842 152 886 152 c 0
 931 152 969 114 969 69 c 0
 969 25 931 -15 886 -15 c 0
 842 -15 803 25 803 69 c 0
EndSplineSet
Validated: 1
EndChar

StartChar: perthousand
Encoding: 8240 8240 119
Width: 2213
VWidth: 2982
Flags: W
HStem: -17 91<977.883 1230.4 1724.69 1976.87> 474 92<977.883 1230.4 1722.78 1978.75> 916 94<237.98 490.399> 1408 94<237.98 490.399>
VStem: 72 89<1087.43 1330.35> 566 90<1087.43 1330.35> 812 90<149.716 396.39> 1307 90<149.716 396.39> 1558 89<152.395 396.371> 2053 89<152.395 396.371>
DStem2: 150 -9 260 -9 0.578548 0.815648<63.6402 1830.45>
LayerCount: 2
Fore
SplineSet
1104 566 m 0
 1265 566 1397 436 1397 275 c 0
 1397 114 1265 -17 1104 -17 c 0
 942 -17 812 114 812 275 c 0
 812 436 942 566 1104 566 c 0
902 275 m 0
 902 164 991 74 1104 74 c 0
 1218 74 1307 164 1307 275 c 0
 1307 385 1218 474 1104 474 c 0
 991 474 902 385 902 275 c 0
1852 567 m 0
 2012 567 2142 435 2142 274 c 0
 2142 112 2012 -17 1852 -17 c 0
 1690 -17 1558 112 1558 274 c 0
 1558 435 1690 567 1852 567 c 0
1647 274 m 0
 1647 164 1737 75 1852 75 c 0
 1963 75 2053 164 2053 274 c 0
 2053 386 1963 475 1852 475 c 0
 1737 475 1647 386 1647 274 c 0
365 1502 m 0
 526 1502 656 1370 656 1209 c 0
 656 1047 526 916 365 916 c 0
 203 916 72 1047 72 1209 c 0
 72 1370 203 1502 365 1502 c 0
161 1209 m 0
 161 1100 250 1010 365 1010 c 0
 477 1010 566 1100 566 1209 c 0
 566 1318 477 1408 365 1408 c 0
 250 1408 161 1318 161 1209 c 0
1209 1484 m 1
 1318 1484 l 1
 260 -9 l 1
 150 -9 l 1
 1209 1484 l 1
EndSplineSet
Validated: 1
EndChar

StartChar: questiondown
Encoding: 191 191 120
Width: 1036
VWidth: 2982
Flags: W
HStem: -493 90<342.721 664.784> 861 169<477.179 622.1>
VStem: 124 89<-275.351 3.00735> 466 168<872.936 1018.6> 502 89<395.679 707> 826 90<-250.028 -116>
LayerCount: 2
Fore
SplineSet
634 947 m 0xf4
 634 902 593 861 549 861 c 0
 504 861 466 902 466 947 c 0
 466 991 504 1030 549 1030 c 0
 593 1030 634 991 634 947 c 0xf4
502 707 m 1xec
 591 707 l 1
 591 557 l 2
 591 208 213 87 213 -116 c 0
 213 -286 338 -403 500 -403 c 0
 690 -403 826 -252 826 -116 c 1
 916 -116 l 1
 916 -314 732 -493 500 -493 c 0
 284 -493 124 -333 124 -116 c 0
 124 143 502 250 502 557 c 2
 502 707 l 1xec
EndSplineSet
Validated: 1
EndChar

StartChar: grave
Encoding: 96 96 121
Width: 425
VWidth: 2982
Flags: W
HStem: 1229 294
VStem: 72 212
LayerCount: 2
Fore
SplineSet
284 1229 m 1
 215 1229 l 1
 72 1523 l 1
 186 1523 l 1
 284 1229 l 1
EndSplineSet
Validated: 1
EndChar

StartChar: acute
Encoding: 180 180 122
Width: 630
VWidth: 2982
Flags: W
HStem: 1194 357
VStem: 203 395
LayerCount: 2
Fore
SplineSet
430 1551 m 1
 598 1551 l 1
 312 1194 l 1
 203 1194 l 1
 430 1551 l 1
EndSplineSet
Validated: 1
EndChar

StartChar: circumflex
Encoding: 710 710 123
Width: 690
VWidth: 2982
Flags: W
HStem: 1461 267
VStem: 72 548
DStem2: 72 1461 195 1461 0.671567 0.740944<82.6027 307.006> 378 1728 346 1627 0.671567 -0.740944<53.3452 279.763>
LayerCount: 2
Fore
SplineSet
314 1728 m 1
 378 1728 l 1
 620 1461 l 1
 500 1461 l 1
 346 1627 l 1
 195 1461 l 1
 72 1461 l 1
 314 1728 l 1
EndSplineSet
Validated: 1
EndChar

StartChar: tilde
Encoding: 732 732 124
Width: 648
VWidth: 2982
Flags: W
HStem: 1305 92<357.499 513.615> 1414 88<142.06 301.016>
VStem: 72 60<1323 1399.3> 521 58<1413.13 1489>
LayerCount: 2
Fore
SplineSet
521 1489 m 1
 579 1489 l 1
 579 1367 544 1305 459 1305 c 3
 360 1305 275 1414 199 1414 c 3
 177 1414 134 1399 132 1323 c 1
 72 1323 l 1
 72 1428 106 1502 199 1502 c 3
 310 1502 383 1397 459 1397 c 3
 481 1397 521 1417 521 1489 c 1
EndSplineSet
Validated: 1
EndChar

StartChar: macron
Encoding: 175 175 125
Width: 856
VWidth: 2982
Flags: W
HStem: 1209 89<124 737>
VStem: 124 613<1209 1298>
LayerCount: 2
Fore
SplineSet
737 1298 m 1
 737 1209 l 1
 124 1209 l 1
 124 1298 l 1
 737 1298 l 1
EndSplineSet
Validated: 1
EndChar

StartChar: dotaccent
Encoding: 729 729 126
Width: 570
VWidth: 2982
Flags: W
HStem: 1238 168<214.396 357.821>
VStem: 203 166<1248.65 1395.61>
LayerCount: 2
Fore
SplineSet
203 1323 m 0
 203 1367 242 1406 286 1406 c 0
 331 1406 369 1367 369 1323 c 0
 369 1278 331 1238 286 1238 c 0
 242 1238 203 1278 203 1323 c 0
EndSplineSet
Validated: 1
EndChar

StartChar: dieresis
Encoding: 168 168 127
Width: 767
VWidth: 2982
Flags: W
HStem: 1209 168<134.891 277.569 492.179 635.821>
VStem: 124 165<1219.19 1366.35> 481 166<1219.19 1366.35>
LayerCount: 2
Fore
SplineSet
124 1292 m 0
 124 1337 161 1377 205 1377 c 0
 250 1377 289 1337 289 1292 c 0
 289 1247 250 1209 205 1209 c 0
 161 1209 124 1247 124 1292 c 0
481 1292 m 0
 481 1337 519 1377 564 1377 c 0
 609 1377 647 1337 647 1292 c 0
 647 1247 609 1209 564 1209 c 0
 519 1209 481 1247 481 1292 c 0
EndSplineSet
Validated: 1
EndChar

StartChar: ring
Encoding: 730 730 128
Width: 570
VWidth: 2982
Flags: W
HStem: 1121 90<192.567 380.683> 1461 90<191.591 381.657>
VStem: 72 89<1242.87 1430.75> 412 90<1242.87 1430.75>
LayerCount: 2
Fore
SplineSet
286 1551 m 0
 406 1551 502 1457 502 1337 c 0
 502 1218 406 1121 286 1121 c 0
 168 1121 72 1218 72 1337 c 0
 72 1457 168 1551 286 1551 c 0
161 1337 m 0
 161 1269 218 1211 286 1211 c 0
 356 1211 412 1269 412 1337 c 0
 412 1406 356 1461 286 1461 c 0
 218 1461 161 1406 161 1337 c 0
EndSplineSet
Validated: 1
EndChar

StartChar: cedilla
Encoding: 184 184 129
Width: 624
VWidth: 2982
Flags: W
HStem: -401 89<171.005 387.292> -20 20G<304.537 401>
VStem: 393 90<-301.778 -191.682>
LayerCount: 2
Fore
SplineSet
316 0 m 1
 401 0 l 1
 346 -96 l 1
 483 -119 483 -213 483 -244 c 0
 483 -338 403 -401 297 -401 c 0
 248 -401 195 -385 143 -352 c 1
 190 -278 l 1
 226 -302 267 -312 297 -312 c 0
 359 -312 393 -280 393 -244 c 0
 393 -203 340 -181 286 -173 c 2
 222 -164 l 1
 316 0 l 1
EndSplineSet
Validated: 1
EndChar

StartChar: hungarumlaut
Encoding: 733 733 130
Width: 1017
VWidth: 2982
Flags: W
HStem: 1194 357
LayerCount: 2
Fore
SplineSet
430 1551 m 1
 598 1551 l 1
 312 1194 l 1
 203 1194 l 1
 430 1551 l 1
818 1551 m 1
 985 1551 l 1
 698 1194 l 1
 591 1194 l 1
 818 1551 l 1
EndSplineSet
Validated: 1
EndChar

StartChar: ogonek
Encoding: 731 731 131
Width: 603
VWidth: 2982
Flags: W
HStem: -391 75<256.37 431.203> -20 20G<232.5 359>
VStem: 143 92<-298.268 -94.4338>
LayerCount: 2
Fore
SplineSet
419 -289 m 1
 463 -342 l 1
 414 -376 365 -391 316 -391 c 0
 222 -391 143 -325 143 -226 c 0
 143 -143 203 -62 262 0 c 1
 359 0 l 1
 262 -98 235 -164 235 -224 c 0
 235 -280 286 -316 342 -316 c 0
 367 -316 393 -307 419 -289 c 1
EndSplineSet
Validated: 1
EndChar

StartChar: caron
Encoding: 711 711 132
Width: 690
VWidth: 2982
Flags: W
HStem: 1461 267
VStem: 72 548
DStem2: 195 1728 72 1728 0.671567 -0.740944<0 222.18> 346 1565 378 1461 0.671567 0.740944<0 224.195>
LayerCount: 2
Fore
SplineSet
378 1461 m 1
 314 1461 l 1
 72 1728 l 1
 195 1728 l 1
 346 1565 l 1
 500 1728 l 1
 620 1728 l 1
 378 1461 l 1
EndSplineSet
Validated: 1
EndChar

StartChar: emdash
Encoding: 8212 8212 133
Width: 1125
VWidth: 2982
Flags: W
HStem: 446 125<0 1128>
LayerCount: 2
Fore
SplineSet
1128 571 m 1
 1128 446 l 1
 0 446 l 1
 0 571 l 1
 1128 571 l 1
EndSplineSet
Validated: 1
EndChar

StartChar: AE
Encoding: 198 198 134
Width: 1542
VWidth: 2982
Flags: W
HStem: 0 90<1047 1506> 463 90<361 871> 822 90<914 1424> 1403 90<714 716 806 1484>
DStem2: 36 0 132 0 0.382461 0.923972<36.7163 537.183 635.256 1555.64> 806 1403 716 1403 0.180859 -0.983509<0 498.999 590.951 847.739 938.967 1334.93>
LayerCount: 2
Fore
SplineSet
1424 912 m 1
 1424 822 l 1
 914 822 l 1
 1047 90 l 1
 1506 90 l 1
 1506 0 l 1
 974 0 l 1
 886 463 l 1
 322 463 l 1
 132 0 l 1
 36 0 l 1
 654 1493 l 1
 1484 1493 l 1
 1484 1403 l 1
 806 1403 l 1
 895 912 l 1
 1424 912 l 1
361 553 m 1
 871 553 l 1
 716 1403 l 1
 714 1403 l 1
 361 553 l 1
EndSplineSet
Validated: 1
EndChar

StartChar: ordfeminine
Encoding: 170 170 135
Width: 872
VWidth: 2982
Flags: W
HStem: 620 78<257.668 509.273> 1032 62<280.698 626.252> 1290 73<294.841 534.929>
VStem: 124 75<756.443 966.16> 645 83<834.669 1011.53 1057 1185.07> 671 81<634.814 793.77>
LayerCount: 2
Fore
SplineSet
645 938 m 1xf8
 645 1000 l 1
 589 1019 510 1032 436 1032 c 0
 314 1032 199 994 199 861 c 0
 199 754 284 698 385 698 c 0
 534 698 636 853 645 938 c 1xf8
213 1164 m 1
 150 1200 l 1
 205 1296 302 1363 412 1363 c 0
 585 1363 728 1238 728 1032 c 2
 728 822 l 2xf8
 728 803 734 709 752 638 c 1
 671 620 l 1xf4
 660 665 651 728 647 797 c 1
 598 707 508 620 385 620 c 0
 235 620 124 716 124 861 c 0
 124 1036 271 1094 427 1094 c 0
 504 1094 581 1081 645 1057 c 1
 636 1202 534 1290 406 1290 c 0
 329 1290 258 1243 213 1164 c 1
EndSplineSet
Validated: 1
EndChar

StartChar: Lslash
Encoding: 321 321 136
Width: 1080
VWidth: 2982
Flags: W
HStem: 0 90<233 1012> 994 20G<556.459 579> 1473 20G<143 233>
VStem: 143 90<90 508 707 1493>
DStem2: -15 485 -15 367 0.746785 0.665066<0 133.288 332.847 716.267>
LayerCount: 2
Fore
SplineSet
1012 0 m 1
 143 0 l 1
 143 508 l 1
 -15 367 l 1
 -15 485 l 1
 143 626 l 1
 143 1493 l 1
 233 1493 l 1
 233 707 l 1
 579 1014 l 1
 579 895 l 1
 233 589 l 1
 233 90 l 1
 1012 90 l 1
 1012 0 l 1
EndSplineSet
Validated: 1
EndChar

StartChar: Oslash
Encoding: 216 216 137
Width: 1756
VWidth: 2982
Flags: W
HStem: -15 89<644.967 1106.9> 1417 89<652.698 1121.07>
VStem: 124 89<509.331 973.982> 1549 87<516.912 980.329>
DStem2: 305 -64 378 -114 0.549617 0.835417<0 235.831 323.966 1659.42 1749.7 1997.79>
LayerCount: 2
Fore
SplineSet
378 -114 m 1
 305 -64 l 1
 432 132 l 1
 244 269 124 493 124 745 c 0
 124 1166 463 1506 880 1506 c 0
 1023 1506 1155 1468 1269 1399 c 1
 1403 1605 l 1
 1478 1558 l 1
 1341 1350 l 1
 1520 1209 1636 991 1636 745 c 0
 1636 325 1296 -15 878 -15 c 0
 743 -15 618 20 508 83 c 1
 378 -114 l 1
1292 1273 m 1
 557 158 l 1
 654 105 763 74 880 74 c 0
 1251 74 1549 376 1549 745 c 0
 1549 961 1448 1153 1292 1273 c 1
483 205 m 1
 1218 1325 l 1
 1119 1386 1003 1417 880 1417 c 0
 510 1417 213 1117 213 745 c 0
 213 526 320 329 483 205 c 1
EndSplineSet
Validated: 1
EndChar

StartChar: OE
Encoding: 338 338 138
Width: 1920
VWidth: 2982
Flags: W
HStem: -15 89<652.698 993.131> 0 90<1083 1862> 822 90<1083 1802> 1417 89<655.385 992.356 1081 1860>
VStem: 124 89<516.912 973.982> 994 89<90 822 912 1403>
LayerCount: 2
Fore
SplineSet
1081 912 m 1xbc
 1802 912 l 1
 1802 822 l 1
 1083 822 l 1
 1083 90 l 1
 1862 90 l 1
 1862 0 l 1
 1030 0 l 1x7c
 983 -9 931 -15 880 -15 c 0
 463 -15 124 325 124 745 c 0
 124 1166 463 1506 880 1506 c 0
 931 1506 983 1502 1030 1493 c 1
 1860 1493 l 1
 1860 1403 l 1
 1081 1403 l 1
 1081 912 l 1xbc
994 83 m 1
 994 1408 l 1
 959 1414 920 1417 880 1417 c 0
 510 1417 213 1117 213 745 c 0
 213 376 510 74 880 74 c 0xbc
 920 74 959 79 994 83 c 1
EndSplineSet
Validated: 1
EndChar

StartChar: ordmasculine
Encoding: 186 186 139
Width: 923
VWidth: 2982
Flags: W
HStem: 618 87<323.205 602.821> 1211 87<323.205 602.821>
VStem: 124 89<817.739 1099.77> 714 89<817.739 1099.77>
LayerCount: 2
Fore
SplineSet
463 1298 m 0
 651 1298 803 1147 803 959 c 0
 803 771 651 618 463 618 c 0
 275 618 124 771 124 959 c 0
 124 1147 275 1298 463 1298 c 0
213 959 m 0
 213 818 325 705 463 705 c 0
 600 705 714 818 714 959 c 0
 714 1100 600 1211 463 1211 c 0
 325 1211 213 1100 213 959 c 0
EndSplineSet
Validated: 1
EndChar

StartChar: ae
Encoding: 230 230 140
Width: 1859
VWidth: 2982
Flags: W
HStem: -15 94<260.487 601.468 1105.8 1432.97> 508 85<393.172 806 904 1641> 942 90<345.404 646.977 1114.25 1427.26>
VStem: 101 89<149.022 371.794> 806 87<344.394 508 593 692.986>
LayerCount: 2
Fore
SplineSet
1739 508 m 1
 893 508 l 1
 893 267 1066 79 1269 79 c 0
 1399 79 1515 154 1585 278 c 1
 1664 233 l 1
 1583 87 1435 -15 1269 -15 c 0
 1090 -15 940 96 859 258 c 1
 763 109 607 -17 421 -17 c 0
 195 -17 101 137 101 262 c 0
 101 589 557 593 806 593 c 1
 799 824 647 942 495 942 c 0
 403 942 307 895 239 797 c 1
 168 844 l 1
 252 974 376 1032 495 1032 c 0
 647 1032 799 938 861 759 c 1
 942 920 1094 1030 1271 1030 c 0
 1520 1030 1717 814 1737 553 c 1
 1739 508 l 1
421 72 m 0
 575 72 743 195 826 342 c 1
 814 393 806 448 806 508 c 1
 589 504 190 502 190 262 c 0
 190 179 260 72 421 72 c 0
904 593 m 1
 1641 593 l 1
 1605 795 1450 940 1271 940 c 0
 1094 940 940 795 904 593 c 1
EndSplineSet
Validated: 1
EndChar

StartChar: lslash
Encoding: 322 322 141
Width: 373
VWidth: 2982
Flags: W
HStem: 0 21G<143 233> 1473 20G<143 233>
VStem: 143 90<0 508 707 1493>
DStem2: 30 526 143 508 0.743762 0.668444<0 72.0131 271.972 344.654>
LayerCount: 2
Fore
SplineSet
233 0 m 1
 143 0 l 1
 143 508 l 1
 30 406 l 1
 30 526 l 1
 143 626 l 1
 143 1493 l 1
 233 1493 l 1
 233 707 l 1
 346 808 l 1
 346 690 l 1
 233 589 l 1
 233 0 l 1
EndSplineSet
Validated: 1
EndChar

StartChar: oslash
Encoding: 248 248 142
Width: 1284
VWidth: 2982
Flags: W
HStem: -15 87<494.109 827.832> 938 92<453.531 809.457>
VStem: 124 84<322.852 685.037> 1077 87<316.577 689.899>
DStem2: 302 -69 383 -109 0.464616 0.885512<2.21341 151.823 236.622 1095.5 1185.1 1348.22>
LayerCount: 2
Fore
SplineSet
929 1126 m 1
 1012 1081 l 1
 938 938 l 1
 1074 844 1164 687 1164 508 c 0
 1164 218 931 -15 645 -15 c 0
 575 -15 510 -2 450 20 c 1
 383 -109 l 1
 302 -69 l 1
 369 62 l 1
 222 154 124 320 124 508 c 0
 124 797 356 1030 643 1030 c 0
 716 1030 788 1014 853 985 c 1
 929 1126 l 1
895 857 m 1
 493 98 l 1
 540 81 591 72 645 72 c 0
 884 72 1077 267 1077 504 c 0
 1077 651 1006 779 895 857 c 1
412 137 m 1
 812 902 l 1
 759 925 701 938 643 938 c 0
 403 938 208 743 208 504 c 0
 208 349 289 215 412 137 c 1
EndSplineSet
Validated: 1
EndChar

StartChar: oe
Encoding: 339 339 143
Width: 2125
VWidth: 2982
Flags: W
HStem: -15 89<460.967 830.005 1387.5 1696.42> 504 89<1173 1909> 940 90<460.967 834.308 1377.84 1703.06>
VStem: 124 89<323.928 691.181> 1077 87<325.969 504 593 691.815>
LayerCount: 2
Fore
SplineSet
213 508 m 0
 213 269 406 74 645 74 c 0
 884 74 1077 269 1077 508 c 0
 1077 745 884 940 645 940 c 0
 406 940 213 745 213 508 c 0
2006 504 m 1
 1164 504 l 1
 1164 262 1337 79 1540 79 c 0
 1672 79 1788 154 1856 278 c 1
 1934 233 l 1
 1854 87 1708 -15 1540 -15 c 0
 1350 -15 1188 109 1117 289 c 1
 1032 109 850 -15 643 -15 c 0
 356 -15 124 218 124 508 c 0
 124 797 356 1030 643 1030 c 0
 850 1030 1032 904 1117 726 c 1
 1188 904 1350 1030 1538 1030 c 0
 1784 1030 1981 814 2003 553 c 1
 2006 504 l 1
1173 593 m 1
 1909 593 l 1
 1873 795 1719 942 1540 942 c 0
 1363 942 1209 795 1173 593 c 1
EndSplineSet
Validated: 1
EndChar

StartChar: germandbls
Encoding: 223 223 144
Width: 1132
VWidth: 2982
Flags: W
HStem: -17 71<466.213 752.125> 0 21G<168 258> 1578 88<407.397 695.615>
VStem: 168 90<0 1398.42> 579 92<767.422 949.705> 824 92<1158.49 1444.97> 920 92<201.53 494.089>
LayerCount: 2
Fore
SplineSet
258 1166 m 2xbe
 258 0 l 1
 168 0 l 1x7e
 168 1164 l 2
 168 1506 359 1666 553 1666 c 0
 737 1666 916 1523 916 1280 c 0
 916 1055 671 976 671 861 c 0
 671 709 1012 626 1012 365 c 0
 1012 119 831 -17 634 -17 c 0
 530 -17 427 17 340 92 c 1
 401 132 l 1
 463 79 538 54 611 54 c 0
 771 54 920 171 920 369 c 0
 920 589 579 647 579 867 c 0
 579 1032 824 1100 824 1283 c 0
 824 1471 687 1578 546 1578 c 0
 403 1578 258 1461 258 1166 c 2xbe
EndSplineSet
Validated: 1
EndChar

StartChar: logicalnot
Encoding: 172 172 145
Width: 1393
VWidth: 2982
Flags: W
HStem: 822 90<124 1184>
VStem: 1184 89<359 822>
LayerCount: 2
Fore
SplineSet
1273 912 m 1
 1273 359 l 1
 1184 359 l 1
 1184 822 l 1
 124 822 l 1
 124 912 l 1
 1273 912 l 1
EndSplineSet
Validated: 1
EndChar

StartChar: trademark
Encoding: 8482 8482 146
Width: 1713
VWidth: 2982
Flags: W
HStem: 1414 79<143 356 432 645> 1491 20G<844.005 857.488>
VStem: 356 76<745 1414>
DStem2: 696 750 777 750 0.195868 0.98063<15.8653 540.673> 848 1511 878 1265 0.4286 -0.903494<235.118 669.622> 1135 906 1130 728 0.436384 0.899761<0 434.647> 1426 1506 1397 1262 0.190904 -0.981609<233.976 760.177>
LayerCount: 2
Fore
SplineSet
645 1493 m 1xa0
 645 1414 l 1
 432 1414 l 1
 432 745 l 1
 356 745 l 1
 356 1414 l 1
 143 1414 l 1
 143 1493 l 1
 645 1493 l 1xa0
1397 1262 m 1
 1130 728 l 1
 878 1265 l 1
 777 750 l 1
 696 750 l 1
 848 1511 l 1x60
 1135 906 l 1
 1426 1506 l 1
 1574 745 l 1
 1495 745 l 1
 1397 1262 l 1
EndSplineSet
Validated: 1
EndChar

StartChar: Eth
Encoding: 208 208 147
Width: 1346
VWidth: 2982
Flags: W
HStem: 0 90<258 710.868> 701 89<9 168 258 698> 1403 90<258 710.868>
VStem: 168 90<90 701 790 1403> 1137 89<518.585 972.524>
LayerCount: 2
Fore
SplineSet
258 90 m 1
 468 90 l 2
 839 90 1137 376 1137 745 c 0
 1137 1117 839 1403 468 1403 c 2
 258 1403 l 1
 258 790 l 1
 698 790 l 1
 698 701 l 1
 258 701 l 1
 258 90 l 1
168 790 m 1
 168 1493 l 1
 468 1493 l 2
 886 1493 1226 1166 1226 745 c 0
 1226 325 886 0 468 0 c 2
 168 0 l 1
 168 701 l 1
 9 701 l 1
 9 790 l 1
 168 790 l 1
EndSplineSet
Validated: 1
EndChar

StartChar: onehalf
Encoding: 189 189 148
Width: 1848
VWidth: 2982
Flags: W
HStem: 0 90<1173 1690> 920 90<1295.72 1531.2> 1473 20G<363.575 393 1317.79 1442>
VStem: 305 88<504 1337> 1117 90<683 829.843> 1619 94<572.005 825.844>
DStem2: 137 1332 188 1256 0.827047 0.562133<0 141.755> 271 0 383 0 0.579274 0.815133<64.8787 1831.6>
LayerCount: 2
Fore
SplineSet
1690 90 m 1
 1690 0 l 1
 1072 0 l 1
 1072 43 l 2
 1072 383 1619 436 1619 683 c 0
 1619 818 1523 920 1412 920 c 0
 1301 920 1207 818 1207 683 c 1
 1117 683 l 1
 1117 859 1247 1010 1414 1010 c 0
 1583 1010 1713 861 1713 687 c 0
 1713 387 1226 329 1173 90 c 1
 1690 90 l 1
1332 1493 m 1
 1442 1493 l 1
 383 0 l 1
 271 0 l 1
 1332 1493 l 1
305 504 m 1
 305 1337 l 1
 188 1256 l 1
 137 1332 l 1
 393 1506 l 1
 393 504 l 1
 305 504 l 1
EndSplineSet
Validated: 1
LCarets2: 2 0 0 
Ligature2: "'frac' Diagonal Fractions in Latin lookup 42" one fraction two
Ligature2: "'frac' Diagonal Fractions in Latin lookup 42" one slash two
EndChar

StartChar: plusminus
Encoding: 177 177 149
Width: 1036
VWidth: 2982
Flags: W
HStem: 0 90<124 916> 701 89<124 474 564 916>
VStem: 474 90<349 701 790 1144>
LayerCount: 2
Fore
SplineSet
916 90 m 1
 916 0 l 1
 124 0 l 1
 124 90 l 1
 916 90 l 1
564 349 m 1
 474 349 l 1
 474 701 l 1
 124 701 l 1
 124 790 l 1
 474 790 l 1
 474 1144 l 1
 564 1144 l 1
 564 790 l 1
 916 790 l 1
 916 701 l 1
 564 701 l 1
 564 349 l 1
EndSplineSet
Validated: 1
EndChar

StartChar: Thorn
Encoding: 222 222 150
Width: 1134
VWidth: 2982
Flags: W
HStem: 0 21G<168 258> 316 94<261.07 707.107> 1083 88<261.07 700.793> 1473 20G<168 258>
VStem: 168 90<0 333 419.708 1072.49 1153 1493> 922 92<586.998 901.371>
LayerCount: 2
Fore
SplineSet
258 1066 m 1
 258 427 l 1
 325 414 391 410 450 410 c 0
 732 410 922 530 922 745 c 0
 922 961 732 1083 450 1083 c 0
 391 1083 325 1077 258 1066 c 1
168 0 m 1
 168 1493 l 1
 258 1493 l 1
 258 1153 l 1
 322 1164 387 1171 450 1171 c 0
 797 1171 1014 1000 1014 743 c 0
 1014 485 797 316 450 316 c 0
 387 316 322 322 258 333 c 1
 258 0 l 1
 168 0 l 1
EndSplineSet
Validated: 1
EndChar

StartChar: onequarter
Encoding: 188 188 151
Width: 1848
VWidth: 2982
Flags: W
HStem: 0 21G<365 488.186 1471 1560> 161 91<1085 1471 1560 1672> 1003 20G<1542.83 1558> 1473 20G<363.575 393 1409.81 1533>
VStem: 305 88<504 1337> 1471 87<0 161 252 761>
DStem2: 137 1332 188 1256 0.827047 0.562133<0 141.755> 365 0 474 0 0.578548 0.815648<63.0617 1830.45> 904 161 1085 252 0.604427 0.796661<181.897 820.706>
LayerCount: 2
Fore
SplineSet
1424 1493 m 1
 1533 1493 l 1
 474 0 l 1
 365 0 l 1
 1424 1493 l 1
1471 252 m 1
 1471 761 l 1
 1085 252 l 1
 1471 252 l 1
305 504 m 1
 305 1337 l 1
 188 1256 l 1
 137 1332 l 1
 393 1506 l 1
 393 504 l 1
 305 504 l 1
1471 161 m 1
 904 161 l 1
 1558 1023 l 1
 1558 252 l 1
 1701 252 l 1
 1672 161 l 1
 1560 161 l 1
 1560 0 l 1
 1471 0 l 1
 1471 161 l 1
EndSplineSet
Validated: 1
LCarets2: 2 0 0 
Ligature2: "'frac' Diagonal Fractions in Latin lookup 42" one fraction four
Ligature2: "'frac' Diagonal Fractions in Latin lookup 42" one slash four
EndChar

StartChar: divide
Encoding: 247 247 152
Width: 1078
VWidth: 2982
Flags: W
HStem: 385 168<468.179 612.569> 701 89<143 938> 940 168<468.179 612.569>
VStem: 457 167<395.187 542.349 950.187 1097.35>
LayerCount: 2
Fore
SplineSet
457 468 m 0
 457 513 495 553 540 553 c 0
 585 553 624 513 624 468 c 0
 624 423 585 385 540 385 c 0
 495 385 457 423 457 468 c 0
457 1023 m 0
 457 1068 495 1108 540 1108 c 0
 585 1108 624 1068 624 1023 c 0
 624 978 585 940 540 940 c 0
 495 940 457 978 457 1023 c 0
938 790 m 1
 938 701 l 1
 143 701 l 1
 143 790 l 1
 938 790 l 1
EndSplineSet
Validated: 1
EndChar

StartChar: brokenbar
Encoding: 166 166 153
Width: 422
VWidth: 2982
Flags: W
HStem: -508 21G<168 258>
VStem: 168 90<-508 297 716 1523>
LayerCount: 2
Fore
SplineSet
258 716 m 1
 168 716 l 1
 168 1523 l 1
 258 1523 l 1
 258 716 l 1
258 -508 m 1
 168 -508 l 1
 168 297 l 1
 258 297 l 1
 258 -508 l 1
EndSplineSet
Validated: 1
EndChar

StartChar: degree
Encoding: 176 176 154
Width: 749
VWidth: 2982
Flags: W
HStem: 1211 94<265.227 487.011> 1627 92<265.227 487.011>
VStem: 124 91<1355.13 1576.24> 538 90<1355.13 1576.24>
LayerCount: 2
Fore
SplineSet
376 1719 m 0
 517 1719 628 1605 628 1466 c 0
 628 1325 517 1211 376 1211 c 0
 235 1211 124 1325 124 1466 c 0
 124 1605 235 1719 376 1719 c 0
215 1466 m 0
 215 1377 286 1305 376 1305 c 0
 466 1305 538 1377 538 1466 c 0
 538 1555 466 1627 376 1627 c 0
 286 1627 215 1555 215 1466 c 0
EndSplineSet
Validated: 1
EndChar

StartChar: thorn
Encoding: 254 254 155
Width: 1232
VWidth: 2982
Flags: W
HStem: -508 21G<168 258> -15 94<470.995 801.842> 942 88<470.995 801.842> 1473 20G<168 258>
VStem: 168 90<-508 199 301.316 719.684 814 1493> 1021 92<315.353 708.351>
LayerCount: 2
Fore
SplineSet
258 -508 m 1
 168 -508 l 1
 168 1493 l 1
 258 1493 l 1
 258 814 l 1
 342 942 481 1030 638 1030 c 0
 904 1030 1113 790 1113 508 c 0
 1113 224 904 -15 638 -15 c 0
 481 -15 342 72 258 199 c 1
 258 -508 l 1
258 544 m 1
 258 477 l 1
 271 250 438 79 636 79 c 0
 844 79 1021 269 1021 510 c 0
 1021 752 844 942 636 942 c 0
 438 942 271 771 258 544 c 1
EndSplineSet
Validated: 1
EndChar

StartChar: threequarters
Encoding: 190 190 156
Width: 1848
VWidth: 2982
Flags: W
HStem: 0 21G<483 607.213 1531 1621> 164 88<1147 1531 1621 1730> 485 88<289.377 553.115> 1007 20G<1603.84 1619> 1027 90<421 538.271> 1417 89<310.048 531.344>
VStem: 105 90<663.272 799> 171 89<1260 1367.15> 581 84<1160.36 1363.31> 647 85<668.807 929.288> 1531 88<0 164 252 761>
DStem2: 483 0 593 0 0.579274 0.815133<63.7201 1830.44> 965 164 1147 252 0.603982 0.796998<180.061 817.662>
LayerCount: 2
Fore
SplineSet
105 799 m 1xee60
 195 799 l 1
 195 673 295 573 421 573 c 0
 546 573 647 673 647 799 c 0xee60
 647 925 546 1027 421 1027 c 1
 421 1117 l 1
 510 1117 581 1173 581 1260 c 0
 581 1345 510 1417 421 1417 c 0
 331 1417 260 1345 260 1260 c 1
 171 1260 l 1
 171 1397 280 1506 419 1506 c 0
 555 1506 665 1397 665 1260 c 0xeda0
 665 1179 626 1113 571 1072 c 1
 665 1019 732 916 732 799 c 0
 732 626 591 485 419 485 c 0
 244 485 105 626 105 799 c 1xee60
1542 1493 m 1
 1654 1493 l 1
 593 0 l 1
 483 0 l 1
 1542 1493 l 1
1531 252 m 1
 1531 761 l 1
 1147 252 l 1
 1531 252 l 1
1531 164 m 1
 965 164 l 1
 1619 1027 l 1xf420
 1619 252 l 1
 1762 252 l 1
 1730 164 l 1
 1621 164 l 1
 1621 0 l 1
 1531 0 l 1
 1531 164 l 1
EndSplineSet
Validated: 1
LCarets2: 2 0 0 
Ligature2: "'frac' Diagonal Fractions in Latin lookup 42" three fraction four
Ligature2: "'frac' Diagonal Fractions in Latin lookup 42" three slash four
EndChar

StartChar: registered
Encoding: 174 174 157
Width: 1758
VWidth: 2982
Flags: W
HStem: -15 89<652.698 1107.9> 692 89<726 914> 1090 89<726 1034.8> 1417 89<652.698 1107.9>
VStem: 124 89<516.912 973.982> 636 90<314 692 781 1090> 1083 90<824.135 1045.86> 1549 89<516.912 973.982>
DStem2: 1010 705 914 692 0.480109 -0.877209<0 395.321>
LayerCount: 2
Fore
SplineSet
1224 314 m 1
 1119 314 l 1
 914 692 l 1
 726 692 l 1
 726 314 l 1
 636 314 l 1
 636 1179 l 1
 938 1179 l 2
 1068 1179 1173 1068 1173 933 c 0
 1173 826 1104 734 1010 705 c 1
 1224 314 l 1
213 745 m 0
 213 376 510 74 880 74 c 0
 1251 74 1549 376 1549 745 c 0
 1549 1117 1251 1417 880 1417 c 0
 510 1417 213 1117 213 745 c 0
880 1506 m 0
 1298 1506 1638 1166 1638 745 c 0
 1638 325 1298 -15 880 -15 c 0
 463 -15 124 325 124 745 c 0
 124 1166 463 1506 880 1506 c 0
726 781 m 1
 940 781 l 2
 1019 781 1083 848 1083 933 c 0
 1083 1021 1019 1090 938 1090 c 2
 726 1090 l 1
 726 781 l 1
EndSplineSet
Validated: 1
EndChar

StartChar: eth
Encoding: 240 240 158
Width: 1282
VWidth: 2982
Flags: W
HStem: -15 87<451.877 823.743> 938 92<451.877 827.805>
VStem: 124 81<327.305 679.002> 1072 90<316.577 691.675>
DStem2: 275 1194 320 1117 0.857493 0.514496<0 328.763 458.759 791.98>
LayerCount: 2
Fore
SplineSet
714 1354 m 1
 716 1352 l 1
 1121 1010 1162 636 1162 508 c 0
 1162 218 929 -15 643 -15 c 0
 356 -15 124 218 124 508 c 0
 124 797 356 1030 643 1030 c 0
 761 1030 871 991 959 922 c 1
 880 1068 767 1200 636 1305 c 1
 320 1117 l 1
 275 1194 l 1
 557 1363 l 1
 459 1433 352 1486 248 1520 c 1
 275 1605 l 1
 396 1567 521 1502 638 1414 c 1
 955 1602 l 1
 1000 1525 l 1
 714 1354 l 1
638 938 m 0
 401 938 205 743 205 504 c 0
 205 267 401 72 638 72 c 0
 878 72 1072 267 1072 504 c 0
 1071 765 862 938 638 938 c 0
EndSplineSet
Validated: 1
EndChar

StartChar: multiply
Encoding: 215 215 159
Width: 1066
VWidth: 2982
Flags: W
DStem2: 199 1144 72 1144 0.707995 -0.706218<0 477.892 567.099 1035.8> 87 349 213 349 0.701254 0.712912<88.358 552.272 642.066 1115.15>
LayerCount: 2
Fore
SplineSet
996 349 m 1
 869 349 l 1
 538 681 l 1
 213 349 l 1
 87 349 l 1
 474 743 l 1
 72 1144 l 1
 199 1144 l 1
 538 806 l 1
 869 1144 l 1
 994 1144 l 1
 600 743 l 1
 996 349 l 1
EndSplineSet
Validated: 1
EndChar

StartChar: copyright
Encoding: 169 169 160
Width: 1758
VWidth: 2982
Flags: W
HStem: -15 89<652.698 1107.9> 312 89<733.287 1021.28> 1085 90<733.287 1021.28> 1417 89<652.698 1107.9>
VStem: 124 89<516.912 973.982> 493 88<565.16 921.15> 1549 89<516.912 973.982>
LayerCount: 2
Fore
SplineSet
880 1506 m 0
 1298 1506 1638 1166 1638 745 c 0
 1638 325 1298 -15 880 -15 c 0
 463 -15 124 325 124 745 c 0
 124 1166 463 1506 880 1506 c 0
213 745 m 0
 213 376 510 74 880 74 c 0
 1251 74 1549 376 1549 745 c 0
 1549 1117 1251 1417 880 1417 c 0
 510 1417 213 1117 213 745 c 0
1128 562 m 1
 1207 517 l 1
 1139 393 1019 312 878 312 c 0
 660 312 493 508 493 743 c 0
 493 978 660 1175 878 1175 c 0
 1019 1175 1139 1092 1207 969 c 1
 1128 925 l 1
 1074 1023 983 1085 878 1085 c 0
 718 1085 581 938 581 743 c 0
 581 549 718 401 878 401 c 0
 983 401 1074 463 1128 562 c 1
EndSplineSet
Validated: 1
EndChar

StartChar: Aacute
Encoding: 193 193 161
Width: 1322
VWidth: 2982
Flags: W
HStem: 0 21G<36 140.207 1185.75 1290> 463 90<365 967> 1491 20G<653.714 670.312>
DStem2: 36 0 132 0 0.382748 0.923853<36.7438 537.21 636.815 1421.43> 662 1511 665 1278 0.383791 -0.92342<216.308 1001.69 1098.62 1599.46>
LayerCount: 2
Fore
SplineSet
799 1878 m 1
 969 1878 l 1
 669 1612 l 1
 575 1612 l 1
 799 1878 l 1
365 553 m 1
 967 553 l 1
 665 1278 l 1
 365 553 l 1
1003 463 m 1
 322 463 l 1
 132 0 l 1
 36 0 l 1
 662 1511 l 1
 1290 0 l 1
 1194 0 l 1
 1003 463 l 1
EndSplineSet
Validated: 1
EndChar

StartChar: Acircumflex
Encoding: 194 194 162
Width: 1322
VWidth: 2982
Flags: W
HStem: 0 21G<36 140.207 1185.75 1290> 463 90<365 967> 1491 20G<653.714 670.312>
DStem2: 36 0 132 0 0.382748 0.923853<36.7438 537.21 636.815 1421.43> 391 1612 513 1612 0.674467 0.738305<82.285 305.148> 698 1878 665 1775 0.67295 -0.739688<53.9806 277.511> 662 1511 665 1278 0.383791 -0.92342<216.308 1001.69 1098.62 1599.46>
LayerCount: 2
Fore
SplineSet
634 1878 m 1
 698 1878 l 1
 940 1612 l 1
 818 1612 l 1
 665 1775 l 1
 513 1612 l 1
 391 1612 l 1
 634 1878 l 1
365 553 m 1
 967 553 l 1
 665 1278 l 1
 365 553 l 1
1003 463 m 1
 322 463 l 1
 132 0 l 1
 36 0 l 1
 662 1511 l 1
 1290 0 l 1
 1194 0 l 1
 1003 463 l 1
EndSplineSet
Validated: 1
EndChar

StartChar: Adieresis
Encoding: 196 196 163
Width: 1322
VWidth: 2982
Flags: W
HStem: 0 21G<36 140.207 1185.75 1290> 463 90<365 967> 1491 20G<653.714 670.312> 1612 167<413.926 559.064 772.179 917.317>
VStem: 403 168<1622.93 1767.32> 761 168<1622.93 1767.32>
DStem2: 36 0 132 0 0.382748 0.923853<36.7438 537.21 636.815 1421.43> 662 1511 665 1278 0.383791 -0.92342<216.308 1001.69 1098.62 1599.46>
LayerCount: 2
Fore
SplineSet
403 1694 m 0
 403 1739 440 1779 485 1779 c 0
 530 1779 571 1739 571 1694 c 0
 571 1649 530 1612 485 1612 c 0
 440 1612 403 1649 403 1694 c 0
761 1694 m 0
 761 1739 799 1779 844 1779 c 0
 889 1779 929 1739 929 1694 c 0
 929 1649 889 1612 844 1612 c 0
 799 1612 761 1649 761 1694 c 0
365 553 m 1
 967 553 l 1
 665 1278 l 1
 365 553 l 1
1003 463 m 1
 322 463 l 1
 132 0 l 1
 36 0 l 1
 662 1511 l 1
 1290 0 l 1
 1194 0 l 1
 1003 463 l 1
EndSplineSet
Validated: 1
EndChar

StartChar: Agrave
Encoding: 192 192 164
Width: 1322
VWidth: 2982
Flags: W
HStem: 0 21G<36 140.207 1185.75 1290> 463 90<365 967> 1491 20G<653.714 670.312>
DStem2: 36 0 132 0 0.382748 0.923853<36.7438 537.21 636.815 1421.43> 662 1511 665 1278 0.383791 -0.92342<216.308 1001.69 1098.62 1599.46>
LayerCount: 2
Fore
SplineSet
365 1878 m 1
 534 1878 l 1
 759 1612 l 1
 665 1612 l 1
 365 1878 l 1
365 553 m 1
 967 553 l 1
 665 1278 l 1
 365 553 l 1
1003 463 m 1
 322 463 l 1
 132 0 l 1
 36 0 l 1
 662 1511 l 1
 1290 0 l 1
 1194 0 l 1
 1003 463 l 1
EndSplineSet
Validated: 1
EndChar

StartChar: Aring
Encoding: 197 197 165
Width: 1322
VWidth: 2982
Flags: W
HStem: 0 21G<36 140.207 1185.75 1290> 463 90<365 967> 1491 20G<653.714 670.312> 1596 89<565.678 754.032> 1937 88<565.678 754.032>
VStem: 446 88<1716.97 1905.32> 786 89<1716.97 1905.32>
DStem2: 36 0 132 0 0.382748 0.923853<36.7438 537.21 636.815 1421.43> 662 1511 665 1278 0.383791 -0.92342<216.308 1001.69 1098.62 1599.46>
LayerCount: 2
Fore
SplineSet
660 2025 m 0
 779 2025 875 1931 875 1811 c 0
 875 1692 779 1596 660 1596 c 0
 540 1596 446 1692 446 1811 c 0
 446 1931 540 2025 660 2025 c 0
534 1811 m 0
 534 1743 591 1685 660 1685 c 0
 728 1685 786 1743 786 1811 c 0
 786 1880 728 1937 660 1937 c 0
 591 1937 534 1880 534 1811 c 0
365 553 m 1
 967 553 l 1
 665 1278 l 1
 365 553 l 1
1003 463 m 1
 322 463 l 1
 132 0 l 1
 36 0 l 1
 662 1511 l 1
 1290 0 l 1
 1194 0 l 1
 1003 463 l 1
EndSplineSet
Validated: 1
EndChar

StartChar: Atilde
Encoding: 195 195 166
Width: 1322
VWidth: 2982
Flags: W
HStem: 0 21G<36 140.207 1185.75 1290> 463 90<365 967> 1491 20G<653.714 670.312> 1596 89<692.615 840.115> 1704 89<469.655 630.519>
VStem: 403 56<1612 1686.33> 850 62<1702.89 1779>
DStem2: 36 0 132 0 0.382748 0.923853<36.7438 537.21 636.815 1421.43> 662 1511 665 1278 0.383791 -0.92342<216.308 1001.69 1098.62 1599.46>
LayerCount: 2
Fore
SplineSet
459 1612 m 1
 403 1612 l 1
 406 1685 419 1793 530 1793 c 0
 638 1793 724 1685 788 1685 c 0
 799 1685 850 1699 850 1779 c 1
 912 1779 l 1
 912 1645 859 1596 786 1596 c 0
 690 1596 600 1704 528 1704 c 0
 504 1704 463 1690 459 1612 c 1
365 553 m 1
 967 553 l 1
 665 1278 l 1
 365 553 l 1
1003 463 m 1
 322 463 l 1
 132 0 l 1
 36 0 l 1
 662 1511 l 1
 1290 0 l 1
 1194 0 l 1
 1003 463 l 1
EndSplineSet
Validated: 1
EndChar

StartChar: Ccedilla
Encoding: 199 199 167
Width: 1613
VWidth: 2982
Flags: W
HStem: -396 89<697.83 916.656> -9 83<658.269 839 922 1106.41> 1417 94<652.698 1115.3>
VStem: 124 89<513.894 976.482> 922 90<-297.473 -188.539>
LayerCount: 2
Fore
SplineSet
1417 346 m 1
 1493 295 l 1
 1361 119 1155 0 922 -11 c 1
 875 -92 l 1
 1012 -116 1012 -208 1012 -242 c 0
 1012 -333 931 -396 826 -396 c 0
 777 -396 724 -383 671 -349 c 1
 718 -275 l 1
 754 -297 795 -307 826 -307 c 0
 886 -307 922 -278 922 -242 c 0
 922 -199 869 -179 814 -171 c 2
 750 -161 l 1
 839 -9 l 1
 438 11 124 342 124 750 c 0
 124 1171 463 1511 880 1511 c 0
 1130 1511 1352 1388 1489 1200 c 1
 1417 1147 l 1
 1296 1309 1102 1417 880 1417 c 0
 510 1417 213 1117 213 745 c 0
 213 376 510 74 880 74 c 0
 1102 74 1296 181 1417 346 c 1
EndSplineSet
Validated: 1
EndChar

StartChar: Eacute
Encoding: 201 201 168
Width: 1094
VWidth: 2982
Flags: W
HStem: 0 90<258 1032> 822 90<258 974> 1403 90<258 1036>
VStem: 168 90<90 822 912 1403>
LayerCount: 2
Fore
SplineSet
822 1878 m 1
 519 1612 l 1
 427 1612 l 1
 651 1878 l 1
 822 1878 l 1
974 912 m 1
 974 822 l 1
 258 822 l 1
 258 90 l 1
 1032 90 l 1
 1032 0 l 1
 168 0 l 1
 168 1493 l 1
 1036 1493 l 1
 1036 1403 l 1
 258 1403 l 1
 258 912 l 1
 974 912 l 1
EndSplineSet
Validated: 1
EndChar

StartChar: Ecircumflex
Encoding: 202 202 169
Width: 1094
VWidth: 2982
Flags: W
HStem: 0 90<258 1032> 822 90<258 974> 1403 90<258 1036>
VStem: 168 90<90 822 912 1403>
DStem2: 286 1612 410 1612 0.67295 0.739688<83.4457 306.303> 598 1878 562 1775 0.671424 -0.741074<52.1593 276.354>
LayerCount: 2
Fore
SplineSet
716 1612 m 1
 562 1775 l 1
 410 1612 l 1
 286 1612 l 1
 528 1878 l 1
 598 1878 l 1
 839 1612 l 1
 716 1612 l 1
974 912 m 1
 974 822 l 1
 258 822 l 1
 258 90 l 1
 1032 90 l 1
 1032 0 l 1
 168 0 l 1
 168 1493 l 1
 1036 1493 l 1
 1036 1403 l 1
 258 1403 l 1
 258 912 l 1
 974 912 l 1
EndSplineSet
Validated: 1
EndChar

StartChar: Edieresis
Encoding: 203 203 170
Width: 1094
VWidth: 2982
Flags: W
HStem: 0 90<258 1032> 822 90<258 974> 1403 90<258 1036> 1612 167<308.936 454.604 667.683 812.821>
VStem: 168 90<90 822 912 1403> 297 169<1622.93 1767.32> 656 168<1622.93 1767.32>
LayerCount: 2
Fore
SplineSet
297 1694 m 0
 297 1739 338 1779 383 1779 c 0
 427 1779 466 1739 466 1694 c 0
 466 1649 427 1612 383 1612 c 0
 338 1612 297 1649 297 1694 c 0
656 1694 m 0
 656 1739 696 1779 741 1779 c 0
 786 1779 824 1739 824 1694 c 0
 824 1649 786 1612 741 1612 c 0
 696 1612 656 1649 656 1694 c 0
974 912 m 1
 974 822 l 1
 258 822 l 1
 258 90 l 1
 1032 90 l 1
 1032 0 l 1
 168 0 l 1
 168 1493 l 1
 1036 1493 l 1
 1036 1403 l 1
 258 1403 l 1
 258 912 l 1
 974 912 l 1
EndSplineSet
Validated: 1
EndChar

StartChar: Egrave
Encoding: 200 200 171
Width: 1094
VWidth: 2982
Flags: W
HStem: 0 90<258 1032> 822 90<258 974> 1403 90<258 1036>
VStem: 168 90<90 822 912 1403>
LayerCount: 2
Fore
SplineSet
302 1878 m 1
 472 1878 l 1
 696 1612 l 1
 602 1612 l 1
 302 1878 l 1
974 912 m 1
 974 822 l 1
 258 822 l 1
 258 90 l 1
 1032 90 l 1
 1032 0 l 1
 168 0 l 1
 168 1493 l 1
 1036 1493 l 1
 1036 1403 l 1
 258 1403 l 1
 258 912 l 1
 974 912 l 1
EndSplineSet
Validated: 1
EndChar

StartChar: Iacute
Encoding: 205 205 172
Width: 422
VWidth: 2982
Flags: W
HStem: 0 21G<168 258> 1473 20G<168 258>
VStem: 168 90<0 1493>
LayerCount: 2
Fore
SplineSet
513 1878 m 1
 213 1612 l 1
 119 1612 l 1
 342 1878 l 1
 513 1878 l 1
258 0 m 1
 168 0 l 1
 168 1493 l 1
 258 1493 l 1
 258 0 l 1
EndSplineSet
Validated: 1
EndChar

StartChar: Icircumflex
Encoding: 206 206 173
Width: 422
VWidth: 2982
Flags: W
HStem: 0 21G<168 258> 1473 20G<168 258>
VStem: 168 90<0 1493>
DStem2: -64 1612 56 1612 0.671424 0.741074<80.5709 303.422> 244 1878 208 1775 0.671424 -0.741074<52.1593 278.368>
LayerCount: 2
Fore
SplineSet
365 1612 m 1
 208 1775 l 1
 56 1612 l 1
 -64 1612 l 1
 177 1878 l 1
 244 1878 l 1
 485 1612 l 1
 365 1612 l 1
258 0 m 1
 168 0 l 1
 168 1493 l 1
 258 1493 l 1
 258 0 l 1
EndSplineSet
Validated: 1
EndChar

StartChar: Idieresis
Encoding: 207 207 174
Width: 422
VWidth: 2982
Flags: W
HStem: 0 21G<168 258> 1473 20G<168 258> 1612 167<-42.5689 102.352 315.926 460.317>
VStem: -54 168<1621.95 1768.35> 168 90<0 1493> 305 167<1622.93 1767.32>
LayerCount: 2
Fore
SplineSet
-54 1694 m 0
 -54 1739 -15 1779 30 1779 c 0
 74 1779 114 1739 114 1694 c 0
 114 1649 74 1612 30 1612 c 0
 -15 1612 -54 1649 -54 1694 c 0
305 1694 m 0
 305 1739 342 1779 387 1779 c 0
 432 1779 472 1739 472 1694 c 0
 472 1649 432 1612 387 1612 c 0
 342 1612 305 1649 305 1694 c 0
258 0 m 1
 168 0 l 1
 168 1493 l 1
 258 1493 l 1
 258 0 l 1
EndSplineSet
Validated: 1
EndChar

StartChar: Igrave
Encoding: 204 204 175
Width: 422
VWidth: 2982
Flags: W
HStem: 0 21G<168 258> 1473 20G<168 258>
VStem: 168 90<0 1493>
LayerCount: 2
Fore
SplineSet
-90 1878 m 1
 81 1878 l 1
 305 1612 l 1
 213 1612 l 1
 -90 1878 l 1
258 0 m 5
 168 0 l 5
 168 1493 l 5
 258 1493 l 5
 258 0 l 5
EndSplineSet
Validated: 1
EndChar

StartChar: Ntilde
Encoding: 209 209 176
Width: 1678
VWidth: 2982
Flags: W
HStem: 0 21G<168 258 1493.8 1513> 1491 2G<168 187.19 1424 1513> 1596 89<871.568 1020.83> 1704 89<648.865 809.632>
VStem: 168 90<0 1290> 581 57<1612 1686.33> 1030 60<1702.89 1779> 1424 89<202 1493>
DStem2: 168 1511 258 1290 0.692348 -0.721564<221.777 1814.12>
LayerCount: 2
Fore
SplineSet
168 0 m 1
 168 1511 l 1
 1424 202 l 1
 1424 1493 l 1
 1513 1493 l 1
 1513 -17 l 1
 258 1290 l 1
 258 0 l 1
 168 0 l 1
638 1612 m 1
 581 1612 l 1
 585 1685 598 1793 709 1793 c 0
 818 1793 902 1685 967 1685 c 0
 978 1685 1030 1699 1030 1779 c 1
 1090 1779 l 1
 1090 1645 1038 1596 965 1596 c 0
 869 1596 779 1704 707 1704 c 0
 683 1704 643 1690 638 1612 c 1
EndSplineSet
Validated: 1
EndChar

StartChar: Oacute
Encoding: 211 211 177
Width: 1758
VWidth: 2982
Flags: W
HStem: -15 89<652.698 1107.9> 1417 89<652.698 1107.9>
VStem: 124 89<516.912 973.982> 1549 89<516.912 973.982>
LayerCount: 2
Fore
SplineSet
1243 1878 m 1
 940 1612 l 1
 848 1612 l 1
 1072 1878 l 1
 1243 1878 l 1
880 1506 m 0
 1298 1506 1638 1166 1638 745 c 0
 1638 325 1298 -15 880 -15 c 0
 463 -15 124 325 124 745 c 0
 124 1166 463 1506 880 1506 c 0
213 745 m 0
 213 376 510 74 880 74 c 0
 1251 74 1549 376 1549 745 c 0
 1549 1117 1251 1417 880 1417 c 0
 510 1417 213 1117 213 745 c 0
EndSplineSet
Validated: 1
EndChar

StartChar: Ocircumflex
Encoding: 212 212 178
Width: 1758
VWidth: 2982
Flags: W
HStem: -15 89<652.698 1107.9> 1417 89<652.698 1107.9>
VStem: 124 89<516.912 973.982> 1549 89<516.912 973.982>
DStem2: 607 1612 728 1612 0.671424 0.741074<81.2423 304.094> 916 1878 880 1775 0.671424 -0.741074<52.1593 277.696>
LayerCount: 2
Fore
SplineSet
1036 1612 m 1
 880 1775 l 1
 728 1612 l 1
 607 1612 l 1
 848 1878 l 1
 916 1878 l 1
 1157 1612 l 1
 1036 1612 l 1
880 1506 m 0
 1298 1506 1638 1166 1638 745 c 0
 1638 325 1298 -15 880 -15 c 0
 463 -15 124 325 124 745 c 0
 124 1166 463 1506 880 1506 c 0
213 745 m 0
 213 376 510 74 880 74 c 0
 1251 74 1549 376 1549 745 c 0
 1549 1117 1251 1417 880 1417 c 0
 510 1417 213 1117 213 745 c 0
EndSplineSet
Validated: 1
EndChar

StartChar: Odieresis
Encoding: 214 214 179
Width: 1758
VWidth: 2982
Flags: W
HStem: -15 89<652.698 1107.9> 1417 89<652.698 1107.9> 1612 167<629.179 774.1 987.179 1132.32>
VStem: 124 89<516.912 973.982> 618 168<1622.93 1767.32> 976 168<1622.93 1767.32> 1549 89<516.912 973.982>
LayerCount: 2
Fore
SplineSet
618 1694 m 0
 618 1739 656 1779 701 1779 c 0
 745 1779 786 1739 786 1694 c 0
 786 1649 745 1612 701 1612 c 0
 656 1612 618 1649 618 1694 c 0
976 1694 m 0
 976 1739 1014 1779 1059 1779 c 0
 1104 1779 1144 1739 1144 1694 c 0
 1144 1649 1104 1612 1059 1612 c 0
 1014 1612 976 1649 976 1694 c 0
880 1506 m 0
 1298 1506 1638 1166 1638 745 c 0
 1638 325 1298 -15 880 -15 c 0
 463 -15 124 325 124 745 c 0
 124 1166 463 1506 880 1506 c 0
213 745 m 0
 213 376 510 74 880 74 c 0
 1251 74 1549 376 1549 745 c 0
 1549 1117 1251 1417 880 1417 c 0
 510 1417 213 1117 213 745 c 0
EndSplineSet
Validated: 1
EndChar

StartChar: Ograve
Encoding: 210 210 180
Width: 1758
VWidth: 2982
Flags: W
HStem: -15 89<652.698 1107.9> 1417 89<652.698 1107.9>
VStem: 124 89<516.912 973.982> 1549 89<516.912 973.982>
LayerCount: 2
Fore
SplineSet
880 1506 m 0
 1298 1506 1638 1166 1638 745 c 0
 1638 325 1298 -15 880 -15 c 0
 463 -15 124 325 124 745 c 0
 124 1166 463 1506 880 1506 c 0
213 745 m 0
 213 376 510 74 880 74 c 0
 1251 74 1549 376 1549 745 c 0
 1549 1117 1251 1417 880 1417 c 0
 510 1417 213 1117 213 745 c 0
495 1878 m 1
 665 1878 l 1
 889 1612 l 1
 797 1612 l 1
 495 1878 l 1
EndSplineSet
Validated: 1
EndChar

StartChar: Otilde
Encoding: 213 213 181
Width: 1758
VWidth: 2982
Flags: W
HStem: -15 89<652.698 1107.9> 1417 89<652.698 1107.9> 1596 89<916.245 1064.03> 1704 89<693.538 854.188>
VStem: 124 89<516.912 973.982> 626 57<1612 1686.33> 1074 61<1702.89 1779> 1549 89<516.912 973.982>
LayerCount: 2
Fore
SplineSet
683 1612 m 1
 626 1612 l 1
 628 1685 643 1793 754 1793 c 0
 861 1793 947 1685 1012 1685 c 0
 1023 1685 1074 1699 1074 1779 c 1
 1135 1779 l 1
 1135 1645 1083 1596 1010 1596 c 0
 914 1596 824 1704 752 1704 c 0
 728 1704 687 1690 683 1612 c 1
880 1506 m 0
 1298 1506 1638 1166 1638 745 c 0
 1638 325 1298 -15 880 -15 c 0
 463 -15 124 325 124 745 c 0
 124 1166 463 1506 880 1506 c 0
213 745 m 0
 213 376 510 74 880 74 c 0
 1251 74 1549 376 1549 745 c 0
 1549 1117 1251 1417 880 1417 c 0
 510 1417 213 1117 213 745 c 0
EndSplineSet
Validated: 1
EndChar

StartChar: Scaron
Encoding: 352 352 182
Width: 1076
VWidth: 2982
Flags: W
HStem: -17 92<359.625 719.054> 1200 21G<805 888.241> 1417 94<387.417 693.888>
VStem: 72 89<289.813 422.772> 188 90<1040.01 1306.6> 916 90<260.888 581.24>
DStem2: 383 1847 260 1847 0.675725 -0.737154<0 222.928> 534 1683 566 1583 0.675725 0.737154<0 224.279>
LayerCount: 2
Fore
SplineSet
566 1583 m 1
 502 1583 l 1
 260 1847 l 1
 383 1847 l 1
 534 1683 l 1
 687 1847 l 1
 808 1847 l 1
 566 1583 l 1
914 1229 m 1
 831 1200 l 1
 779 1350 656 1417 538 1417 c 0
 383 1417 278 1301 278 1162 c 0
 278 814 1006 916 1006 427 c 0
 1006 158 779 -17 534 -17 c 0
 325 -17 114 114 72 421 c 1
 161 432 l 1
 197 177 365 75 534 75 c 0
 728 75 916 208 916 430 c 0
 916 848 188 734 188 1164 c 0
 188 1350 329 1511 538 1511 c 0
 690 1511 850 1414 914 1229 c 1
EndSplineSet
Validated: 1
EndChar

StartChar: Uacute
Encoding: 218 218 183
Width: 1393
VWidth: 2982
Flags: W
HStem: -15 89<524.34 880.839> 1473 20G<168 258 1139 1229>
VStem: 168 90<354.148 1493> 1139 90<354.148 1493>
LayerCount: 2
Fore
SplineSet
875 1878 m 1
 1045 1878 l 1
 743 1612 l 1
 651 1612 l 1
 875 1878 l 1
168 1493 m 1
 258 1493 l 1
 258 566 l 2
 258 289 463 74 701 74 c 0
 940 74 1139 289 1139 566 c 2
 1139 1493 l 1
 1229 1493 l 1
 1229 566 l 2
 1229 248 994 -15 698 -15 c 0
 403 -15 168 248 168 566 c 2
 168 1493 l 1
EndSplineSet
Validated: 1
EndChar

StartChar: Ucircumflex
Encoding: 219 219 184
Width: 1393
VWidth: 2982
Flags: W
HStem: -15 89<524.34 880.839> 1473 20G<168 258 1139 1229>
VStem: 168 90<354.148 1493> 1139 90<354.148 1493>
DStem2: 421 1612 544 1612 0.671424 0.741074<82.5851 305.437> 732 1878 696 1775 0.67295 -0.739688<51.9617 274.819>
LayerCount: 2
Fore
SplineSet
974 1612 m 1
 848 1612 l 1
 696 1775 l 1
 544 1612 l 1
 421 1612 l 1
 662 1878 l 1
 732 1878 l 1
 974 1612 l 1
168 1493 m 1
 258 1493 l 1
 258 566 l 2
 258 289 463 74 701 74 c 0
 940 74 1139 289 1139 566 c 2
 1139 1493 l 1
 1229 1493 l 1
 1229 566 l 2
 1229 248 994 -15 698 -15 c 0
 403 -15 168 248 168 566 c 2
 168 1493 l 1
EndSplineSet
Validated: 1
EndChar

StartChar: Udieresis
Encoding: 220 220 185
Width: 1393
VWidth: 2982
Flags: W
HStem: -15 89<524.34 880.839> 1473 20G<168 258 1139 1229> 1612 167<447.179 590.821 806.179 949.604>
VStem: 168 90<354.148 1493> 436 166<1621.95 1768.35> 795 166<1621.95 1768.35> 1139 90<354.148 1493>
LayerCount: 2
Fore
SplineSet
436 1694 m 0
 436 1739 474 1779 519 1779 c 0
 564 1779 602 1739 602 1694 c 0
 602 1649 564 1612 519 1612 c 0
 474 1612 436 1649 436 1694 c 0
795 1694 m 0
 795 1739 833 1779 878 1779 c 0
 922 1779 961 1739 961 1694 c 0
 961 1649 922 1612 878 1612 c 0
 833 1612 795 1649 795 1694 c 0
168 1493 m 1
 258 1493 l 1
 258 566 l 2
 258 289 463 74 701 74 c 0
 940 74 1139 289 1139 566 c 2
 1139 1493 l 1
 1229 1493 l 1
 1229 566 l 2
 1229 248 994 -15 698 -15 c 0
 403 -15 168 248 168 566 c 2
 168 1493 l 1
EndSplineSet
Validated: 1
EndChar

StartChar: Ugrave
Encoding: 217 217 186
Width: 1393
VWidth: 2982
Flags: W
HStem: -15 89<524.34 880.839> 1473 20G<168 258 1139 1229>
VStem: 168 90<354.148 1493> 1139 90<354.148 1493>
LayerCount: 2
Fore
SplineSet
352 1878 m 1
 521 1878 l 1
 745 1612 l 1
 654 1612 l 1
 352 1878 l 1
168 1493 m 1
 258 1493 l 1
 258 566 l 2
 258 289 463 74 701 74 c 0
 940 74 1139 289 1139 566 c 2
 1139 1493 l 1
 1229 1493 l 1
 1229 566 l 2
 1229 248 994 -15 698 -15 c 0
 403 -15 168 248 168 566 c 2
 168 1493 l 1
EndSplineSet
Validated: 1
EndChar

StartChar: Yacute
Encoding: 221 221 187
Width: 1228
VWidth: 2982
Flags: W
HStem: 0 21G<571 660> 1473 20G<36 153.606 1077.37 1194>
VStem: 571 89<0 645>
DStem2: 141 1493 36 1493 0.53358 -0.845749<0 888.921> 615 741 660 645 0.532866 0.8462<0 889.453>
LayerCount: 2
Fore
SplineSet
795 1878 m 1
 965 1878 l 1
 662 1612 l 1
 571 1612 l 1
 795 1878 l 1
36 1493 m 1
 141 1493 l 1
 615 741 l 1
 1090 1493 l 1
 1194 1493 l 1
 660 645 l 1
 660 0 l 1
 571 0 l 1
 571 645 l 1
 36 1493 l 1
EndSplineSet
Validated: 1
EndChar

StartChar: Ydieresis
Encoding: 376 376 188
Width: 1228
VWidth: 2982
Flags: W
HStem: 0 21G<571 660> 1473 20G<36 153.606 1077.37 1194> 1612 167<366.926 509.821 725.179 868.821>
VStem: 356 165<1621.95 1768.35> 571 89<0 645> 714 166<1621.95 1768.35>
DStem2: 141 1493 36 1493 0.53358 -0.845749<0 888.921> 615 741 660 645 0.532866 0.8462<0 889.453>
LayerCount: 2
Fore
SplineSet
356 1694 m 0
 356 1739 393 1779 438 1779 c 0
 483 1779 521 1739 521 1694 c 0
 521 1649 483 1612 438 1612 c 0
 393 1612 356 1649 356 1694 c 0
714 1694 m 0
 714 1739 752 1779 797 1779 c 0
 842 1779 880 1739 880 1694 c 0
 880 1649 842 1612 797 1612 c 0
 752 1612 714 1649 714 1694 c 0
36 1493 m 1
 141 1493 l 1
 615 741 l 1
 1090 1493 l 1
 1194 1493 l 1
 660 645 l 1
 660 0 l 1
 571 0 l 1
 571 645 l 1
 36 1493 l 1
EndSplineSet
Validated: 1
EndChar

StartChar: Zcaron
Encoding: 381 381 189
Width: 1185
VWidth: 2982
Flags: W
HStem: 0 90<203 1121> 1403 90<134 965>
DStem2: 36 0 203 90 0.552092 0.833783<167.24 1682.69> 440 1847 320 1847 0.675725 -0.737154<0 224.279> 593 1683 626 1583 0.677238 0.735764<0 223.605>
LayerCount: 2
Fore
SplineSet
626 1583 m 1
 562 1583 l 1
 320 1847 l 1
 440 1847 l 1
 593 1683 l 1
 745 1847 l 1
 869 1847 l 1
 626 1583 l 1
134 1493 m 1
 1130 1493 l 1
 203 90 l 1
 1153 90 l 1
 1121 0 l 1
 36 0 l 1
 965 1403 l 1
 105 1403 l 1
 134 1493 l 1
EndSplineSet
Validated: 1
EndChar

StartChar: aacute
Encoding: 225 225 190
Width: 1060
VWidth: 2982
Flags: W
HStem: -17 89<268.282 586.482> 0 21G<818 920> 517 64<453.295 806> 942 90<345.404 643.657>
VStem: 101 89<149.022 375.802> 806 89<1.78638 213 262.714 517 581 759.271>
LayerCount: 2
Fore
SplineSet
628 1457 m 1x3c
 799 1457 l 1
 500 1191 l 1
 406 1191 l 1
 628 1457 l 1x3c
920 0 m 1x7c
 824 0 l 1x7c
 812 38 806 83 806 134 c 2
 806 213 l 1
 718 90 579 -17 421 -17 c 0xbc
 195 -17 101 137 101 262 c 0
 101 577 526 581 779 581 c 2
 806 581 l 1
 799 812 647 942 495 942 c 0
 403 942 307 895 239 797 c 1
 168 844 l 1
 252 974 376 1032 495 1032 c 0
 696 1032 889 871 895 581 c 1
 895 134 l 2
 895 74 904 30 920 0 c 1x7c
421 72 m 0xbc
 585 72 741 205 806 325 c 1
 806 517 l 1
 589 513 190 502 190 262 c 0
 190 179 260 72 421 72 c 0xbc
EndSplineSet
Validated: 1
EndChar

StartChar: acircumflex
Encoding: 226 226 191
Width: 1060
VWidth: 2982
Flags: W
HStem: -17 89<268.282 586.482> 0 21G<818 920> 517 64<453.295 806> 942 90<345.404 643.657>
VStem: 101 89<149.022 375.802> 806 89<1.78638 213 262.714 517 581 759.271>
DStem2: 250 1191 374 1191 0.674467 0.738305<83.6339 306.497> 557 1457 526 1354 0.67295 -0.739688<55.3265 278.857>
LayerCount: 2
Fore
SplineSet
493 1457 m 1x3c
 557 1457 l 1
 799 1191 l 1
 679 1191 l 1
 526 1354 l 1
 374 1191 l 1
 250 1191 l 1
 493 1457 l 1x3c
920 0 m 1x7c
 824 0 l 1x7c
 812 38 806 83 806 134 c 2
 806 213 l 1
 718 90 579 -17 421 -17 c 0xbc
 195 -17 101 137 101 262 c 0
 101 577 526 581 779 581 c 2
 806 581 l 1
 799 812 647 942 495 942 c 0
 403 942 307 895 239 797 c 1
 168 844 l 1
 252 974 376 1032 495 1032 c 0
 696 1032 889 871 895 581 c 1
 895 134 l 2
 895 74 904 30 920 0 c 1x7c
421 72 m 0xbc
 585 72 741 205 806 325 c 1
 806 517 l 1
 589 513 190 502 190 262 c 0
 190 179 260 72 421 72 c 0xbc
EndSplineSet
Validated: 1
EndChar

StartChar: adieresis
Encoding: 228 228 192
Width: 1060
VWidth: 2982
Flags: W
HStem: -17 89<268.282 586.482> 0 21G<818 920> 517 64<453.295 806> 942 90<345.404 643.657> 1194 167<277.156 421.612 634.187 779.813>
VStem: 101 89<149.022 375.802> 267 165<1204.42 1350.81> 624 166<1204.42 1350.81> 806 89<1.78638 213 262.714 517 581 759.271>
LayerCount: 2
Fore
SplineSet
267 1278 m 0x3f80
 267 1323 305 1361 349 1361 c 0
 393 1361 432 1323 432 1278 c 0
 432 1233 393 1194 349 1194 c 0
 305 1194 267 1233 267 1278 c 0x3f80
624 1278 m 0
 624 1323 662 1361 707 1361 c 0
 752 1361 790 1323 790 1278 c 0
 790 1233 752 1194 707 1194 c 0
 662 1194 624 1233 624 1278 c 0
920 0 m 1x7f80
 824 0 l 1x7f80
 812 38 806 83 806 134 c 2
 806 213 l 1
 718 90 579 -17 421 -17 c 0xbf80
 195 -17 101 137 101 262 c 0
 101 577 526 581 779 581 c 2
 806 581 l 1
 799 812 647 942 495 942 c 0
 403 942 307 895 239 797 c 1
 168 844 l 1
 252 974 376 1032 495 1032 c 0
 696 1032 889 871 895 581 c 1
 895 134 l 2
 895 74 904 30 920 0 c 1x7f80
421 72 m 0xbf80
 585 72 741 205 806 325 c 1
 806 517 l 1
 589 513 190 502 190 262 c 0
 190 179 260 72 421 72 c 0xbf80
EndSplineSet
Validated: 1
EndChar

StartChar: agrave
Encoding: 224 224 193
Width: 1060
VWidth: 2982
Flags: W
HStem: -17 89<268.282 586.482> 0 21G<818 920> 517 64<453.295 806> 942 90<345.404 643.657>
VStem: 101 89<149.022 375.802> 806 89<1.78638 213 262.714 517 581 759.271>
LayerCount: 2
Fore
SplineSet
920 0 m 1x7c
 824 0 l 1x7c
 812 38 806 83 806 134 c 2
 806 213 l 1
 718 90 579 -17 421 -17 c 0xbc
 195 -17 101 137 101 262 c 0
 101 577 526 581 779 581 c 2
 806 581 l 1
 799 812 647 942 495 942 c 0
 403 942 307 895 239 797 c 1
 168 844 l 1
 252 974 376 1032 495 1032 c 0
 696 1032 889 871 895 581 c 1
 895 134 l 2
 895 74 904 30 920 0 c 1x7c
421 72 m 0xbc
 585 72 741 205 806 325 c 1
 806 517 l 1
 589 513 190 502 190 262 c 0
 190 179 260 72 421 72 c 0xbc
199 1457 m 1
 369 1457 l 1
 593 1191 l 1
 502 1191 l 1
 199 1457 l 1
EndSplineSet
Validated: 1
EndChar

StartChar: aring
Encoding: 229 229 194
Width: 1060
VWidth: 2982
Flags: W
HStem: -17 89<268.282 586.482> 0 21G<818 920> 517 64<453.295 806> 942 90<345.404 643.657> 1179 90<431.963 619.578> 1520 90<431.963 619.578>
VStem: 101 89<149.022 375.802> 312 89<1299.88 1488.19> 651 90<1299.88 1488.19> 806 89<1.78638 213 262.714 517 581 759.271>
LayerCount: 2
Fore
SplineSet
526 1610 m 0x3fc0
 645 1610 741 1513 741 1395 c 0
 741 1273 645 1179 526 1179 c 0
 406 1179 312 1273 312 1395 c 0
 312 1513 406 1610 526 1610 c 0x3fc0
401 1395 m 0
 401 1325 457 1269 526 1269 c 0
 593 1269 651 1325 651 1395 c 0
 651 1461 593 1520 526 1520 c 0
 457 1520 401 1461 401 1395 c 0
920 0 m 1x7fc0
 824 0 l 1x7fc0
 812 38 806 83 806 134 c 2
 806 213 l 1
 718 90 579 -17 421 -17 c 0xbfc0
 195 -17 101 137 101 262 c 0
 101 577 526 581 779 581 c 2
 806 581 l 1
 799 812 647 942 495 942 c 0
 403 942 307 895 239 797 c 1
 168 844 l 1
 252 974 376 1032 495 1032 c 0
 696 1032 889 871 895 581 c 1
 895 134 l 2
 895 74 904 30 920 0 c 1x7fc0
421 72 m 0xbfc0
 585 72 741 205 806 325 c 1
 806 517 l 1
 589 513 190 502 190 262 c 0
 190 179 260 72 421 72 c 0xbfc0
EndSplineSet
Validated: 1
EndChar

StartChar: atilde
Encoding: 227 227 195
Width: 1060
VWidth: 2982
Flags: W
HStem: -17 89<268.282 586.482> 0 21G<818 920> 517 64<453.295 806> 942 90<345.404 643.657> 1175 94<549.82 710.077> 1194 21G<267 327> 1288 84<336.403 490.827>
VStem: 101 89<149.022 375.802> 267 58<1194 1271.15> 716 57<1280.43 1352> 806 89<1.78638 213 262.714 517 581 759.271>
LayerCount: 2
Fore
SplineSet
393 1372 m 0x37e0
 503 1372 579 1269 654 1269 c 0
 673 1269 716 1280 716 1352 c 1
 773 1352 l 1
 773 1318 771 1292 763 1269 c 1
 741 1175 679 1175 654 1175 c 0x3be0
 553 1175 469 1288 393 1288 c 0
 369 1288 329 1271 325 1194 c 1
 267 1194 l 1
 267 1220 267 1245 275 1278 c 1
 295 1350 346 1372 393 1372 c 0x37e0
920 0 m 1x73e0
 824 0 l 1x73e0
 812 38 806 83 806 134 c 2
 806 213 l 1
 718 90 579 -17 421 -17 c 0xb3e0
 195 -17 101 137 101 262 c 0
 101 577 526 581 779 581 c 2
 806 581 l 1
 799 812 647 942 495 942 c 0
 403 942 307 895 239 797 c 1
 168 844 l 1
 252 974 376 1032 495 1032 c 0
 696 1032 889 871 895 581 c 1
 895 134 l 2
 895 74 904 30 920 0 c 1x73e0
421 72 m 0xb3e0
 585 72 741 205 806 325 c 1
 806 517 l 1
 589 513 190 502 190 262 c 0
 190 179 260 72 421 72 c 0xb3e0
EndSplineSet
Validated: 1
EndChar

StartChar: ccedilla
Encoding: 231 231 196
Width: 1004
VWidth: 2982
Flags: W
HStem: -396 89<355.649 573.927> 940 92<373.314 695.953>
VStem: 72 86<308.998 703.109> 579 90<-297.872 -188.539>
LayerCount: 2
Fore
SplineSet
850 275 m 1
 933 235 l 1
 859 101 732 7 579 -9 c 1
 530 -92 l 1
 669 -116 669 -208 669 -242 c 0
 669 -333 589 -396 483 -396 c 0
 432 -396 378 -383 329 -349 c 1
 376 -275 l 1
 412 -297 450 -307 483 -307 c 0
 544 -307 579 -278 579 -242 c 0
 579 -199 526 -179 472 -171 c 2
 406 -161 l 1
 495 -9 l 1
 252 15 72 242 72 510 c 0
 72 795 275 1032 534 1032 c 0
 701 1032 848 931 929 786 c 1
 850 741 l 1
 781 861 665 940 534 940 c 0
 331 940 158 750 158 508 c 0
 158 267 331 74 534 74 c 0
 665 74 781 152 850 275 c 1
EndSplineSet
Validated: 1
EndChar

StartChar: eacute
Encoding: 233 233 197
Width: 1177
VWidth: 2982
Flags: W
HStem: -15 94<424.297 749.503> 504 89<222 959> 940 90<426.696 752.859> 1194 21G<528 642.792>
VStem: 124 84<318.226 504 593 683.177>
LayerCount: 2
Fore
SplineSet
752 1459 m 1
 922 1459 l 1
 620 1194 l 1
 528 1194 l 1
 752 1459 l 1
222 593 m 1
 959 593 l 1
 922 795 767 940 589 940 c 0
 412 940 258 795 222 593 c 1
1057 504 m 1
 208 504 l 1
 208 262 383 79 585 79 c 0
 716 79 833 154 902 278 c 1
 978 233 l 1
 897 87 752 -15 585 -15 c 0
 325 -15 124 224 124 508 c 0
 124 790 329 1030 589 1030 c 0
 835 1030 1032 814 1055 553 c 1
 1057 504 l 1
EndSplineSet
Validated: 1
EndChar

StartChar: ecircumflex
Encoding: 234 234 198
Width: 1177
VWidth: 2982
Flags: W
HStem: -15 94<424.297 749.503> 504 89<222 959> 940 90<426.696 752.859> 1194 21G<312 450.545 718.576 859>
VStem: 124 84<318.226 504 593 683.177>
DStem2: 312 1194 432 1194 0.672812 0.739814<80.7374 305.747> 618 1459 585 1359 0.672812 -0.739814<51.7786 276.115>
LayerCount: 2
Fore
SplineSet
553 1459 m 1
 618 1459 l 1
 859 1194 l 1
 737 1194 l 1
 585 1359 l 1
 432 1194 l 1
 312 1194 l 1
 553 1459 l 1
222 593 m 1
 959 593 l 1
 922 795 767 940 589 940 c 0
 412 940 258 795 222 593 c 1
1057 504 m 1
 208 504 l 1
 208 262 383 79 585 79 c 0
 716 79 833 154 902 278 c 1
 978 233 l 1
 897 87 752 -15 585 -15 c 0
 325 -15 124 224 124 508 c 0
 124 790 329 1030 589 1030 c 0
 835 1030 1032 814 1055 553 c 1
 1057 504 l 1
EndSplineSet
Validated: 1
EndChar

StartChar: edieresis
Encoding: 235 235 199
Width: 1177
VWidth: 2982
Flags: W
HStem: -15 94<424.297 749.503> 504 89<222 959> 940 90<426.696 752.859> 1194 167<321.924 466.581 679.187 824.813>
VStem: 124 84<318.226 504 593 683.177> 312 165<1204.42 1350.81> 669 166<1204.42 1350.81>
LayerCount: 2
Fore
SplineSet
312 1278 m 0
 312 1323 349 1361 393 1361 c 0
 438 1361 477 1323 477 1278 c 0
 477 1233 438 1194 393 1194 c 0
 349 1194 312 1233 312 1278 c 0
669 1278 m 0
 669 1323 707 1361 752 1361 c 0
 797 1361 835 1323 835 1278 c 0
 835 1233 797 1194 752 1194 c 0
 707 1194 669 1233 669 1278 c 0
222 593 m 1
 959 593 l 1
 922 795 767 940 589 940 c 0
 412 940 258 795 222 593 c 1
1057 504 m 1
 208 504 l 1
 208 262 383 79 585 79 c 0
 716 79 833 154 902 278 c 1
 978 233 l 1
 897 87 752 -15 585 -15 c 0
 325 -15 124 224 124 508 c 0
 124 790 329 1030 589 1030 c 0
 835 1030 1032 814 1055 553 c 1
 1057 504 l 1
EndSplineSet
Validated: 1
EndChar

StartChar: egrave
Encoding: 232 232 200
Width: 1177
VWidth: 2982
Flags: W
HStem: -15 94<424.297 749.503> 504 89<222 959> 940 90<426.696 752.859> 1194 21G<503.208 618>
VStem: 124 84<318.226 504 593 683.177>
LayerCount: 2
Fore
SplineSet
224 1459 m 1
 393 1459 l 1
 618 1194 l 1
 526 1194 l 1
 224 1459 l 1
222 593 m 1
 959 593 l 1
 922 795 767 940 589 940 c 0
 412 940 258 795 222 593 c 1
1057 504 m 1
 208 504 l 1
 208 262 383 79 585 79 c 0
 716 79 833 154 902 278 c 1
 978 233 l 1
 897 87 752 -15 585 -15 c 0
 325 -15 124 224 124 508 c 0
 124 790 329 1030 589 1030 c 0
 835 1030 1032 814 1055 553 c 1
 1057 504 l 1
EndSplineSet
Validated: 1
EndChar

StartChar: iacute
Encoding: 237 237 201
Width: 422
VWidth: 2982
Flags: W
HStem: 0 21G<168 258> 994 20G<168 258> 1194 21G<101 217.642>
VStem: 168 90<0 1014>
LayerCount: 2
Fore
SplineSet
329 1459 m 1
 495 1459 l 1
 195 1194 l 1
 101 1194 l 1
 329 1459 l 1
258 0 m 1
 168 0 l 1
 168 1014 l 1
 258 1014 l 1
 258 0 l 1
EndSplineSet
Validated: 1
EndChar

StartChar: icircumflex
Encoding: 238 238 202
Width: 422
VWidth: 2982
Flags: W
HStem: 0 21G<168 258> 994 20G<168 258> 1194 21G<-62 78.5455 346.576 485>
VStem: 168 90<0 1014>
DStem2: -62 1194 60 1194 0.672812 0.739814<82.083 307.092> 244 1459 213 1359 0.672812 -0.739814<53.1242 277.461>
LayerCount: 2
Fore
SplineSet
258 0 m 1
 168 0 l 1
 168 1014 l 1
 258 1014 l 1
 258 0 l 1
179 1459 m 1
 244 1459 l 1
 485 1194 l 1
 365 1194 l 1
 213 1359 l 1
 60 1194 l 1
 -62 1194 l 1
 179 1459 l 1
EndSplineSet
Validated: 1
EndChar

StartChar: idieresis
Encoding: 239 239 203
Width: 422
VWidth: 2982
Flags: W
HStem: 0 21G<168 258> 994 20G<168 258> 1194 167<-43.5813 103.38 314.955 461.349>
VStem: -54 168<1204.42 1350.81> 168 90<0 1014> 305 167<1205.43 1349.82>
LayerCount: 2
Fore
SplineSet
-54 1278 m 0
 -54 1323 -15 1361 30 1361 c 0
 74 1361 114 1323 114 1278 c 0
 114 1233 74 1194 30 1194 c 0
 -15 1194 -54 1233 -54 1278 c 0
305 1278 m 0
 305 1323 342 1361 387 1361 c 0
 432 1361 472 1323 472 1278 c 0
 472 1233 432 1194 387 1194 c 0
 342 1194 305 1233 305 1278 c 0
258 0 m 1
 168 0 l 1
 168 1014 l 1
 258 1014 l 1
 258 0 l 1
EndSplineSet
Validated: 1
EndChar

StartChar: igrave
Encoding: 236 236 204
Width: 422
VWidth: 2982
Flags: W
HStem: 0 21G<168 258> 994 20G<168 258> 1194 21G<180.283 295>
VStem: 168 90<0 1014>
LayerCount: 2
Fore
SplineSet
-98 1459 m 1
 72 1459 l 1
 295 1194 l 1
 203 1194 l 1
 -98 1459 l 1
258 0 m 1
 168 0 l 1
 168 1014 l 1
 258 1014 l 1
 258 0 l 1
EndSplineSet
Validated: 1
EndChar

StartChar: ntilde
Encoding: 241 241 205
Width: 1071
VWidth: 2982
Flags: W
HStem: 0 21G<168 258 818 906> 940 90<480.726 722.074> 994 20G<143 244.5> 1175 94<564.81 723.342> 1194 21G<280 341> 1288 84<351.551 504.248>
VStem: 168 90<0 666.543 728 1012.21> 280 60<1194 1271.9> 732 56<1284.63 1352> 818 88<0 823.929>
LayerCount: 2
Fore
SplineSet
410 1372 m 0x8fc0
 521 1372 592 1269 669 1269 c 0
 690 1269 732 1290 732 1361 c 1
 788 1352 l 1
 788 1318 786 1292 779 1269 c 0
 754 1175 692 1175 669 1175 c 0x97c0
 568 1175 482 1288 410 1288 c 0
 385 1288 342 1271 340 1194 c 1
 280 1194 l 1
 280 1220 280 1245 289 1278 c 1
 312 1350 361 1372 410 1372 c 0x8fc0
143 1014 m 1xa7c0
 239 1014 l 1xa7c0
 250 976 258 931 258 880 c 2
 258 728 l 1
 329 889 474 1030 600 1030 c 0
 812 1030 906 842 906 626 c 2
 906 0 l 1
 818 0 l 1
 818 626 l 2
 818 759 773 940 598 940 c 0xc7c0
 432 940 258 660 258 508 c 2
 258 0 l 1
 168 0 l 1
 168 880 l 2
 168 940 158 985 143 1014 c 1xa7c0
EndSplineSet
Validated: 1
EndChar

StartChar: oacute
Encoding: 243 243 206
Width: 1282
VWidth: 2982
Flags: W
HStem: -15 89<460.967 832.756> 940 90<460.967 832.756> 1194 21G<528 642.792>
VStem: 124 89<323.928 691.181> 1077 85<328.701 686.433>
LayerCount: 2
Fore
SplineSet
752 1459 m 1
 922 1459 l 1
 620 1194 l 1
 528 1194 l 1
 752 1459 l 1
643 1030 m 0
 929 1030 1162 797 1162 508 c 0
 1162 218 929 -15 643 -15 c 0
 356 -15 124 218 124 508 c 0
 124 797 356 1030 643 1030 c 0
213 508 m 0
 213 269 406 74 645 74 c 0
 884 74 1077 269 1077 508 c 0
 1077 745 884 940 645 940 c 0
 406 940 213 745 213 508 c 0
EndSplineSet
Validated: 1
EndChar

StartChar: ocircumflex
Encoding: 244 244 207
Width: 1282
VWidth: 2982
Flags: W
HStem: -15 89<460.967 832.756> 940 90<460.967 832.756> 1194 21G<365 503.545 771.576 914>
VStem: 124 89<323.928 691.181> 1077 85<328.701 686.433>
DStem2: 365 1194 485 1194 0.674335 0.738425<80.9202 305.934> 671 1459 638 1359 0.675851 -0.737039<51.4008 275.741>
LayerCount: 2
Fore
SplineSet
607 1459 m 1
 671 1459 l 1
 914 1194 l 1
 790 1194 l 1
 638 1359 l 1
 485 1194 l 1
 365 1194 l 1
 607 1459 l 1
643 1030 m 0
 929 1030 1162 797 1162 508 c 0
 1162 218 929 -15 643 -15 c 0
 356 -15 124 218 124 508 c 0
 124 797 356 1030 643 1030 c 0
213 508 m 0
 213 269 406 74 645 74 c 0
 884 74 1077 269 1077 508 c 0
 1077 745 884 940 645 940 c 0
 406 940 213 745 213 508 c 0
EndSplineSet
Validated: 1
EndChar

StartChar: odieresis
Encoding: 246 246 208
Width: 1282
VWidth: 2982
Flags: W
HStem: -15 89<460.967 832.756> 940 90<460.967 832.756> 1194 167<386.187 533.349 744.419 891.178>
VStem: 124 89<323.928 691.181> 376 168<1205.43 1349.82> 734 168<1205.43 1349.82> 1077 85<328.701 686.433>
LayerCount: 2
Fore
SplineSet
376 1278 m 0
 376 1323 414 1361 459 1361 c 0
 504 1361 544 1323 544 1278 c 0
 544 1233 504 1194 459 1194 c 0
 414 1194 376 1233 376 1278 c 0
734 1278 m 0
 734 1323 773 1361 818 1361 c 0
 861 1361 902 1323 902 1278 c 0
 902 1233 861 1194 818 1194 c 0
 773 1194 734 1233 734 1278 c 0
643 1030 m 0
 929 1030 1162 797 1162 508 c 0
 1162 218 929 -15 643 -15 c 0
 356 -15 124 218 124 508 c 0
 124 797 356 1030 643 1030 c 0
213 508 m 0
 213 269 406 74 645 74 c 0
 884 74 1077 269 1077 508 c 0
 1077 745 884 940 645 940 c 0
 406 940 213 745 213 508 c 0
EndSplineSet
Validated: 1
EndChar

StartChar: ograve
Encoding: 242 242 209
Width: 1282
VWidth: 2982
Flags: W
HStem: -15 89<460.967 832.756> 940 90<460.967 832.756> 1194 21G<633.359 750>
VStem: 124 89<323.928 691.181> 1077 85<328.701 686.433>
LayerCount: 2
Fore
SplineSet
356 1459 m 1
 526 1459 l 1
 750 1194 l 1
 656 1194 l 1
 356 1459 l 1
643 1030 m 0
 929 1030 1162 797 1162 508 c 0
 1162 218 929 -15 643 -15 c 0
 356 -15 124 218 124 508 c 0
 124 797 356 1030 643 1030 c 0
213 508 m 0
 213 269 406 74 645 74 c 0
 884 74 1077 269 1077 508 c 0
 1077 745 884 940 645 940 c 0
 406 940 213 745 213 508 c 0
EndSplineSet
Validated: 1
EndChar

StartChar: otilde
Encoding: 245 245 210
Width: 1282
VWidth: 2982
Flags: W
HStem: -15 89<460.967 832.756> 940 90<460.967 832.756> 1175 94<662.775 821.996> 1194 21G<378 439> 1288 84<449.551 602.369>
VStem: 124 89<323.928 691.181> 378 60<1194 1271.9> 831 55<1285.83 1352> 1077 85<328.701 686.433>
LayerCount: 2
Fore
SplineSet
508 1372 m 0xdf80
 620 1372 689 1269 767 1269 c 0
 788 1269 831 1290 831 1361 c 1
 886 1352 l 1
 886 1318 884 1292 878 1269 c 0
 853 1175 790 1175 767 1175 c 0xef80
 666 1175 580 1288 508 1288 c 0
 483 1288 440 1271 438 1194 c 1
 378 1194 l 1
 378 1220 378 1245 387 1278 c 1
 410 1350 459 1372 508 1372 c 0xdf80
643 1030 m 0
 929 1030 1162 797 1162 508 c 0
 1162 218 929 -15 643 -15 c 0
 356 -15 124 218 124 508 c 0
 124 797 356 1030 643 1030 c 0
213 508 m 0
 213 269 406 74 645 74 c 0
 884 74 1077 269 1077 508 c 0
 1077 745 884 940 645 940 c 0
 406 940 213 745 213 508 c 0
EndSplineSet
Validated: 1
EndChar

StartChar: scaron
Encoding: 353 353 211
Width: 791
VWidth: 2982
Flags: W
HStem: -17 89<261.29 537.348> 942 90<285.268 518.824>
VStem: 72 89<180.923 291.094> 150 89<694.185 894.794> 636 88<169.103 409.61>
DStem2: 248 1370 126 1370 0.671424 -0.741074<0 223.523> 401 1207 432 1104 0.671424 0.741074<0 222.851>
LayerCount: 2
Fore
SplineSet
432 1104 m 1xc8
 367 1104 l 1
 126 1370 l 1
 248 1370 l 1
 401 1207 l 1
 553 1370 l 1
 673 1370 l 1
 432 1104 l 1xc8
662 835 m 1
 579 808 l 1
 546 902 472 942 401 942 c 0
 316 942 239 886 239 786 c 0xd8
 239 571 724 628 724 293 c 0
 724 98 557 -17 393 -17 c 0
 248 -17 101 74 72 289 c 1
 161 302 l 1xe8
 181 141 289 72 396 72 c 0
 517 72 636 158 636 295 c 0
 636 562 150 491 150 788 c 0xd8
 150 947 271 1032 401 1032 c 0
 508 1032 618 969 662 835 c 1
EndSplineSet
Validated: 1
EndChar

StartChar: uacute
Encoding: 250 250 212
Width: 1066
VWidth: 2982
Flags: W
HStem: -15 89<392.074 669.817> 994 20G<168 258 812 902> 1194 21G<448 562.792>
VStem: 168 90<217.794 1014> 812 90<224.194 1014>
LayerCount: 2
Fore
SplineSet
671 1459 m 1
 842 1459 l 1
 540 1194 l 1
 448 1194 l 1
 671 1459 l 1
168 1014 m 1
 258 1014 l 1
 258 387 l 2
 258 213 378 74 530 74 c 0
 683 74 812 213 812 387 c 2
 812 1014 l 1
 902 1014 l 1
 902 387 l 2
 902 168 741 -15 534 -15 c 0
 329 -15 168 168 168 387 c 2
 168 1014 l 1
EndSplineSet
Validated: 1
EndChar

StartChar: ucircumflex
Encoding: 251 251 213
Width: 1066
VWidth: 2982
Flags: W
HStem: -15 89<392.074 669.817> 994 20G<168 258 812 902> 1194 21G<260 401.303 668.455 808>
VStem: 168 90<217.794 1014> 812 90<224.194 1014>
DStem2: 260 1194 383 1194 0.674335 0.738425<82.9433 306.608> 566 1459 534 1359 0.674335 -0.738425<52.2638 277.277>
LayerCount: 2
Fore
SplineSet
502 1459 m 1
 566 1459 l 1
 808 1194 l 1
 687 1194 l 1
 534 1359 l 1
 383 1194 l 1
 260 1194 l 1
 502 1459 l 1
168 1014 m 1
 258 1014 l 1
 258 387 l 2
 258 213 378 74 530 74 c 0
 683 74 812 213 812 387 c 2
 812 1014 l 1
 902 1014 l 1
 902 387 l 2
 902 168 741 -15 534 -15 c 0
 329 -15 168 168 168 387 c 2
 168 1014 l 1
EndSplineSet
Validated: 1
EndChar

StartChar: udieresis
Encoding: 252 252 214
Width: 1066
VWidth: 2982
Flags: W
HStem: -15 89<392.074 669.817> 994 20G<168 258 812 902> 1194 167<288.187 435.349 645.955 792.349>
VStem: 168 90<217.794 1014> 278 168<1205.43 1349.82> 636 167<1205.43 1349.82> 812 90<224.194 1014>
LayerCount: 2
Fore
SplineSet
278 1278 m 0
 278 1323 316 1361 361 1361 c 0
 406 1361 446 1323 446 1278 c 0
 446 1233 406 1194 361 1194 c 0
 316 1194 278 1233 278 1278 c 0
636 1278 m 0
 636 1323 673 1361 718 1361 c 0
 763 1361 803 1323 803 1278 c 0
 803 1233 763 1194 718 1194 c 0
 673 1194 636 1233 636 1278 c 0
168 1014 m 1
 258 1014 l 1
 258 387 l 2
 258 213 378 74 530 74 c 0
 683 74 812 213 812 387 c 2
 812 1014 l 1
 902 1014 l 1
 902 387 l 2
 902 168 741 -15 534 -15 c 0
 329 -15 168 168 168 387 c 2
 168 1014 l 1
EndSplineSet
Validated: 1
EndChar

StartChar: ugrave
Encoding: 249 249 215
Width: 1066
VWidth: 2982
Flags: W
HStem: -15 89<392.074 669.817> 994 20G<168 258 812 902> 1194 21G<515.132 628>
VStem: 168 90<217.794 1014> 812 90<224.194 1014>
LayerCount: 2
Fore
SplineSet
235 1459 m 1
 406 1459 l 1
 628 1194 l 1
 538 1194 l 1
 235 1459 l 1
168 1014 m 1
 258 1014 l 1
 258 387 l 2
 258 213 378 74 530 74 c 0
 683 74 812 213 812 387 c 2
 812 1014 l 1
 902 1014 l 1
 902 387 l 2
 902 168 741 -15 534 -15 c 0
 329 -15 168 168 168 387 c 2
 168 1014 l 1
EndSplineSet
Validated: 1
EndChar

StartChar: yacute
Encoding: 253 253 216
Width: 950
VWidth: 2982
Flags: W
HStem: -521 21G<235 340.596> 994 20G<36 139.799 814.38 916> 1194 21G<387 503.642>
DStem2: 132 1014 36 1014 0.363154 -0.931729<0 960.638> 235 -521 333 -521 0.357184 0.934034<35.0041 555.129 685.649 1643.41>
LayerCount: 2
Fore
SplineSet
611 1459 m 1
 781 1459 l 1
 481 1194 l 1
 387 1194 l 1
 611 1459 l 1
333 -521 m 1
 235 -521 l 1
 432 -2 l 1
 36 1014 l 1
 132 1014 l 1
 481 119 l 1
 822 1014 l 1
 916 1014 l 1
 333 -521 l 1
EndSplineSet
Validated: 1
EndChar

StartChar: ydieresis
Encoding: 255 255 217
Width: 946
VWidth: 2982
Flags: W
HStem: -521 21G<235 338.596> 994 20G<36 135.799 810.38 914> 1209 168<229.648 373.604 586.683 731.821>
VStem: 218 167<1219.19 1366.35> 575 168<1220.18 1365.32>
DStem2: 128 1014 36 1014 0.363154 -0.931729<0 960.638> 235 -521 331 -521 0.355058 0.934844<34.0856 555.131 684.224 1641.98>
LayerCount: 2
Fore
SplineSet
218 1292 m 0
 218 1337 258 1377 302 1377 c 0
 346 1377 385 1337 385 1292 c 0
 385 1247 346 1209 302 1209 c 0
 258 1209 218 1247 218 1292 c 0
575 1292 m 0
 575 1337 615 1377 660 1377 c 0
 705 1377 743 1337 743 1292 c 0
 743 1247 705 1209 660 1209 c 0
 615 1209 575 1247 575 1292 c 0
36 1014 m 1
 128 1014 l 1
 477 119 l 1
 818 1014 l 1
 914 1014 l 1
 331 -521 l 1
 235 -521 l 1
 432 -2 l 1
 36 1014 l 1
EndSplineSet
Validated: 1
EndChar

StartChar: zcaron
Encoding: 382 382 218
Width: 888
VWidth: 2982
Flags: W
HStem: 0 90<205 822> 925 89<158 687>
DStem2: 36 0 205 90 0.575537 0.817776<170.866 1131.12> 322 1370 199 1370 0.671424 -0.741074<0 222.851> 474 1207 508 1104 0.67295 0.739688<0 222.858>
LayerCount: 2
Fore
SplineSet
508 1104 m 1
 440 1104 l 1
 199 1370 l 1
 322 1370 l 1
 474 1207 l 1
 626 1370 l 1
 750 1370 l 1
 508 1104 l 1
158 1014 m 1
 853 1014 l 1
 205 90 l 1
 850 90 l 1
 822 0 l 1
 36 0 l 1
 687 925 l 1
 128 925 l 1
 158 1014 l 1
EndSplineSet
Validated: 1
EndChar

StartChar: uni00AD
Encoding: 173 173 220
Width: 1036
VWidth: 2982
Flags: W
HStem: 463 90<124 916>
LayerCount: 2
Fore
SplineSet
916 553 m 1
 916 463 l 1
 124 463 l 1
 124 553 l 1
 916 553 l 1
EndSplineSet
Validated: 1
EndChar

StartChar: uni00B2
Encoding: 178 178 221
Width: 883
VWidth: 2982
Flags: W
HStem: 922 92<224 741> 1845 89<346.717 578.575>
VStem: 168 90<1610 1755.33> 669 94<1497.84 1751.39>
LayerCount: 2
Fore
SplineSet
741 925 m 1
 124 922 l 1
 124 967 l 2
 124 1307 669 1361 669 1610 c 0
 669 1743 573 1845 463 1845 c 0
 352 1845 258 1743 258 1610 c 1
 168 1610 l 1
 168 1784 297 1934 466 1934 c 0
 634 1934 763 1788 763 1612 c 0
 763 1314 278 1254 224 1014 c 1
 741 1014 l 1
 741 925 l 1
EndSplineSet
Validated: 1
EndChar

StartChar: uni00B3
Encoding: 179 179 222
Width: 870
VWidth: 2982
Flags: W
HStem: 912 84<313.08 565.119> 1450 90<438 555.988> 1843 88<331.616 547.92>
VStem: 124 89<1094.88 1224> 188 90<1683 1790.53> 600 83<1586.47 1786.32> 665 85<1093.86 1353.61>
LayerCount: 2
Fore
SplineSet
278 1683 m 1xec
 188 1683 l 1
 188 1820 297 1931 436 1931 c 0
 573 1931 683 1820 683 1683 c 0xec
 683 1602 645 1538 589 1495 c 1
 683 1442 750 1341 750 1224 c 0
 750 1050 609 912 436 912 c 0
 262 912 124 1050 124 1224 c 1
 213 1224 l 1
 213 1100 314 996 438 996 c 0
 564 996 665 1100 665 1224 c 0xf2
 665 1350 564 1450 438 1450 c 1
 438 1540 l 1
 528 1540 600 1596 600 1683 c 0
 600 1771 528 1843 438 1843 c 0
 349 1843 278 1771 278 1683 c 1xec
EndSplineSet
Validated: 1
EndChar

StartChar: micro
Encoding: 181 181 223
Width: 1066
VWidth: 2982
Flags: W
HStem: -510 21G<202 254.667> -9 90<389.568 672.747> 994 20G<168 258 812 902>
VStem: 168 90<-465.79 128 223.646 1014> 812 90<230.023 1014>
LayerCount: 2
Fore
SplineSet
168 1014 m 1
 258 1014 l 1
 258 393 l 2
 258 218 378 81 530 81 c 0
 683 81 812 218 812 393 c 2
 812 1014 l 1
 902 1014 l 1
 902 393 l 2
 902 173 741 -9 534 -9 c 0
 421 -9 322 45 258 128 c 1
 258 -305 l 2
 258 -365 271 -421 295 -468 c 1
 218 -510 l 1
 186 -450 168 -383 168 -307 c 2
 168 1014 l 1
EndSplineSet
Validated: 1
EndChar

StartChar: uni00B9
Encoding: 185 185 224
Width: 782
VWidth: 2982
Flags: W
VStem: 419 85<925 1758>
DStem2: 248 1753 297 1677 0.827047 0.562133<0 144.236>
LayerCount: 2
Fore
SplineSet
419 925 m 1
 419 1758 l 1
 297 1677 l 1
 248 1753 l 1
 504 1927 l 1
 504 925 l 1
 419 925 l 1
EndSplineSet
Validated: 1
EndChar

StartChar: uni0E01
Encoding: 3585 3585 225
Width: 1179
VWidth: 2982
Flags: W
HStem: 0 21G<168 258 925 1014> 1119 90<390.86 741.302>
VStem: 168 90<0 684.514> 925 89<0 936.891>
DStem2: 218 859 128 842 0.866962 -0.498374<-5.18399 107.057>
LayerCount: 2
Fore
SplineSet
218 859 m 1
 385 763 l 1
 302 724 258 671 258 553 c 2
 258 0 l 1
 168 0 l 1
 168 553 l 2
 168 638 226 716 284 759 c 1
 128 842 l 1
 195 1119 421 1209 571 1209 c 0
 814 1209 1014 1010 1014 763 c 2
 1014 0 l 1
 925 0 l 1
 925 763 l 2
 925 987 750 1119 571 1119 c 0
 427 1119 271 1038 218 859 c 1
EndSplineSet
Validated: 1
EndChar

StartChar: uni0E02
Encoding: 3586 3586 226
Width: 1221
VWidth: 2982
Flags: W
HStem: -15 89<445.335 777.634> 671 90<258 514.969> 1104 90<391 521>
VStem: 168 90<260.138 671> 521 90<767.755 1104> 967 90<260.138 1194>
LayerCount: 2
Fore
SplineSet
361 1104 m 1
 391 1194 l 1
 611 1194 l 1
 611 835 l 2
 611 745 538 671 448 671 c 2
 258 671 l 1
 258 430 l 2
 258 233 414 74 611 74 c 0
 808 74 967 233 967 430 c 2
 967 1194 l 1
 1057 1194 l 1
 1057 430 l 2
 1057 186 857 -15 611 -15 c 0
 367 -15 168 186 168 430 c 2
 168 761 l 1
 448 761 l 2
 491 761 521 795 521 835 c 2
 521 1104 l 1
 361 1104 l 1
EndSplineSet
Validated: 1
EndChar

StartChar: uni0E03
Encoding: 3587 3587 227
Width: 1221
VWidth: 2982
Flags: W
HStem: -15 89<445.778 777.634> 671 90<258 511.438> 1189 5G<228.367 264 508.979 611 967 1057>
VStem: 168 90<260.138 671> 521 90<767.755 1053> 967 90<260.138 1194>
LayerCount: 2
Fore
SplineSet
197 1130 m 1
 239 1209 l 1
 289 1182 356 1126 406 1053 c 1
 526 1194 l 1
 611 1194 l 1
 611 835 l 2
 611 745 538 671 448 671 c 2
 258 671 l 1
 258 430 l 2
 258 233 416 74 611 74 c 0
 808 74 967 233 967 430 c 2
 967 1194 l 1
 1057 1194 l 1
 1057 430 l 2
 1057 184 857 -15 611 -15 c 0
 367 -15 168 184 168 430 c 2
 168 761 l 1
 448 761 l 2
 487 761 521 795 521 835 c 2
 521 1053 l 1
 385 889 l 1
 367 931 316 1063 197 1130 c 1
EndSplineSet
Validated: 1
EndChar

StartChar: uni0E04
Encoding: 3588 3588 228
Width: 1221
VWidth: 2982
Flags: W
HStem: 0 21G<168 258 967 1057> 553 90<258 581> 1119 90<440.339 782.665>
VStem: 168 90<0 553 643 933.305> 967 90<0 933.305>
LayerCount: 2
Fore
SplineSet
611 643 m 1
 581 553 l 1
 258 553 l 1
 258 0 l 1
 168 0 l 1
 168 763 l 2
 168 1010 367 1209 611 1209 c 0
 857 1209 1057 1010 1057 763 c 2
 1057 0 l 1
 967 0 l 1
 967 763 l 2
 967 961 808 1119 611 1119 c 0
 414 1119 258 961 258 763 c 2
 258 643 l 1
 611 643 l 1
EndSplineSet
Validated: 1
EndChar

StartChar: uni0E05
Encoding: 3589 3589 229
Width: 1221
VWidth: 2982
Flags: W
HStem: 0 21G<168 258 967 1057> 553 90<258 581> 931 90<517.171 706.931>
VStem: 168 90<0 553 643 998.239> 967 90<0 996.962>
LayerCount: 2
Fore
SplineSet
611 643 m 1
 581 553 l 1
 258 553 l 1
 258 0 l 1
 168 0 l 1
 168 812 l 2
 168 969 233 1108 361 1191 c 1
 396 1215 l 1
 421 1179 l 1
 504 1057 564 1021 609 1021 c 1
 643 1023 714 1041 803 1175 c 1
 826 1211 l 1
 861 1191 l 1
 994 1113 1055 965 1057 812 c 1
 1057 0 l 1
 967 0 l 1
 967 812 l 2
 967 929 925 1027 848 1090 c 1
 781 1003 705 931 611 931 c 0
 519 931 440 1003 376 1090 c 1
 297 1027 258 929 258 812 c 2
 258 643 l 1
 611 643 l 1
EndSplineSet
Validated: 1
EndChar

StartChar: uni0E06
Encoding: 3590 3590 230
Width: 1221
VWidth: 2982
Flags: W
HStem: -15 89<562.011 844.959> 0 21G<168 258> 671 90<258 511.438> 1174 20G<228.367 264 508.979 611 967 1057>
VStem: 168 90<0 333 394.203 671> 521 90<767.755 1053> 967 90<210.69 1194>
LayerCount: 2
Fore
SplineSet
258 671 m 1x7e
 258 555 l 2
 258 352 513 74 701 74 c 0
 914 74 967 267 967 430 c 2
 967 1194 l 1
 1057 1194 l 1
 1057 430 l 2
 1057 188 951 -15 701 -15 c 0xbe
 538 -15 361 152 258 333 c 1
 258 0 l 1
 168 0 l 1
 168 761 l 1
 448 761 l 2
 487 761 521 795 521 835 c 2
 521 1053 l 1
 385 889 l 1
 367 931 316 1063 197 1130 c 1
 239 1209 l 1
 289 1182 356 1126 406 1053 c 1
 526 1194 l 1
 611 1194 l 1
 611 835 l 2
 611 745 538 671 448 671 c 2
 258 671 l 1x7e
EndSplineSet
Validated: 1
EndChar

StartChar: uni0E07
Encoding: 3591 3591 231
Width: 1221
VWidth: 2982
Flags: W
HStem: -15 89<445.335 777.634> 1104 90<611 780.862>
VStem: 168 90<260.138 835> 967 90<260.138 919.398>
LayerCount: 2
Fore
SplineSet
258 867 m 1
 258 430 l 2
 258 233 414 74 611 74 c 0
 808 74 967 233 967 430 c 2
 967 750 l 2
 967 947 808 1104 611 1104 c 1
 611 1194 l 1
 857 1194 1057 994 1057 750 c 2
 1057 430 l 2
 1057 186 857 -15 611 -15 c 0
 367 -15 168 186 168 430 c 2
 168 835 l 1
 258 867 l 1
EndSplineSet
Validated: 1
EndChar

StartChar: uni0E08
Encoding: 3592 3592 232
Width: 1132
VWidth: 2982
Flags: W
HStem: 0 21G<878 967> 553 90<553 878> 1119 90<350.849 692.781>
VStem: 79 89<763 933.305> 878 89<0 553 643 926.818>
LayerCount: 2
Fore
SplineSet
521 553 m 1
 553 643 l 1
 878 643 l 1
 878 763 l 2
 878 961 718 1119 521 1119 c 0
 325 1119 168 961 168 763 c 1
 79 763 l 1
 79 1010 278 1209 521 1209 c 0
 767 1209 967 1010 967 763 c 2
 967 0 l 1
 878 0 l 1
 878 553 l 1
 521 553 l 1
EndSplineSet
Validated: 1
EndChar

StartChar: uni0E09
Encoding: 3593 3593 233
Width: 1132
VWidth: 2982
Flags: W
HStem: -9 90<327.038 602.581> 530 90<62 141> 1119 90<350.849 692.781>
VStem: 79 89<763 933.305> 141 90<189.681 530> 878 89<0 320 388.203 926.818>
LayerCount: 2
Fore
SplineSet
878 0 m 1xf4
 878 320 l 1
 781 143 624 -9 466 -9 c 0
 205 -9 143 208 141 436 c 1
 141 530 l 1
 34 530 l 1
 62 620 l 1
 231 620 l 1
 231 436 l 1xec
 233 161 322 81 463 81 c 0
 656 81 878 359 878 555 c 2
 878 763 l 2
 878 961 718 1119 521 1119 c 0
 325 1119 168 961 168 763 c 1
 79 763 l 1
 79 1010 278 1209 521 1209 c 0
 767 1209 967 1010 967 763 c 2
 967 0 l 1
 878 0 l 1xf4
EndSplineSet
Validated: 1
EndChar

StartChar: uni0E0A
Encoding: 3594 3594 234
Width: 1221
VWidth: 2982
Flags: W
HStem: -15 89<445.335 777.634> 671 90<258 514.969> 871 90<611 912.046> 1104 90<391 521>
VStem: 168 90<260.138 671> 521 90<767.755 871 961 1104> 967 90<260.138 814.736 1016.12 1194>
LayerCount: 2
Fore
SplineSet
168 430 m 2
 168 761 l 1
 448 761 l 2
 491 761 521 795 521 835 c 2
 521 1104 l 1
 361 1104 l 1
 391 1194 l 1
 611 1194 l 1
 611 961 l 1
 803 961 l 2
 912 961 967 1047 967 1155 c 2
 967 1194 l 1
 1057 1194 l 1
 1057 1155 l 2
 1057 1055 1006 965 929 914 c 1
 1006 861 1057 773 1057 671 c 2
 1057 430 l 2
 1057 186 857 -15 611 -15 c 0
 367 -15 168 186 168 430 c 2
803 871 m 2
 611 871 l 1
 611 835 l 2
 611 745 538 671 448 671 c 2
 258 671 l 1
 258 430 l 2
 258 233 414 74 611 74 c 0
 808 74 967 233 967 430 c 2
 967 671 l 2
 967 779 912 871 803 871 c 2
EndSplineSet
Validated: 1
EndChar

StartChar: uni0E0B
Encoding: 3595 3595 235
Width: 1221
VWidth: 2982
Flags: W
HStem: -15 89<445.335 777.634> 671 90<258 511.438> 871 90<611 912.046> 1174 20G<228.367 264 508.979 611 967 1057>
VStem: 168 90<260.138 671> 521 90<767.755 871 961 1053> 967 90<260.138 814.736 1016.12 1194>
LayerCount: 2
Fore
SplineSet
611 961 m 1
 803 961 l 2
 912 961 967 1047 967 1155 c 2
 967 1194 l 1
 1057 1194 l 1
 1057 1155 l 2
 1057 1055 1006 965 929 914 c 1
 1006 861 1057 773 1057 671 c 2
 1057 430 l 2
 1057 186 857 -15 611 -15 c 0
 367 -15 168 186 168 430 c 2
 168 761 l 1
 448 761 l 2
 487 761 521 795 521 835 c 2
 521 1053 l 1
 385 889 l 1
 367 931 316 1063 197 1130 c 1
 239 1209 l 1
 289 1182 356 1126 406 1053 c 1
 526 1194 l 1
 611 1194 l 1
 611 961 l 1
258 671 m 1
 258 430 l 2
 258 233 414 74 611 74 c 0
 808 74 967 233 967 430 c 2
 967 671 l 2
 967 779 912 871 803 871 c 2
 611 871 l 1
 611 835 l 2
 611 745 538 671 448 671 c 2
 258 671 l 1
EndSplineSet
Validated: 1
EndChar

StartChar: uni0E0C
Encoding: 3596 3596 236
Width: 1886
VWidth: 2982
Flags: W
HStem: -17 89<1265.71 1537.36> 0 90<258 346> 1119 90<390.86 741.302> 1174 20G<1632 1721>
VStem: 168 90<90 684.514> 925 89<0 295 368.287 936.891> 1632 89<181.54 1194>
DStem2: 218 859 128 842 0.866962 -0.498374<-5.18399 107.057>
LayerCount: 2
Fore
SplineSet
376 90 m 1x6e
 346 0 l 1
 168 0 l 1
 168 553 l 2
 168 638 226 716 284 759 c 1
 128 842 l 1
 195 1119 421 1209 571 1209 c 0x6e
 814 1209 1014 1010 1014 763 c 2
 1014 553 l 2
 1014 342 1211 72 1397 72 c 0
 1538 72 1632 154 1632 427 c 2
 1632 1194 l 1
 1721 1194 l 1
 1721 427 l 2
 1721 105 1591 -17 1397 -17 c 0x9e
 1243 -17 1102 128 1014 295 c 1
 1014 0 l 1
 925 0 l 1
 925 763 l 2
 925 987 750 1119 571 1119 c 0
 427 1119 271 1038 218 859 c 1
 385 763 l 1
 302 724 258 671 258 553 c 2
 258 90 l 1
 376 90 l 1x6e
EndSplineSet
Validated: 1
EndChar

StartChar: uni0E0D
Encoding: 3597 3597 237
Width: 1886
VWidth: 2982
Flags: W
HStem: -342 84<1182.83 1467.22> -15 89<1178.72 1474.36> 0 90<258 346> 1119 90<390.86 741.302> 1174 20G<1638 1721>
VStem: 168 90<90 684.514> 925 89<256.266 936.891> 1638 83<-70.3125 145 259.252 1194>
DStem2: 218 859 128 842 0.866962 -0.498374<-5.18399 107.057>
LayerCount: 2
Fore
SplineSet
376 90 m 1xb7
 346 0 l 1
 168 0 l 1
 168 553 l 2
 168 638 226 716 284 759 c 1
 128 842 l 1
 195 1119 421 1209 571 1209 c 0xb7
 814 1209 1014 1010 1014 763 c 2
 1014 430 l 2
 1014 231 1157 74 1327 74 c 0
 1497 74 1638 231 1638 430 c 2
 1638 1194 l 1
 1721 1194 l 1
 1721 101 l 2
 1721 -141 1555 -342 1327 -342 c 0
 1200 -342 1090 -280 1019 -181 c 1
 1094 -137 l 1
 1153 -213 1235 -258 1327 -258 c 0
 1497 -258 1638 -101 1638 98 c 2
 1638 145 l 1
 1567 47 1457 -15 1327 -15 c 0xcf
 1102 -15 925 186 925 427 c 2
 925 763 l 2
 925 987 750 1119 571 1119 c 0
 427 1119 271 1038 218 859 c 1
 385 763 l 1
 302 724 258 671 258 553 c 2
 258 90 l 1
 376 90 l 1xb7
EndSplineSet
Validated: 1
Substitution2: "'ccmp' Pali-Sanskrit Descender Removal" uni0E0D.descless
Substitution2: "Thai Descender Removal Single Substitution" uni0E0D.descless
EndChar

StartChar: uni0E0E
Encoding: 3598 3598 238
Width: 1179
VWidth: 2982
Flags: W
HStem: -421 90<43 376 906 925> 0 90<92 168> 1119 90<390.86 741.302>
VStem: 168 90<90 684.514> 925 89<-331 936.891>
DStem2: 218 859 128 842 0.866962 -0.498374<-5.18399 107.057> 376 -331 406 -421 0.812206 0.58337<0 253.76> 628 -150 636 -258 0.83803 -0.545624<65.6316 331.73>
AnchorPoint: "BelowBase" 1012 -444 basechar 0
LayerCount: 2
Fore
SplineSet
62 0 m 1
 92 90 l 1
 168 90 l 1
 168 553 l 2
 168 638 226 716 284 759 c 1
 128 842 l 1
 195 1119 421 1209 571 1209 c 0
 814 1209 1014 1010 1014 763 c 2
 1014 -421 l 1
 884 -421 l 1
 636 -258 l 1
 406 -421 l 1
 11 -421 l 1
 43 -331 l 1
 376 -331 l 1
 628 -150 l 1
 906 -331 l 1
 925 -331 l 1
 925 763 l 2
 925 987 750 1119 571 1119 c 0
 427 1119 271 1038 218 859 c 1
 385 763 l 1
 302 724 258 671 258 553 c 2
 258 0 l 1
 62 0 l 1
EndSplineSet
Validated: 1
EndChar

StartChar: uni0E0F
Encoding: 3599 3599 239
Width: 1179
VWidth: 2982
Flags: W
HStem: -421 90<43 171 914 925> 0 90<92 168> 1119 90<390.86 741.302>
VStem: 168 90<90 684.514> 925 89<-331 936.891>
DStem2: 218 859 128 842 0.866962 -0.498374<-5.18399 107.057> 171 -331 213 -421 0.656852 0.754019<0 170.918> 340 -137 352 -262 0.741802 -0.670619<92.729 266.918> 538 -316 544 -436 0.720535 0.693418<0 171.464> 724 -137 724 -262 0.699703 -0.714434<89.3042 271.544>
AnchorPoint: "BelowBase" 1012 -444 basechar 0
LayerCount: 2
Fore
SplineSet
171 -331 m 1
 340 -137 l 1
 538 -316 l 1
 724 -137 l 1
 914 -331 l 1
 925 -331 l 1
 925 763 l 2
 925 987 750 1119 571 1119 c 0
 427 1119 271 1038 218 859 c 1
 385 763 l 1
 302 724 258 671 258 553 c 2
 258 0 l 1
 62 0 l 1
 92 90 l 1
 168 90 l 1
 168 553 l 2
 168 638 226 716 284 759 c 1
 128 842 l 1
 195 1119 421 1209 571 1209 c 0
 814 1209 1014 1010 1014 763 c 2
 1014 -421 l 1
 878 -421 l 1
 724 -262 l 1
 544 -436 l 1
 352 -262 l 1
 213 -421 l 1
 11 -421 l 1
 43 -331 l 1
 171 -331 l 1
EndSplineSet
Validated: 1
EndChar

StartChar: uni0E10
Encoding: 3600 3600 240
Width: 1168
VWidth: 2982
Flags: W
HStem: -421 90<30 158 902 914> -158 89<875 914> 0 21G<914 1003> 553 90<589 914> 1119 90<386.655 728.756>
VStem: 114 89<763 926.818> 914 89<-331 -158 0 553 643 933.305>
DStem2: 158 -331 199 -421 0.661238 0.750176<0 172.107> 329 -137 340 -262 0.74011 -0.672486<92.2019 266.177> 526 -316 530 -436 0.714876 0.699251<0 168.582> 709 -137 709 -262 0.705277 -0.708932<88.6164 273.651>
LayerCount: 2
Fore
SplineSet
914 -331 m 1
 914 -158 l 1
 844 -158 l 1
 875 -69 l 1
 1003 -69 l 1
 1003 -421 l 1
 867 -421 l 1
 709 -262 l 1
 530 -436 l 1
 340 -262 l 1
 199 -421 l 1
 0 -421 l 1
 30 -331 l 1
 158 -331 l 1
 329 -137 l 1
 526 -316 l 1
 709 -137 l 1
 902 -331 l 1
 914 -331 l 1
914 643 m 1
 914 763 l 2
 914 961 754 1119 557 1119 c 0
 361 1119 203 961 203 763 c 1
 114 763 l 1
 114 1010 314 1209 557 1209 c 0
 656 1209 745 1175 822 1121 c 1
 933 1198 l 1
 985 1121 l 1
 889 1059 l 1
 961 983 1003 878 1003 763 c 2
 1003 0 l 1
 914 0 l 1
 914 553 l 1
 557 553 l 1
 589 643 l 1
 914 643 l 1
EndSplineSet
Validated: 1
Substitution2: "'ccmp' Pali-Sanskrit Descender Removal" uni0E10.descless
Substitution2: "Thai Descender Removal Single Substitution" uni0E10.descless
EndChar

StartChar: uni0E11
Encoding: 3601 3601 241
Width: 1221
VWidth: 2982
Flags: W
HStem: 0 21G<168 258 967 1057> 1119 90<746.783 937.357> 1174 20G<367.979 472>
VStem: 168 90<0 555> 383 89<947 1053> 967 90<0 1093.91>
LayerCount: 2
Fore
SplineSet
168 0 m 1xdc
 168 555 l 1
 383 842 l 1
 383 1053 l 1
 244 889 l 1
 226 931 177 1063 56 1130 c 1
 98 1209 l 1xdc
 148 1182 215 1126 265 1053 c 1
 385 1194 l 1
 472 1194 l 1xbc
 472 947 l 1
 600 1088 743 1209 850 1209 c 0
 1000 1209 1057 1116 1057 905 c 2
 1057 0 l 1
 967 0 l 1
 967 905 l 2
 967 1072 932 1119 850 1119 c 0
 728 1119 423 777 258 526 c 1
 258 0 l 1
 168 0 l 1xdc
EndSplineSet
Validated: 1
EndChar

StartChar: uni0E12
Encoding: 3602 3602 242
Width: 1946
VWidth: 2982
Flags: W
HStem: -15 89<363.564 606.857 1325.27 1594.28> 0 21G<985 1074> 636 90<421 617.633> 929 90<537.721 730.918> 1189 5G<810 920 1692 1782>
VStem: 124 89<285.542 840.699> 707 90<184.531 535.522> 985 89<0 297 371.159 993.502> 1692 90<184.609 1194>
LayerCount: 2
Fore
SplineSet
391 636 m 1xbf80
 421 726 l 1
 504 726 l 2
 698 726 797 546 797 361 c 0
 797 218 732 -15 474 -15 c 0
 244 -15 124 262 124 562 c 0
 124 803 222 1068 412 1211 c 1
 495 1083 573 1019 636 1019 c 0
 696 1019 767 1081 853 1209 c 1
 987 1117 1074 974 1074 822 c 2
 1074 555 l 2
 1074 346 1271 74 1457 74 c 0
 1596 74 1692 158 1692 430 c 2
 1692 1194 l 1
 1782 1194 l 1
 1782 430 l 2
 1782 107 1649 -15 1457 -15 c 0xbf80
 1301 -15 1162 132 1074 297 c 1
 1074 0 l 1
 985 0 l 1x7f80
 985 822 l 2
 985 925 947 1019 871 1083 c 1
 797 987 709 929 636 929 c 0
 555 929 472 985 396 1083 c 1
 275 967 213 763 213 562 c 0
 213 312 305 74 474 74 c 0
 660 74 707 252 707 361 c 0
 707 500 638 636 504 636 c 2
 391 636 l 1xbf80
EndSplineSet
Validated: 1
EndChar

StartChar: uni0E13
Encoding: 3603 3603 243
Width: 1886
VWidth: 2982
Flags: W
HStem: -17 89<1109.24 1377.36> 0 90<258 346> 1119 90<390.86 741.302> 1174 20G<1632 1721>
VStem: 168 90<90 684.514> 925 89<181.54 936.891> 1632 89<0 295 368.287 1194>
DStem2: 218 859 128 842 0.866962 -0.498374<-5.18399 107.057>
LayerCount: 2
Fore
SplineSet
218 859 m 1xae
 385 763 l 1
 302 724 258 671 258 553 c 2
 258 90 l 1
 376 90 l 1
 346 0 l 1
 168 0 l 1x6e
 168 553 l 2
 168 638 226 716 284 759 c 1
 128 842 l 1
 195 1119 421 1209 571 1209 c 0
 814 1209 1014 1010 1014 763 c 2
 1014 427 l 2
 1014 154 1108 72 1247 72 c 0xae
 1433 72 1632 342 1632 553 c 2
 1632 1194 l 1
 1721 1194 l 1
 1721 0 l 1
 1632 0 l 1x5e
 1632 295 l 1
 1547 128 1406 -17 1251 -17 c 0
 1057 -17 925 105 925 427 c 2
 925 763 l 2
 925 987 750 1119 571 1119 c 0
 427 1119 271 1038 218 859 c 1xae
EndSplineSet
Validated: 1
EndChar

StartChar: uni0E14
Encoding: 3604 3604 244
Width: 1239
VWidth: 2982
Flags: W
HStem: -15 89<357.273 607.001> 0 21G<985 1074> 636 90<421 617.633> 1119 90<449.175 796.568>
VStem: 124 89<279.613 819.335> 707 90<184.355 535.522> 985 89<0 926.818>
LayerCount: 2
Fore
SplineSet
391 636 m 1xbe
 421 726 l 1
 504 726 l 2
 698 726 797 546 797 361 c 0
 797 158 690 -15 474 -15 c 0xbe
 248 -15 124 250 124 562 c 0
 124 867 278 1209 624 1209 c 0
 869 1209 1074 1010 1074 763 c 2
 1074 0 l 1
 985 0 l 1x7e
 985 763 l 2
 985 961 822 1119 624 1119 c 0
 338 1119 213 824 213 562 c 0
 213 297 307 74 474 74 c 0
 628 74 707 205 707 361 c 0
 707 500 638 636 504 636 c 2
 391 636 l 1xbe
EndSplineSet
Validated: 1
EndChar

StartChar: uni0E15
Encoding: 3605 3605 245
Width: 1239
VWidth: 2982
Flags: W
HStem: -15 89<363.564 606.857> 0 21G<985 1074> 636 90<421 617.633> 929 90<537.721 730.918> 1189 20G<810 920>
VStem: 124 89<285.542 840.699> 707 90<184.531 535.522> 985 89<0 993.502>
LayerCount: 2
Fore
SplineSet
391 636 m 1xbf
 421 726 l 1
 504 726 l 2
 698 726 797 546 797 361 c 0
 797 218 732 -15 474 -15 c 0xbf
 244 -15 124 262 124 562 c 0
 124 803 222 1068 412 1211 c 1
 495 1083 573 1019 636 1019 c 0
 696 1019 767 1081 853 1209 c 1
 987 1117 1074 974 1074 822 c 2
 1074 0 l 1
 985 0 l 1x7f
 985 822 l 2
 985 925 947 1019 871 1083 c 1
 797 987 709 929 636 929 c 0
 555 929 472 985 396 1083 c 1
 275 967 213 763 213 562 c 0
 213 312 305 74 474 74 c 0
 660 74 707 252 707 361 c 0
 707 500 638 636 504 636 c 2
 391 636 l 1xbf
EndSplineSet
Validated: 1
EndChar

StartChar: uni0E16
Encoding: 3606 3606 246
Width: 1179
VWidth: 2982
Flags: W
HStem: 0 90<258 346> 1119 90<390.86 741.302>
VStem: 168 90<90 684.514> 925 89<0 936.891>
DStem2: 218 859 128 842 0.866962 -0.498374<-5.18399 107.057>
LayerCount: 2
Fore
SplineSet
218 859 m 1
 385 763 l 1
 302 724 258 671 258 553 c 2
 258 90 l 1
 376 90 l 1
 346 0 l 1
 168 0 l 1
 168 553 l 2
 168 638 226 716 284 759 c 1
 128 842 l 1
 195 1119 421 1209 571 1209 c 0
 814 1209 1014 1010 1014 763 c 2
 1014 0 l 1
 925 0 l 1
 925 763 l 2
 925 987 750 1119 571 1119 c 0
 427 1119 271 1038 218 859 c 1
EndSplineSet
Validated: 1
EndChar

StartChar: uni0E17
Encoding: 3607 3607 247
Width: 1221
VWidth: 2982
Flags: W
HStem: 0 21G<168 258 967 1057> 1119 90<562.011 847.993> 1174 20G<168 258>
VStem: 168 90<0 799.219 859 1194> 967 90<0 983.525>
LayerCount: 2
Fore
SplineSet
168 0 m 1xd8
 168 1194 l 1
 258 1194 l 1xb8
 258 859 l 1
 361 1041 538 1209 701 1209 c 0
 951 1209 1057 1006 1057 763 c 2
 1057 0 l 1
 967 0 l 1
 967 763 l 2
 967 929 914 1119 701 1119 c 0
 513 1119 258 842 258 638 c 2
 258 0 l 1
 168 0 l 1xd8
EndSplineSet
Validated: 1
EndChar

StartChar: uni0E18
Encoding: 3608 3608 248
Width: 1221
VWidth: 2982
Flags: W
HStem: 0 90<258 780.862> 553 90<258 967> 1119 90<440.339 782.665>
VStem: 168 90<90 455 643 933.305> 967 90<275.695 553 763 933.305>
LayerCount: 2
Fore
SplineSet
168 0 m 1
 168 455 l 1
 258 455 l 1
 258 90 l 1
 611 90 l 2
 808 90 967 248 967 446 c 2
 967 553 l 1
 168 553 l 1
 168 763 l 2
 168 1010 367 1209 611 1209 c 0
 857 1209 1057 1010 1057 763 c 1
 967 763 l 1
 967 961 808 1119 611 1119 c 0
 414 1119 258 961 258 763 c 2
 258 643 l 1
 1057 643 l 1
 1057 446 l 2
 1057 199 857 0 611 0 c 2
 168 0 l 1
EndSplineSet
Validated: 1
EndChar

StartChar: uni0E19
Encoding: 3609 3609 249
Width: 1221
VWidth: 2982
Flags: W
HStem: -9 90<375.389 665.297> 1174 20G<168 258 967 1057>
VStem: 168 90<216.616 1194> 967 90<0 333 398.25 1194>
LayerCount: 2
Fore
SplineSet
168 1194 m 1
 258 1194 l 1
 258 436 l 2
 258 271 312 81 521 81 c 0
 716 81 967 359 967 555 c 2
 967 1194 l 1
 1057 1194 l 1
 1057 0 l 1
 967 0 l 1
 967 333 l 1
 861 152 683 -9 521 -9 c 0
 271 -9 168 195 168 436 c 2
 168 1194 l 1
EndSplineSet
Validated: 1
EndChar

StartChar: uni0E1A
Encoding: 3610 3610 250
Width: 1221
VWidth: 2982
Flags: W
HStem: -15 89<445.335 777.634> 1174 20G<168 258 967 1057>
VStem: 168 90<260.138 1194> 967 90<260.138 1194>
LayerCount: 2
Fore
SplineSet
168 1194 m 1
 258 1194 l 1
 258 430 l 2
 258 233 414 74 611 74 c 0
 808 74 967 233 967 430 c 2
 967 1194 l 1
 1057 1194 l 1
 1057 430 l 2
 1057 186 857 -15 611 -15 c 0
 367 -15 168 186 168 430 c 2
 168 1194 l 1
EndSplineSet
Validated: 1
EndChar

StartChar: uni0E1B
Encoding: 3611 3611 251
Width: 1221
VWidth: 2982
Flags: W
HStem: -15 89<445.335 777.634> 1174 20G<168 258> 1473 20G<967 1057>
VStem: 168 90<260.138 1194> 967 90<260.138 1493>
AnchorPoint: "AboveBase" 861 1271 basechar 0
LayerCount: 2
Fore
SplineSet
168 1194 m 1
 258 1194 l 1
 258 430 l 2
 258 233 414 74 611 74 c 0
 808 74 967 233 967 430 c 2
 967 1493 l 1
 1057 1493 l 1
 1057 430 l 2
 1057 186 857 -15 611 -15 c 0
 367 -15 168 186 168 430 c 2
 168 1194 l 1
EndSplineSet
Validated: 1
EndChar

StartChar: uni0E1C
Encoding: 3612 3612 252
Width: 1311
VWidth: 2982
Flags: W
HStem: -15 89<334.871 532.364 760.863 987.779> 1108 90<335.344 421>
VStem: 124 89<265.603 916.297> 607 85<160.729 1194> 1057 90<147.771 1194>
LayerCount: 2
Fore
SplineSet
607 1194 m 1
 692 1194 l 1
 692 340 l 2
 692 215 728 74 875 74 c 0
 1021 74 1057 215 1057 340 c 2
 1057 1194 l 1
 1147 1194 l 1
 1147 340 l 2
 1147 92 1023 -15 875 -15 c 0
 779 -15 696 60 647 154 c 1
 600 60 517 -15 421 -15 c 0
 242 -15 124 231 124 591 c 0
 124 949 242 1198 421 1198 c 1
 421 1108 l 1
 295 1108 213 869 213 591 c 0
 213 314 295 74 421 74 c 0
 581 74 607 258 607 340 c 2
 607 1194 l 1
EndSplineSet
Validated: 1
EndChar

StartChar: uni0E1D
Encoding: 3613 3613 253
Width: 1311
VWidth: 2982
Flags: W
HStem: -15 89<334.871 532.364 760.863 987.779> 1108 90<335.344 421> 1473 20G<1057 1147>
VStem: 124 89<265.603 916.297> 607 85<160.729 1194> 1057 90<147.771 1493>
AnchorPoint: "AboveBase" 951 1271 basechar 0
LayerCount: 2
Fore
SplineSet
607 1194 m 1
 692 1194 l 1
 692 340 l 2
 692 215 728 74 875 74 c 0
 1021 74 1057 215 1057 340 c 2
 1057 1493 l 1
 1147 1493 l 1
 1147 340 l 2
 1147 92 1023 -15 875 -15 c 0
 779 -15 696 60 647 154 c 1
 600 60 517 -15 421 -15 c 0
 242 -15 124 231 124 591 c 0
 124 949 242 1198 421 1198 c 1
 421 1108 l 1
 295 1108 213 869 213 591 c 0
 213 314 295 74 421 74 c 0
 581 74 607 258 607 340 c 2
 607 1194 l 1
EndSplineSet
Validated: 1
EndChar

StartChar: uni0E1E
Encoding: 3614 3614 254
Width: 1365
VWidth: 2982
Flags: W
HStem: -15 89<326.564 563.637 799.481 1037.19> 1174 20G<168 258 638 728 1110 1200>
VStem: 168 90<147.771 1194> 638 90<160.929 1194> 1110 90<155.516 1194>
LayerCount: 2
Fore
SplineSet
168 1194 m 1
 258 1194 l 1
 258 340 l 2
 258 215 293 74 446 74 c 0
 609 74 638 244 638 340 c 2
 638 1194 l 1
 728 1194 l 1
 728 340 l 2
 728 215 767 74 920 74 c 0
 1072 74 1110 215 1110 340 c 2
 1110 1194 l 1
 1200 1194 l 1
 1200 340 l 2
 1200 92 1074 -15 920 -15 c 0
 822 -15 734 60 683 158 c 1
 634 60 546 -15 448 -15 c 0
 293 -15 168 92 168 340 c 2
 168 1194 l 1
EndSplineSet
Validated: 1
EndChar

StartChar: uni0E1F
Encoding: 3615 3615 255
Width: 1365
VWidth: 2982
Flags: W
HStem: -15 89<326.564 563.637 799.481 1037.19> 1174 20G<168 258 638 728> 1473 20G<1110 1200>
VStem: 168 90<147.771 1194> 638 90<160.929 1194> 1110 90<155.516 1493>
AnchorPoint: "AboveBase" 1006 1271 basechar 0
LayerCount: 2
Fore
SplineSet
168 1194 m 1
 258 1194 l 1
 258 340 l 2
 258 215 293 74 446 74 c 0
 609 74 638 244 638 340 c 2
 638 1194 l 1
 728 1194 l 1
 728 340 l 2
 728 215 767 74 920 74 c 0
 1072 74 1110 215 1110 340 c 2
 1110 1493 l 1
 1200 1493 l 1
 1200 340 l 2
 1200 92 1074 -15 920 -15 c 0
 822 -15 734 60 683 158 c 1
 634 60 546 -15 448 -15 c 0
 293 -15 168 92 168 340 c 2
 168 1194 l 1
EndSplineSet
Validated: 1
EndChar

StartChar: uni0E20
Encoding: 3616 3616 256
Width: 1179
VWidth: 2982
Flags: W
HStem: 0 90<92 168> 1119 90<390.86 741.302>
VStem: 168 90<90 684.514> 925 89<0 936.891>
DStem2: 218 859 128 842 0.866962 -0.498374<-5.18399 107.057>
LayerCount: 2
Fore
SplineSet
218 859 m 1
 385 763 l 1
 302 724 258 671 258 553 c 2
 258 0 l 1
 62 0 l 1
 92 90 l 1
 168 90 l 1
 168 553 l 2
 168 638 226 716 284 759 c 1
 128 842 l 1
 195 1119 421 1209 571 1209 c 0
 814 1209 1014 1010 1014 763 c 2
 1014 0 l 1
 925 0 l 1
 925 763 l 2
 925 987 750 1119 571 1119 c 0
 427 1119 271 1038 218 859 c 1
EndSplineSet
Validated: 1
EndChar

StartChar: uni0E21
Encoding: 3617 3617 257
Width: 1221
VWidth: 2982
Flags: W
HStem: -15 89<562.011 844.959> 0 21G<168 258> 1174 20G<168 258 967 1057>
VStem: 168 90<0 333 394.203 1194> 967 90<210.69 1194>
LayerCount: 2
Fore
SplineSet
168 1194 m 1x78
 258 1194 l 1
 258 555 l 2
 258 352 513 74 701 74 c 0
 914 74 967 267 967 430 c 2
 967 1194 l 1
 1057 1194 l 1
 1057 430 l 2
 1057 188 951 -15 701 -15 c 0xb8
 538 -15 361 152 258 333 c 1
 258 0 l 1
 168 0 l 1
 168 1194 l 1x78
EndSplineSet
Validated: 1
EndChar

StartChar: uni0E22
Encoding: 3618 3618 258
Width: 1192
VWidth: 2982
Flags: W
HStem: -15 89<396.004 766.086> 707 79<231 340 400.659 581> 1108 90<409.839 581>
VStem: 124 91<246 551.932> 137 94<786 924.625> 940 87<240.529 1194>
LayerCount: 2
Fore
SplineSet
940 1194 m 1xf4
 1027 1194 l 1
 1027 401 l 2
 1027 152 824 -15 581 -15 c 0
 340 -15 124 143 124 401 c 0xf4
 124 555 231 671 340 707 c 1
 137 707 l 1
 137 752 l 2
 137 996 338 1198 581 1198 c 1
 581 1108 l 1
 401 1108 250 974 231 797 c 1
 231 786 l 1xec
 611 786 l 1
 581 707 l 1
 383 707 215 585 215 401 c 0
 215 205 383 74 585 74 c 0
 781 74 940 205 940 401 c 2
 940 1194 l 1xf4
EndSplineSet
Validated: 1
EndChar

StartChar: uni0E23
Encoding: 3619 3619 259
Width: 1221
VWidth: 2982
Flags: W
HStem: -15 89<611 774.406> 553 90<258 967> 1119 90<440.339 782.665>
VStem: 168 90<643 933.305> 967 90<260.138 553 763 933.305>
LayerCount: 2
Fore
SplineSet
1057 643 m 1
 1057 430 l 2
 1057 186 857 -15 611 -15 c 1
 611 74 l 1
 808 74 967 233 967 430 c 2
 967 553 l 1
 168 553 l 1
 168 763 l 2
 168 1010 367 1209 611 1209 c 0
 857 1209 1057 1010 1057 763 c 1
 967 763 l 1
 967 961 808 1119 611 1119 c 0
 414 1119 258 961 258 763 c 2
 258 643 l 1
 1057 643 l 1
EndSplineSet
Validated: 1
EndChar

StartChar: uni0E24
Encoding: 3620 3620 260
Width: 1179
VWidth: 2982
Flags: W
HStem: -455 21G<925 1014> 0 90<258 346> 1119 90<390.86 741.302>
VStem: 168 90<90 684.514> 925 89<-455 936.891>
DStem2: 218 859 128 842 0.866962 -0.498374<-5.18399 107.057>
LayerCount: 2
Fore
SplineSet
218 859 m 1
 385 763 l 1
 302 724 258 671 258 553 c 2
 258 90 l 1
 376 90 l 1
 346 0 l 1
 168 0 l 1
 168 553 l 2
 168 638 226 716 284 759 c 1
 128 842 l 1
 195 1119 421 1209 571 1209 c 0
 814 1209 1014 1010 1014 763 c 2
 1014 -455 l 1
 925 -455 l 1
 925 763 l 2
 925 987 750 1119 571 1119 c 0
 427 1119 271 1038 218 859 c 1
EndSplineSet
Validated: 1
EndChar

StartChar: uni0E25
Encoding: 3621 3621 261
Width: 1221
VWidth: 2982
Flags: W
HStem: -15 89<448.836 611> 0 21G<967 1057> 553 90<258 967> 1119 90<440.339 782.665>
VStem: 168 90<260.138 553 763 933.305> 967 90<0 553 643 933.305>
LayerCount: 2
Fore
SplineSet
967 0 m 1x7c
 967 553 l 1
 258 553 l 1
 258 430 l 2
 258 233 414 74 611 74 c 1
 611 -15 l 1xbc
 367 -15 168 186 168 430 c 2
 168 643 l 1
 967 643 l 1
 967 763 l 2
 967 961 808 1119 611 1119 c 0
 414 1119 258 961 258 763 c 1
 168 763 l 1
 168 1010 367 1209 611 1209 c 0
 857 1209 1057 1010 1057 763 c 2
 1057 0 l 1
 967 0 l 1x7c
EndSplineSet
Validated: 1
EndChar

StartChar: uni0E26
Encoding: 3622 3622 262
Width: 1179
VWidth: 2982
Flags: W
HStem: -455 21G<925 1014> 0 90<92 168> 1119 90<390.86 741.302>
VStem: 168 90<90 684.514> 925 89<-455 936.891>
DStem2: 218 859 128 842 0.866962 -0.498374<-5.18399 107.057>
LayerCount: 2
Fore
SplineSet
218 859 m 1
 385 763 l 1
 302 724 258 671 258 553 c 2
 258 0 l 1
 62 0 l 1
 92 90 l 1
 168 90 l 1
 168 553 l 2
 168 638 226 716 284 759 c 1
 128 842 l 1
 195 1119 421 1209 571 1209 c 0
 814 1209 1014 1010 1014 763 c 2
 1014 -455 l 1
 925 -455 l 1
 925 763 l 2
 925 987 750 1119 571 1119 c 0
 427 1119 271 1038 218 859 c 1
EndSplineSet
Validated: 1
EndChar

StartChar: uni0E27
Encoding: 3623 3623 263
Width: 1213
VWidth: 2982
Flags: W
HStem: -15 89<416.39 749.015> 1119 90<425.588 753.591>
VStem: 1003 89<373.168 830.882>
LayerCount: 2
Fore
SplineSet
124 333 m 1
 208 369 l 1
 278 168 436 74 589 74 c 0
 808 74 1003 305 1003 600 c 0
 1003 895 808 1119 589 1119 c 0
 430 1119 286 1003 218 826 c 1
 134 859 l 1
 213 1063 383 1209 589 1209 c 0
 871 1209 1092 929 1092 598 c 0
 1092 267 871 -15 589 -15 c 0
 378 -15 197 116 124 333 c 1
EndSplineSet
Validated: 1
EndChar

StartChar: uni0E28
Encoding: 3624 3624 264
Width: 1221
VWidth: 2982
Flags: W
HStem: 0 21G<168 258 967 1057> 553 90<258 581> 1121 90<440.339 781.218> 1189 20G<970.522 1014.32>
VStem: 168 90<0 553 643 929.715> 967 90<0 933.769>
DStem2: 886 1117 951 1055 0.761243 0.648466<9.27589 141.873>
LayerCount: 2
Fore
SplineSet
967 0 m 1xdc
 967 763 l 2
 967 961 808 1121 611 1121 c 0
 414 1121 258 961 258 763 c 2
 258 643 l 1
 611 643 l 1
 581 553 l 1
 258 553 l 1
 258 0 l 1
 168 0 l 1
 168 767 l 2
 168 1012 367 1211 611 1211 c 0xec
 716 1211 812 1175 886 1117 c 1
 994 1209 l 1
 1057 1147 l 1
 951 1055 l 1
 1019 976 1057 875 1057 763 c 2
 1057 0 l 1
 967 0 l 1xdc
EndSplineSet
Validated: 1
EndChar

StartChar: uni0E29
Encoding: 3625 3625 265
Width: 1219
VWidth: 2982
Flags: W
HStem: -15 89<439.571 776.634> 669 90<647 965 1057 1128> 1174 20G<168 258 965 1055>
VStem: 168 90<260.138 1194> 557 90<759 808> 965 90<260.138 669 759 1194>
LayerCount: 2
Fore
SplineSet
168 1194 m 1
 258 1194 l 1
 258 430 l 2
 258 233 412 74 609 74 c 0
 806 74 965 233 965 430 c 2
 965 669 l 1
 557 669 l 1
 557 808 l 1
 647 839 l 1
 647 759 l 1
 965 759 l 1
 965 1194 l 1
 1055 1194 l 1
 1055 759 l 1
 1157 759 l 1
 1128 669 l 1
 1057 669 l 1
 1057 430 l 2
 1057 186 857 -15 611 -15 c 0
 367 -15 168 186 168 430 c 2
 168 1194 l 1
EndSplineSet
Validated: 1
EndChar

StartChar: uni0E2A
Encoding: 3626 3626 266
Width: 1221
VWidth: 2982
Flags: W
HStem: -15 89<448.836 611> 0 21G<967 1057> 553 90<258 967> 1119 92<440.339 781.218> 1189 20G<970.522 1014.32>
VStem: 168 90<260.138 553 767 936.377> 967 90<0 553 643 933.305>
DStem2: 886 1117 951 1055 0.761243 0.648466<9.27589 141.873>
LayerCount: 2
Fore
SplineSet
258 767 m 1xb6
 168 767 l 1
 168 1012 367 1211 611 1211 c 0xb6
 716 1211 812 1175 886 1117 c 1
 994 1209 l 1
 1057 1147 l 1
 951 1055 l 1
 1019 976 1057 875 1057 763 c 2
 1057 0 l 1
 967 0 l 1x6e
 967 553 l 1
 258 553 l 1
 258 430 l 2
 258 233 414 74 611 74 c 1
 611 -15 l 1
 367 -15 168 186 168 430 c 2
 168 643 l 1
 967 643 l 1
 967 763 l 2
 967 961 808 1119 611 1119 c 0
 414 1119 258 965 258 767 c 1xb6
EndSplineSet
Validated: 1
EndChar

StartChar: uni0E2B
Encoding: 3627 3627 267
Width: 1221
VWidth: 2982
Flags: W
HStem: 0 21G<168 258 967 1057> 949 70<737 820.256> 1153 45<929 957.097>
VStem: 168 90<0 551.093 643 1194> 967 90<0 794.04>
LayerCount: 2
Fore
SplineSet
168 1194 m 1
 258 1194 l 1
 258 643 l 1
 374 904 732 1155 916 1198 c 1
 1045 1153 l 1
 929 1130 814 1074 737 1019 c 1
 949 1019 1057 799 1057 573 c 2
 1057 0 l 1
 967 0 l 1
 967 573 l 2
 967 737 904 949 698 949 c 0
 544 949 258 589 258 393 c 2
 258 0 l 1
 168 0 l 1
 168 1194 l 1
EndSplineSet
Validated: 1
EndChar

StartChar: uni0E2C
Encoding: 3628 3628 268
Width: 1365
VWidth: 2982
Flags: W
HStem: -15 89<330.373 564.405 799.481 1037.19> 1104 90<822 1058.15>
VStem: 168 90<155.516 1194> 638 90<156.013 1194> 1110 90<155.516 1051.33 1249.12 1403>
AnchorPoint: "AboveBase" 1006 1271 basechar 0
LayerCount: 2
Fore
SplineSet
638 340 m 2
 638 1194 l 1
 728 1194 l 1
 728 340 l 2
 728 215 767 74 920 74 c 0
 1072 74 1110 215 1110 340 c 2
 1110 912 l 2
 1110 1019 1055 1104 947 1104 c 2
 822 1104 l 1
 822 1194 l 1
 947 1194 l 2
 1055 1194 1110 1280 1110 1388 c 2
 1110 1403 l 1
 1200 1403 l 1
 1200 1388 l 2
 1200 1288 1149 1198 1072 1147 c 1
 1149 1094 1200 1006 1200 904 c 2
 1200 340 l 2
 1200 92 1074 -15 920 -15 c 0
 822 -15 734 30 683 128 c 1
 634 30 546 -15 448 -15 c 0
 293 -15 168 92 168 340 c 2
 168 1194 l 1
 258 1194 l 1
 258 340 l 2
 258 215 295 74 448 74 c 0
 611 74 638 244 638 340 c 2
EndSplineSet
Validated: 1
EndChar

StartChar: uni0E2D
Encoding: 3629 3629 269
Width: 1329
VWidth: 2982
Flags: W
HStem: -11 90<488.331 838.13> 553 90<213 634> 1117 90<470.732 840.028>
VStem: 145 88<801.927 884.671> 1113 96<379.717 821.353>
CounterMasks: 1 e0
LayerCount: 2
Fore
SplineSet
665 643 m 1
 634 553 l 1
 213 553 l 1
 233 284 430 79 662 79 c 0
 906 79 1113 307 1113 598 c 0
 1113 886 912 1117 665 1117 c 0
 463 1117 289 991 233 781 c 1
 145 806 l 1
 215 1057 423 1207 665 1207 c 0
 969 1207 1209 929 1209 598 c 0
 1209 267 969 -11 665 -11 c 0
 361 -11 124 267 124 598 c 2
 124 643 l 1
 665 643 l 1
EndSplineSet
Validated: 1
EndChar

StartChar: uni0E2E
Encoding: 3630 3630 270
Width: 1329
VWidth: 2982
Flags: W
HStem: -11 90<488.331 838.13> 553 90<213 634> 1117 90<470.732 842.582>
VStem: 145 88<801.927 884.671> 1113 96<379.717 822.659>
DStem2: 955 1113 1023 1055 0.768221 0.640184<15.1083 132.774>
CounterMasks: 1 e0
LayerCount: 2
Fore
SplineSet
665 643 m 1
 634 553 l 1
 213 553 l 1
 233 284 430 79 662 79 c 0
 906 79 1113 307 1113 598 c 0
 1113 886 912 1117 665 1117 c 0
 463 1117 289 991 233 781 c 1
 145 806 l 1
 215 1057 423 1207 665 1207 c 0
 773 1207 871 1171 955 1113 c 1
 1057 1198 l 1
 1121 1137 l 1
 1023 1055 l 1
 1137 942 1209 777 1209 598 c 0
 1209 267 969 -11 665 -11 c 0
 361 -11 124 267 124 598 c 2
 124 643 l 1
 665 643 l 1
EndSplineSet
Validated: 1
EndChar

StartChar: uni0E2F
Encoding: 3631 3631 271
Width: 1125
VWidth: 2982
Flags: W
HStem: 0 21G<871 961> 767 90<249.872 580.3> 1121 90<269.844 401> 1174 20G<862 961>
VStem: 124 84<899.945 1059.21> 871 90<0 1027 1119.94 1194>
LayerCount: 2
Fore
SplineSet
871 0 m 1xdc
 871 1027 l 1
 786 916 618 767 403 767 c 0
 271 767 124 839 124 974 c 0
 124 1100 250 1211 401 1211 c 1
 401 1121 l 1xec
 284 1121 208 1036 208 974 c 0
 208 880 349 857 401 857 c 0
 656 857 853 1128 871 1194 c 1
 961 1194 l 1
 961 0 l 1
 871 0 l 1xdc
EndSplineSet
Validated: 1
EndChar

StartChar: uni0E30
Encoding: 3632 3632 272
Width: 603
VWidth: 2982
Flags: W
HStem: 119 89<258 493> 869 90<258 493>
VStem: 168 90<208 295 959 1045>
LayerCount: 2
Fore
SplineSet
258 959 m 1
 521 959 l 1
 493 869 l 1
 168 869 l 1
 168 1045 l 1
 258 1074 l 1
 258 959 l 1
258 208 m 1
 521 208 l 1
 493 119 l 1
 168 119 l 1
 168 295 l 1
 258 325 l 1
 258 208 l 1
EndSplineSet
Validated: 1
EndChar

StartChar: uni0E31
Encoding: 3633 3633 273
Width: 0
VWidth: 2982
Flags: W
HStem: 1350 89<-463 222>
VStem: -553 90<1439 1525>
AnchorPoint: "AboveMark" -213 1271 mark 0
AnchorPoint: "AboveMark" -213 1657 basemark 0
AnchorPoint: "AboveBase" -168 1271 mark 0
LayerCount: 2
Fore
SplineSet
-463 1439 m 1
 280 1439 l 1
 222 1350 l 1
 -553 1350 l 1
 -553 1525 l 1
 -463 1555 l 1
 -463 1439 l 1
EndSplineSet
Validated: 1
LCarets2: 1 0 
EndChar

StartChar: uni0E32
Encoding: 3634 3634 274
Width: 880
VWidth: 2982
Flags: W
HStem: 0 21G<626 716> 1119 90<216.534 507.606>
VStem: 626 90<0 983.525>
LayerCount: 2
Fore
SplineSet
626 0 m 1
 626 763 l 2
 626 929 573 1119 361 1119 c 0
 286 1119 199 1074 124 1010 c 1
 124 1110 l 1
 197 1171 280 1209 361 1209 c 0
 611 1209 716 1006 716 763 c 2
 716 0 l 1
 626 0 l 1
EndSplineSet
Validated: 1
EndChar

StartChar: uni0E33
Encoding: 3635 3635 275
Width: 880
VWidth: 2982
Flags: W
HStem: 0 21G<626 716> 1119 90<216.534 507.606> 1316 70<-249.528 -128.34> 1523 68<-247.191 -129.172>
VStem: -325 67<1396.7 1512.52> -119 68<1396.28 1512.96> 626 90<0 983.525>
LayerCount: 2
Fore
SplineSet
626 0 m 1
 626 763 l 2
 626 929 573 1119 361 1119 c 0
 286 1119 199 1074 124 1010 c 1
 124 1110 l 1
 197 1171 280 1209 361 1209 c 0
 611 1209 716 1006 716 763 c 2
 716 0 l 1
 626 0 l 1
-188 1591 m 0
 -114 1591 -51 1529 -51 1453 c 0
 -51 1379 -114 1316 -188 1316 c 0
 -262 1316 -325 1379 -325 1453 c 0
 -325 1529 -262 1591 -188 1591 c 0
-258 1453 m 0
 -258 1414 -226 1386 -188 1386 c 0
 -150 1386 -119 1414 -119 1453 c 0
 -119 1493 -150 1523 -188 1523 c 0
 -226 1523 -258 1493 -258 1453 c 0
EndSplineSet
Validated: 1
Substitution2: "Thai Sara Am Lakkhang" uni0E32
MultipleSubs2: "Thai Sara Am Decomposition" uni0E4D uni0E32
LCarets2: 1 0 
EndChar

StartChar: uni0E34
Encoding: 3636 3636 276
Width: 0
VWidth: 2982
Flags: W
HStem: 1350 89<-949 -168>
AnchorPoint: "AboveMark" -213 1271 mark 0
AnchorPoint: "AboveMark" -213 1657 basemark 0
AnchorPoint: "AboveBase" -168 1271 mark 0
LayerCount: 2
Fore
SplineSet
-168 1439 m 1
 -168 1350 l 1
 -1010 1350 l 1
 -949 1439 l 1
 -168 1439 l 1
EndSplineSet
Validated: 1
LCarets2: 1 0 
EndChar

StartChar: uni0E35
Encoding: 3637 3637 277
Width: 0
VWidth: 2982
Flags: W
HStem: 1350 205<-258 -168> 1350 89<-949 -258>
VStem: -258 90<1439 1555>
AnchorPoint: "AboveMark" -213 1271 mark 0
AnchorPoint: "AboveMark" -213 1657 basemark 0
AnchorPoint: "AboveBase" -168 1271 mark 0
LayerCount: 2
Fore
SplineSet
-258 1439 m 1x60
 -258 1555 l 1
 -168 1555 l 1
 -168 1350 l 1xa0
 -1010 1350 l 1
 -949 1439 l 1
 -258 1439 l 1x60
EndSplineSet
Validated: 1
LCarets2: 1 0 
EndChar

StartChar: uni0E36
Encoding: 3638 3638 278
Width: 0
VWidth: 2982
Flags: W
HStem: 1350 89<-949 -342> 1350 67<-273.753 -156.523> 1555 68<-273.712 -155.905>
VStem: -352 68<1439.65 1544.94> -145 66<1429.2 1543.01>
AnchorPoint: "AboveMark" -213 1271 mark 0
AnchorPoint: "AboveMark" -213 1657 basemark 0
AnchorPoint: "AboveBase" -168 1271 mark 0
LayerCount: 2
Fore
SplineSet
-215 1623 m 0xb8
 -141 1623 -79 1560 -79 1486 c 0
 -79 1412 -141 1350 -215 1350 c 2
 -1010 1350 l 1x78
 -949 1439 l 1
 -342 1439 l 1
 -349 1453 -352 1468 -352 1486 c 0
 -352 1560 -289 1623 -215 1623 c 0xb8
-284 1486 m 0
 -284 1448 -252 1417 -215 1417 c 0
 -177 1417 -145 1448 -145 1486 c 0
 -145 1525 -177 1555 -215 1555 c 0
 -252 1555 -284 1525 -284 1486 c 0
EndSplineSet
Validated: 1
EndChar

StartChar: uni0E37
Encoding: 3639 3639 279
Width: 0
VWidth: 2982
Flags: W
HStem: 1350 205<-450 -361 -258 -168> 1350 89<-949 -450 -361 -258>
VStem: -450 89<1439 1555> -258 90<1439 1555>
AnchorPoint: "AboveMark" -309 1271 mark 0
AnchorPoint: "AboveMark" -309 1657 basemark 0
AnchorPoint: "AboveBase" -168 1271 mark 0
LayerCount: 2
Fore
SplineSet
-258 1439 m 1x70
 -258 1555 l 1
 -168 1555 l 1
 -168 1350 l 1xb0
 -1010 1350 l 1
 -949 1439 l 1
 -450 1439 l 1x70
 -450 1555 l 1
 -361 1555 l 1xb0
 -361 1439 l 1
 -258 1439 l 1x70
EndSplineSet
Validated: 1
EndChar

StartChar: uni0E38
Encoding: 3640 3640 280
Width: 0
VWidth: 2982
Flags: W
HStem: -474 21G<-258 -168> -215 89<-333 -258>
VStem: -258 90<-474 -215>
AnchorPoint: "BelowMark" -168 -85 mark 0
AnchorPoint: "BelowMark" -168 -497 basemark 0
AnchorPoint: "BelowBase" -168 -85 mark 0
LayerCount: 2
Fore
SplineSet
-333 -126 m 1
 -168 -126 l 1
 -168 -474 l 1
 -258 -474 l 1
 -258 -215 l 1
 -365 -215 l 1
 -333 -126 l 1
EndSplineSet
Validated: 1
Substitution2: "Thai Sara U Phinthu Reordering" uni0E3A
Substitution2: "Thai Sara U Nikhahit Reordering" uni0E4D
Substitution2: "Thai Sara U Thanthakhat Reordering" uni0E4C.low
Substitution2: "Thai Sara U Mai Chattawa Reordering" uni0E4B.low
Substitution2: "Thai Sara U Mai Tri Reordering" uni0E4A.low
Substitution2: "Thai Sara U Mai Tho Reordering" uni0E49.low
Substitution2: "Thai Sara U Mai Ek Reordering" uni0E48.low
EndChar

StartChar: uni0E39
Encoding: 3641 3641 281
Width: 0
VWidth: 2982
Flags: W
HStem: -491 90<-505.706 -300.139> -215 89<-690 -638>
VStem: -690 141<-171.568 -126> -638 89<-356.054 -215> -258 90<-356.054 -126>
AnchorPoint: "BelowMark" -168 -85 mark 0
AnchorPoint: "BelowMark" -168 -497 basemark 0
AnchorPoint: "BelowBase" -168 -85 mark 0
LayerCount: 2
Fore
SplineSet
-690 -126 m 1xe8
 -549 -126 l 1xe8
 -549 -252 l 2
 -549 -333 -483 -401 -403 -401 c 0
 -322 -401 -258 -333 -258 -252 c 2
 -258 -126 l 1
 -168 -126 l 1
 -168 -252 l 2
 -168 -385 -271 -491 -403 -491 c 0
 -534 -491 -638 -385 -638 -252 c 2
 -638 -215 l 1xd8
 -718 -215 l 1
 -690 -126 l 1xe8
EndSplineSet
Validated: 1
Substitution2: "Thai Sara UU Phinthu Reordering" uni0E3A
Substitution2: "Thai Sara UU Nikhahit Reordering" uni0E4D
Substitution2: "Thai Sara UU Thanthakhat Reordering" uni0E4C.low
Substitution2: "Thai Sara UU Mai Chattawa Reordering" uni0E4B.low
Substitution2: "Thai Sara UU Mai Tri Reordering" uni0E4A.low
Substitution2: "Thai Sara UU Mai Tho Reordering" uni0E49.low
Substitution2: "Thai Sara UU Mai Ek Reordering" uni0E48.low
EndChar

StartChar: uni0E3A
Encoding: 3642 3642 282
Width: 0
VWidth: 2982
Flags: W
HStem: -258 151<-278.577 -144.49>
VStem: -286 149<-251.272 -113.672>
AnchorPoint: "BelowMark" -168 -85 mark 0
AnchorPoint: "BelowMark" -168 -281 basemark 0
AnchorPoint: "BelowBase" -168 -85 mark 0
LayerCount: 2
Fore
SplineSet
-286 -181 m 0
 -286 -141 -252 -107 -213 -107 c 0
 -171 -107 -137 -141 -137 -181 c 0
 -137 -224 -171 -258 -213 -258 c 0
 -252 -258 -286 -224 -286 -181 c 0
EndSplineSet
Validated: 1
Substitution2: "Thai Sara UU Phinthu Reordering" uni0E39
Substitution2: "Thai Sara U Phinthu Reordering" uni0E38
Substitution2: "Thai Phinthu Nikhahit Reordering" uni0E4D
Substitution2: "Thai Phinthu Thanthakhat Reordering" uni0E4C.low
Substitution2: "Thai Phinthu Mai Chattawa Reordering" uni0E4B.low
Substitution2: "Thai Phinthu Mai Tri Reordering" uni0E4A.low
Substitution2: "Thai Phinthu Mai Tho Reordering" uni0E49.low
Substitution2: "Thai Phinthu Mai Ek Reordering" uni0E48.low
Substitution2: "Thai Phinthu Maitaikhu Reordering" uni0E47
EndChar

StartChar: uni0E3F
Encoding: 3647 3647 283
Width: 1219
VWidth: 2982
Flags: W
HStem: 0 90<233 463 555 848.266> 795 89<233 466 555 818.045> 1403 90<233 466 555 806.755>
VStem: 143 90<90 795 884 1403> 466 89<-150 0 90 795 884 1403 1493 1641> 947 85<1006.68 1269.14> 1057 87<284.978 598.212>
LayerCount: 2
Fore
SplineSet
555 1493 m 1
 651 1493 l 2
 859 1493 1032 1332 1032 1135 c 0
 1032 1010 961 902 853 839 c 1
 1023 773 1144 620 1144 438 c 0
 1144 195 925 0 662 0 c 2
 553 0 l 1
 553 -150 l 1
 463 -150 l 1
 463 0 l 1
 143 0 l 1
 143 1493 l 1
 466 1493 l 1
 466 1641 l 1
 555 1641 l 1
 555 1493 l 1
555 1403 m 1
 555 884 l 1
 651 884 l 2
 818 884 947 996 947 1137 c 0
 947 1278 818 1403 651 1403 c 2
 555 1403 l 1
555 90 m 1
 665 90 l 2
 886 90 1057 252 1057 440 c 0
 1057 628 886 795 665 795 c 2
 555 795 l 1
 555 90 l 1
466 884 m 1
 466 1403 l 1
 233 1403 l 1
 233 884 l 1
 466 884 l 1
466 90 m 1
 466 795 l 1
 233 795 l 1
 233 90 l 1
 466 90 l 1
EndSplineSet
Validated: 1
EndChar

StartChar: uni0E40
Encoding: 3648 3648 284
Width: 422
VWidth: 2982
Flags: W
HStem: 0 21G<168 258> 1174 20G<168 258>
VStem: 168 90<0 1194>
LayerCount: 2
Fore
SplineSet
258 0 m 1
 168 0 l 1
 168 1194 l 1
 258 1194 l 1
 258 0 l 1
EndSplineSet
Validated: 1
EndChar

StartChar: uni0E41
Encoding: 3649 3649 285
Width: 690
VWidth: 2982
Flags: W
HStem: 0 21G<168 258 436 526> 1174 20G<168 258 436 526>
VStem: 168 90<0 1194> 436 90<0 1194>
LayerCount: 2
Fore
SplineSet
258 0 m 1
 168 0 l 1
 168 1194 l 1
 258 1194 l 1
 258 0 l 1
526 0 m 1
 436 0 l 1
 436 1194 l 1
 526 1194 l 1
 526 0 l 1
EndSplineSet
Validated: 1
EndChar

StartChar: uni0E42
Encoding: 3650 3650 286
Width: 422
VWidth: 2982
Flags: W
HStem: 0 90<258 333> 1674 90<-69 51.7578 107 579>
VStem: 168 90<90 1531.74>
LayerCount: 2
Fore
SplineSet
168 0 m 1
 168 1318 l 2
 168 1484 114 1674 -98 1674 c 1
 -69 1764 l 1
 609 1764 l 1
 579 1674 l 1
 107 1674 l 1
 203 1605 258 1461 258 1318 c 2
 258 90 l 1
 365 90 l 1
 333 0 l 1
 168 0 l 1
EndSplineSet
Validated: 1
EndChar

StartChar: uni0E43
Encoding: 3651 3651 287
Width: 472
VWidth: 2982
Flags: W
HStem: 0 90<307 374> 1685 94<43.6193 298.264>
VStem: -98 89<1540 1628.39> 218 89<90 1354.3> 361 89<1455.39 1623.12>
LayerCount: 2
Fore
SplineSet
218 0 m 1
 218 1207 l 2
 218 1426 361 1448 361 1540 c 0
 361 1600 278 1685 173 1685 c 0
 63 1685 -9 1608 -9 1540 c 1
 -98 1540 l 1
 -98 1661 24 1779 171 1779 c 0
 322 1779 450 1657 450 1542 c 0
 450 1397 307 1397 307 1209 c 2
 307 90 l 1
 403 90 l 1
 374 0 l 1
 218 0 l 1
EndSplineSet
Validated: 1
EndChar

StartChar: uni0E44
Encoding: 3652 3652 288
Width: 436
VWidth: 2982
Flags: W
HStem: 0 90<271 342> 1677 89<161 331>
VStem: 181 90<90 1529.87>
LayerCount: 2
Fore
SplineSet
181 0 m 1
 181 1352 l 2
 181 1497 262 1600 331 1677 c 1
 161 1677 l 1
 54 1531 l 1
 -98 1672 l 1
 -98 1793 l 1
 51 1659 l 1
 124 1766 l 1
 446 1766 l 1
 446 1685 l 1
 361 1619 271 1520 271 1350 c 2
 271 90 l 1
 374 90 l 1
 342 0 l 1
 181 0 l 1
EndSplineSet
Validated: 1
EndChar

StartChar: uni0E45
Encoding: 3653 3653 289
Width: 880
VWidth: 2982
Flags: W
HStem: -455 21G<626 716> 1119 90<216.534 507.606>
VStem: 626 90<-455 983.525>
LayerCount: 2
Fore
SplineSet
626 -455 m 1
 626 763 l 2
 626 929 573 1119 361 1119 c 0
 286 1119 199 1074 124 1010 c 1
 124 1110 l 1
 197 1171 280 1209 361 1209 c 0
 611 1209 716 1006 716 763 c 2
 716 -455 l 1
 626 -455 l 1
EndSplineSet
Validated: 1
EndChar

StartChar: uni0E46
Encoding: 3654 3654 290
Width: 1177
VWidth: 2982
Flags: W
HStem: -455 21G<922 1012> 579 90<273.291 478.279> 925 96<469.922 668.856> 1187 20G<325 370.875>
VStem: 124 81<744.137 1010.62> 922 90<-455 983.831>
LayerCount: 2
Fore
SplineSet
922 -455 m 1
 922 818 l 2
 922 922 875 1014 803 1081 c 1
 737 991 660 925 566 925 c 0
 472 925 391 994 322 1085 c 1
 244 1041 205 959 205 875 c 0
 205 767 269 669 396 669 c 0
 421 669 448 671 477 679 c 1
 500 591 l 1
 463 581 430 579 401 579 c 0
 218 579 124 724 124 875 c 0
 124 1000 188 1135 325 1191 c 1
 359 1207 l 1
 378 1175 l 1
 466 1041 530 1021 571 1021 c 0
 609 1021 673 1041 761 1175 c 1
 786 1215 l 1
 824 1188 l 2
 938 1108 1012 974 1012 824 c 2
 1012 -455 l 1
 922 -455 l 1
EndSplineSet
Validated: 1
EndChar

StartChar: uni0E47
Encoding: 3655 3655 291
Width: 0
VWidth: 2982
Flags: W
HStem: 1327 92<-426.961 -189.434> 1350 89<-836.16 -737 -284.124 -194.007> 1623 90<-837.93 -114>
VStem: -947 88<1464.21 1597.69>
DStem2: -737 1439 -709 1350 0.846836 0.531854<-41.9629 146.405> -573 1542 -566 1442 0.880755 -0.473572<53.5225 309.787>
AnchorPoint: "AboveMark" -566 1779 basemark 0
AnchorPoint: "AboveBase" -168 1271 mark 0
LayerCount: 2
Fore
SplineSet
-114 1623 m 1x70
 -726 1623 l 2
 -812 1623 -859 1570 -859 1529 c 0
 -859 1489 -812 1442 -737 1439 c 1x70
 -573 1542 l 1
 -374 1435 l 2
 -346 1420 -316 1419 -286 1419 c 0xb0
 -258 1419 -228 1424 -199 1433 c 1
 -168 1350 l 1x70
 -205 1337 -246 1327 -286 1327 c 0xb0
 -329 1327 -374 1334 -410 1354 c 2
 -566 1442 l 1
 -709 1350 l 1
 -827 1350 -947 1413 -947 1531 c 0
 -947 1641 -833 1713 -724 1713 c 2
 -83 1713 l 1
 -114 1623 l 1x70
EndSplineSet
Validated: 1
Substitution2: "Thai Phinthu Maitaikhu Reordering" uni0E3A
Substitution2: "Thai Mark High Variant" uni0E47.high
LCarets2: 1 0 
EndChar

StartChar: uni0E48
Encoding: 3656 3656 292
Width: 0
VWidth: 2982
Flags: W
HStem: 1683 244<-258 -168>
VStem: -258 90<1683 1927>
AnchorPoint: "AboveMark" -213 2033 basemark 0
AnchorPoint: "AboveMark" -213 1657 mark 0
LayerCount: 2
Fore
SplineSet
-168 1683 m 1
 -258 1683 l 1
 -258 1927 l 1
 -168 1927 l 1
 -168 1683 l 1
EndSplineSet
Validated: 1
Substitution2: "Thai Mai Ek Tilde Reordering" tildecomb
Substitution2: "Thai Phinthu Mai Ek Reordering" uni0E3A
Substitution2: "Thai Sara UU Mai Ek Reordering" uni0E39
Substitution2: "Thai Sara U Mai Ek Reordering" uni0E38
Substitution2: "Thai Tone Low Variant" uni0E48.low
MultipleSubs2: "Thai Tone Nikhahit Attachment" uni0E4D uni0E48
LCarets2: 1 0 
EndChar

StartChar: uni0E49
Encoding: 3657 3657 293
Width: 0
VWidth: 2982
Flags: W
HStem: 1683 90<-346 2> 1835 90<-528 -437.6>
VStem: -436 90<1773 1834.48>
AnchorPoint: "AboveMark" -213 1991 basemark 0
AnchorPoint: "AboveMark" -213 1657 mark 0
LayerCount: 2
Fore
SplineSet
-436 1683 m 1
 -436 1790 l 2
 -436 1807 -440 1835 -481 1835 c 2
 -557 1835 l 1
 -528 1925 l 1
 -481 1925 l 2
 -365 1925 -346 1826 -346 1790 c 2
 -346 1773 l 1
 34 1773 l 1
 2 1683 l 1
 -436 1683 l 1
EndSplineSet
Validated: 1
Substitution2: "Thai Mai Tho Tilde Reordering" tildecomb
Substitution2: "Thai Phinthu Mai Tho Reordering" uni0E3A
Substitution2: "Thai Sara UU Mai Tho Reordering" uni0E39
Substitution2: "Thai Sara U Mai Tho Reordering" uni0E38
Substitution2: "Thai Tone Low Variant" uni0E49.low
MultipleSubs2: "Thai Tone Nikhahit Attachment" uni0E4D uni0E49
EndChar

StartChar: uni0E4A
Encoding: 3658 3658 294
Width: 0
VWidth: 2982
Flags: W
HStem: 1683 90<-484.965 -410 81 342> 1905 90<-482.894 -284.421>
VStem: -581 90<1777.35 1894.19> -9 90<1773 1873>
DStem2: -186 1854 -222 1717 0.806766 0.590871<0 154.024>
AnchorPoint: "AboveMark" -213 2033 basemark 0
AnchorPoint: "AboveMark" -213 1657 mark 0
LayerCount: 2
Fore
SplineSet
-9 1683 m 1
 -9 1873 l 1
 -222 1717 l 1
 -242 1790 -269 1905 -385 1905 c 0
 -468 1905 -491 1862 -491 1835 c 0
 -491 1807 -468 1775 -430 1775 c 2
 -410 1775 l 1
 -410 1685 l 1
 -430 1685 l 2
 -521 1685 -581 1762 -581 1835 c 0
 -581 1916 -517 1995 -387 1995 c 0
 -286 1995 -218 1934 -186 1854 c 1
 -30 1967 l 1
 81 1967 l 1
 81 1773 l 1
 374 1773 l 1
 342 1683 l 1
 -9 1683 l 1
EndSplineSet
Validated: 1
Substitution2: "Thai Mai Tri Tilde Reordering" tildecomb
Substitution2: "Thai Phinthu Mai Tri Reordering" uni0E3A
Substitution2: "Thai Sara UU Mai Tri Reordering" uni0E39
Substitution2: "Thai Sara U Mai Tri Reordering" uni0E38
Substitution2: "Thai Tone Low Variant" uni0E4A.low
MultipleSubs2: "Thai Tone Nikhahit Attachment" uni0E4D uni0E4A
EndChar

StartChar: uni0E4B
Encoding: 3659 3659 295
Width: 0
VWidth: 2982
Flags: W
HStem: 1773 89<-342 -258 -168 -81>
VStem: -258 90<1683 1773 1862 1952>
AnchorPoint: "AboveMark" -213 2018 basemark 0
AnchorPoint: "AboveMark" -213 1657 mark 0
LayerCount: 2
Fore
SplineSet
-342 1775 m 1
 -342 1860 l 1
 -258 1860 l 1
 -258 1952 l 1
 -168 1952 l 1
 -168 1862 l 1
 -81 1862 l 1
 -81 1773 l 1
 -168 1773 l 1
 -168 1683 l 1
 -258 1683 l 1
 -258 1775 l 1
 -342 1775 l 1
EndSplineSet
Validated: 1
Substitution2: "Thai Mai Chattawa Tilde Reordering" tildecomb
Substitution2: "Thai Phinthu Mai Chattawa Reordering" uni0E3A
Substitution2: "Thai Sara UU Mai Chattawa Reordering" uni0E39
Substitution2: "Thai Sara U Mai Chattawa Reordering" uni0E38
Substitution2: "Thai Tone Low Variant" uni0E4B.low
MultipleSubs2: "Thai Tone Nikhahit Attachment" uni0E4D uni0E4B
EndChar

StartChar: uni0E4C
Encoding: 3660 3660 296
Width: 0
VWidth: 2982
Flags: W
HStem: 1793 89<-167.034 30>
VStem: -258 90<1683 1792.27>
AnchorPoint: "AboveMark" -213 1948 basemark 0
AnchorPoint: "AboveMark" -213 1657 mark 0
LayerCount: 2
Fore
SplineSet
-258 1683 m 1
 -258 1748 l 2
 -258 1784 -239 1882 -124 1882 c 2
 60 1882 l 1
 30 1793 l 1
 -124 1793 l 2
 -161 1793 -168 1764 -168 1748 c 2
 -168 1683 l 1
 -258 1683 l 1
EndSplineSet
Validated: 1
Substitution2: "Thai Phinthu Thanthakhat Reordering" uni0E3A
Substitution2: "Thai Sara UU Thanthakhat Reordering" uni0E39
Substitution2: "Thai Sara U Thanthakhat Reordering" uni0E38
Substitution2: "Thai Tone Low Variant" uni0E4C.low
MultipleSubs2: "Thai Tone Nikhahit Attachment" uni0E4D uni0E4C
EndChar

StartChar: uni0E4D
Encoding: 3661 3661 297
Width: 0
VWidth: 2982
Flags: W
HStem: 1316 70<-271.477 -152.126> 1523 68<-269.181 -152.947>
VStem: -349 69<1394.39 1513.38> -143 69<1396.28 1512.96>
AnchorPoint: "AboveMark" -213 1657 basemark 0
AnchorPoint: "AboveBase" -87 1271 mark 0
LayerCount: 2
Fore
SplineSet
-213 1591 m 4
 -137 1591 -74 1529 -74 1453 c 0
 -74 1379 -137 1316 -213 1316 c 0
 -286 1316 -349 1379 -349 1453 c 0
 -349 1529 -286 1591 -213 1591 c 4
-280 1453 m 0
 -280 1414 -250 1386 -213 1386 c 0
 -173 1386 -143 1414 -143 1453 c 0
 -143 1493 -173 1523 -213 1523 c 0
 -250 1523 -280 1493 -280 1453 c 0
EndSplineSet
Validated: 1
Substitution2: "Thai Phinthu Nikhahit Reordering" uni0E3A
Substitution2: "Thai Sara UU Nikhahit Reordering" uni0E39
Substitution2: "Thai Sara U Nikhahit Reordering" uni0E38
Substitution2: "Thai Mark High Variant" uni0E4D.high
LCarets2: 1 0 
EndChar

StartChar: uni0E4E
Encoding: 3662 3662 298
Width: 0
VWidth: 2982
Flags: W
HStem: 1459 72<-659.989 -446.781> 1790 75<-453.006 -349> 2140 73<-364.605 -63.1791>
VStem: -761 74<1559.66 1708.85> -564 73<1904.38 2044.96>
AnchorPoint: "AboveMark" -408 2279 basemark 0
AnchorPoint: "AboveBase" -168 1271 mark 0
LayerCount: 2
Fore
SplineSet
-440 1574 m 1
 -378 1538 l 1
 -412 1484 -481 1459 -549 1459 c 0
 -665 1459 -761 1523 -761 1619 c 0
 -761 1753 -656 1826 -513 1854 c 1
 -544 1880 -564 1916 -564 1967 c 0
 -564 2115 -383 2213 -171 2213 c 0
 -134 2213 -96 2211 -54 2205 c 1
 -64 2131 l 1
 -105 2138 -141 2140 -173 2140 c 0
 -338 2140 -491 2070 -491 1967 c 0
 -491 1905 -412 1873 -342 1865 c 1
 -278 1865 l 1
 -349 1790 l 1
 -376 1790 l 2
 -513 1790 -687 1755 -687 1614 c 0
 -687 1565 -618 1531 -549 1531 c 0
 -483 1531 -450 1558 -440 1574 c 1
EndSplineSet
Validated: 1
Substitution2: "Thai Mark High Variant" uni0E4E.high
EndChar

StartChar: uni0E4F
Encoding: 3663 3663 299
Width: 1465
VWidth: 2982
Flags: W
HStem: -15 94<527.034 932.176> 284 92<603.678 864.536> 820 92<603.893 864.322> 1117 92<527.034 932.176>
VStem: 124 89<398.928 803.426> 421 92<466.122 728.589> 955 92<466.122 728.589> 1251 94<391.85 803.426>
LayerCount: 2
Fore
SplineSet
734 1209 m 0
 1072 1209 1345 933 1345 598 c 0
 1345 260 1072 -15 734 -15 c 0
 396 -15 124 260 124 598 c 0
 124 933 396 1209 734 1209 c 0
213 598 m 0
 213 312 446 79 732 79 c 0
 1019 79 1251 312 1251 598 c 0
 1251 884 1019 1117 732 1117 c 0
 446 1117 213 884 213 598 c 0
421 598 m 0
 421 771 562 912 734 912 c 0
 906 912 1047 771 1047 598 c 0
 1047 423 906 284 734 284 c 0
 562 284 421 423 421 598 c 0
513 598 m 0
 513 473 612 376 734 376 c 0
 857 376 955 473 955 598 c 0
 955 719 856 820 734 820 c 0
 613 820 513 719 513 598 c 0
EndSplineSet
Validated: 1
EndChar

StartChar: uni0E50
Encoding: 3664 3664 300
Width: 1401
VWidth: 2982
Flags: W
HStem: -15 89<489.003 913.959> 912 88<489.003 913.959>
VStem: 124 89<325.04 660.304> 1191 89<325.04 660.304>
LayerCount: 2
Fore
SplineSet
701 1000 m 0
 1019 1000 1280 779 1280 493 c 0
 1280 205 1019 -15 701 -15 c 0
 385 -15 124 205 124 493 c 0
 124 779 385 1000 701 1000 c 0
213 493 m 0
 213 267 427 74 701 74 c 0
 976 74 1191 267 1191 493 c 0
 1191 718 976 912 701 912 c 0
 427 912 213 718 213 493 c 0
EndSplineSet
Validated: 1
EndChar

StartChar: uni0E51
Encoding: 3665 3665 301
Width: 1401
VWidth: 2982
Flags: W
HStem: -126 88<692 887.716> 96 90<372.886 712.912> 912 88<489.003 912.493>
VStem: 124 89<338.923 660.304> 1191 89<263.137 657.9>
LayerCount: 2
Fore
SplineSet
690 -126 m 1
 692 -38 l 1
 951 -38 1191 161 1191 483 c 0
 1191 726 974 912 701 912 c 0
 427 912 213 718 213 493 c 0
 213 307 369 186 544 186 c 0
 660 186 767 242 839 338 c 1
 912 284 l 1
 822 164 690 96 544 96 c 0
 325 96 124 252 124 493 c 0
 124 779 385 1000 701 1000 c 0
 1014 1000 1280 781 1280 483 c 0
 1280 114 1003 -126 690 -126 c 1
EndSplineSet
Validated: 1
EndChar

StartChar: uni0E52
Encoding: 3666 3666 302
Width: 1401
VWidth: 2982
Flags: W
HStem: 0 90<384.983 1021.98> 239 90<521.114 620> 906 90<518.498 718.798 926.386 1133.27>
VStem: 124 89<273.797 1218.59> 346 90<426.169 810.273> 779 90<508 837.788> 1188 90<268.789 846.492>
LayerCount: 2
Fore
SplineSet
779 508 m 1
 779 643 l 2
 779 763 745 906 618 906 c 0
 504 906 436 777 436 618 c 0
 436 463 504 329 620 329 c 1
 620 239 l 1
 457 239 346 403 346 618 c 0
 346 833 455 996 618 996 c 0
 705 996 777 955 822 867 c 1
 867 955 942 996 1030 996 c 0
 1171 996 1278 884 1278 643 c 2
 1278 446 l 2
 1278 203 1100 0 871 0 c 2
 526 0 l 2
 297 0 124 203 124 446 c 2
 124 1045 l 2
 124 1164 105 1211 72 1226 c 1
 107 1309 l 1
 186 1277 213 1198 213 1047 c 2
 213 448 l 2
 213 248 359 90 528 90 c 2
 875 90 l 2
 1045 90 1188 248 1188 448 c 2
 1188 645 l 2
 1188 767 1157 912 1030 912 c 0
 902 912 869 767 869 645 c 2
 869 508 l 1
 779 508 l 1
EndSplineSet
Validated: 1
EndChar

StartChar: uni0E53
Encoding: 3667 3667 303
Width: 1401
VWidth: 2982
Flags: W
HStem: -15 89<344.817 450> 0 21G<654 743 1155 1245> 912 88<342.863 575.377 821.989 1077.56>
VStem: 128 87<248.083 744.481> 654 89<0 825.75> 1155 90<0 830.364>
LayerCount: 2
Fore
SplineSet
654 0 m 1x7c
 654 645 l 2
 654 771 611 912 448 912 c 0
 307 912 215 726 215 493 c 0
 215 271 302 74 450 74 c 1
 450 -15 l 1xbc
 224 -15 128 258 128 493 c 0
 128 724 222 1000 450 1000 c 0
 555 1000 647 955 701 853 c 1
 754 955 848 1000 951 1000 c 0
 1110 1000 1245 895 1245 645 c 2
 1245 0 l 1
 1155 0 l 1
 1155 645 l 2
 1155 771 1113 912 949 912 c 0
 786 912 743 771 743 645 c 2
 743 0 l 1
 654 0 l 1x7c
EndSplineSet
Validated: 1
EndChar

StartChar: uni0E54
Encoding: 3668 3668 304
Width: 1401
VWidth: 2982
Flags: W
HStem: -15 89<436.469 752.836> 27 87<767.26 1249.74> 463 90<759.083 891> 889 87<662.303 1161.78> 914 86<436.777 999.212>
VStem: 79 87<336.8 673.206> 624 90<205.396 422.617> 1267 87<1086.69 1280>
LayerCount: 2
Fore
SplineSet
1267 1280 m 1x37
 1354 1280 l 1
 1354 965 1162 889 1000 889 c 0x37
 912 889 818 914 651 914 c 0
 378 914 166 734 166 510 c 0
 166 289 361 74 632 74 c 0xaf
 669 74 712 81 754 90 c 1
 669 154 624 242 624 325 c 0
 624 448 720 553 891 553 c 1
 891 463 l 1
 767 463 714 396 714 322 c 0
 714 250 767 158 893 107 c 1
 929 109 969 114 1008 114 c 0
 1106 114 1207 98 1296 56 c 1
 1258 -25 l 1
 1186 11 1100 27 1010 27 c 0x67
 844 27 759 -15 634 -15 c 0
 316 -15 79 235 79 508 c 0
 79 790 344 1000 658 1000 c 0xaf
 826 1000 933 976 1006 976 c 0
 1162 976 1267 1059 1267 1280 c 1x37
EndSplineSet
Validated: 1
EndChar

StartChar: uni0E55
Encoding: 3669 3669 305
Width: 1401
VWidth: 2982
Flags: W
HStem: -15 89<436.469 752.836> 27 87<767.26 1249.74> 463 90<759.083 891> 889 87<855.533 1161.78> 914 86<605.667 775.92> 1173 83<610.072 774.015>
VStem: 79 87<336.8 673.477> 506 87<1015.77 1155.93> 624 90<205.396 422.617> 790 92<1014.15 1156.96> 1267 87<1086.69 1280>
LayerCount: 2
Fore
SplineSet
1267 1280 m 1xb7e0
 1354 1280 l 1
 1354 965 1162 889 1000 889 c 0xb7e0
 920 889 810 914 651 914 c 0
 378 914 166 734 166 510 c 0
 166 289 361 74 632 74 c 0xafe0
 669 74 712 81 754 90 c 1
 669 154 624 242 624 325 c 0
 624 448 720 553 891 553 c 1
 891 463 l 1
 767 463 714 396 714 322 c 0
 714 250 767 158 893 107 c 1
 929 109 969 114 1008 114 c 0
 1106 114 1207 98 1296 56 c 1
 1258 -25 l 1
 1186 11 1100 27 1010 27 c 0x67e0
 844 27 759 -15 634 -15 c 0
 316 -15 79 235 79 508 c 0
 79 754 280 942 534 987 c 1
 515 1019 506 1050 506 1081 c 0
 506 1173 587 1256 694 1256 c 0
 795 1256 882 1182 882 1083 c 0
 882 1047 871 1014 853 987 c 1
 916 983 963 976 1006 976 c 0
 1162 976 1267 1059 1267 1280 c 1xb7e0
593 1085 m 0
 593 1055 611 1003 703 1000 c 1x2fe0
 754 1006 790 1045 790 1085 c 0
 790 1130 748 1173 692 1173 c 0
 634 1173 593 1130 593 1085 c 0
EndSplineSet
Validated: 1
EndChar

StartChar: uni0E56
Encoding: 3670 3670 306
Width: 1401
VWidth: 2982
Flags: W
HStem: -15 89<421.852 863.067> 468 85<301.761 438> 916 84<405.607 857.684> 1215 86<-101.501 -45.6369>
VStem: 161 89<211.603 417.698> 1139 90<325.04 660.653>
LayerCount: 2
Fore
SplineSet
438 553 m 1
 438 468 l 1
 307 468 250 393 250 322 c 0
 250 222 367 74 651 74 c 0
 925 74 1139 267 1139 493 c 0
 1139 718 925 916 651 916 c 0
 502 916 316 859 233 788 c 2
 164 728 l 1
 158 818 l 1
 145 991 -17 1191 -119 1215 c 1
 -98 1301 l 1
 43 1269 195 1072 239 895 c 1
 356 965 526 1000 651 1000 c 0
 967 1000 1229 779 1229 493 c 0
 1229 205 967 -15 651 -15 c 0
 338 -15 161 154 161 322 c 0
 161 448 262 553 438 553 c 1
EndSplineSet
Validated: 1
EndChar

StartChar: uni0E57
Encoding: 3671 3671 307
Width: 1401
VWidth: 2982
Flags: W
HStem: 0 90<262.211 361 806 893.968> 912 91<254.351 484.604 697.525 897.777>
VStem: 47 90<249.435 750.705> 549 89<391 841.5> 1000 92<233.529 769.865> 1247 90<259.076 1217.26>
LayerCount: 2
Fore
SplineSet
549 391 m 1
 549 687 l 2
 549 799 500 912 361 912 c 0
 226 912 137 728 137 502 c 0
 137 275 226 92 361 92 c 1
 361 2 l 1
 173 2 47 218 47 504 c 0
 47 790 173 1003 361 1003 c 0
 459 1003 544 961 593 869 c 1
 638 961 718 1003 808 1003 c 0
 978 1003 1092 795 1092 504 c 0
 1092 333 1055 190 987 101 c 1
 1162 134 1247 250 1247 504 c 2
 1247 1047 l 2
 1247 1121 1247 1265 1359 1309 c 1
 1390 1226 l 1
 1350 1209 1337 1144 1337 1047 c 2
 1337 504 l 2
 1337 132 1153 2 875 0 c 1
 777 0 l 1
 806 90 l 1
 922 90 1000 275 1000 502 c 0
 1000 728 922 912 806 912 c 0
 687 912 638 799 638 690 c 2
 638 391 l 1
 549 391 l 1
EndSplineSet
Validated: 1
EndChar

StartChar: uni0E58
Encoding: 3672 3672 308
Width: 1401
VWidth: 2982
Flags: W
HStem: -15 89<854.664 1133.67> 886 90<662.734 1164.51> 912 88<436.683 999.211>
VStem: 79 89<300.037 672.206> 1202 94<144.677 284> 1265 89<1085.55 1280>
DStem2: 521 79 575 -17 0.365652 0.930752<-7.96323 170.893>
LayerCount: 2
Fore
SplineSet
1202 284 m 1xb8
 1296 284 l 1
 1296 81 1164 -15 978 -15 c 0
 857 -15 734 72 660 208 c 1
 575 -17 l 1
 161 0 79 325 79 508 c 0
 79 790 342 1000 656 1000 c 0xb8
 824 1000 931 976 1003 976 c 0
 1162 976 1265 1059 1265 1280 c 1
 1354 1280 l 1
 1354 965 1164 886 1003 886 c 0xd4
 914 886 818 912 654 912 c 0
 378 912 168 732 168 508 c 0
 168 297 284 101 521 79 c 1
 620 331 l 1
 705 331 l 1
 752 179 867 74 976 74 c 0
 1104 74 1202 126 1202 284 c 1xb8
EndSplineSet
Validated: 1
EndChar

StartChar: uni0E59
Encoding: 3673 3673 309
Width: 1401
VWidth: 2982
Flags: W
HStem: -15 89<357.22 630.25> 920 90<379.401 680.302 966.371 1130.03>
VStem: 94 90<291.556 706.025> 705 96<149.925 293> 1032 89<7.22813 225.443> 1249 90<948.856 1338.02>
LayerCount: 2
Fore
SplineSet
705 293 m 1
 801 293 l 1
 801 101 694 -15 481 -15 c 0
 291 -15 94 215 94 508 c 0
 94 797 299 1010 521 1010 c 0
 647 1010 754 961 844 850 c 1
 882 933 942 1006 1043 1006 c 0
 1117 1006 1162 969 1196 929 c 1
 1231 1003 1249 1090 1249 1191 c 0
 1249 1238 1247 1288 1241 1337 c 1
 1330 1350 l 1
 1337 1296 1339 1243 1339 1191 c 0
 1339 1027 1296 884 1196 763 c 1
 1168 824 1130 916 1045 916 c 0
 989 916 947 878 906 759 c 1
 998 600 1070 359 1121 9 c 1
 1032 -2 l 1
 920 754 724 920 521 920 c 0
 361 920 184 754 184 508 c 0
 184 248 344 74 479 74 c 0
 607 74 705 134 705 293 c 1
EndSplineSet
Validated: 1
EndChar

StartChar: uni0E5A
Encoding: 3674 3674 310
Width: 1344
VWidth: 2982
Flags: W
HStem: 0 21G<875 961 1090 1179> 767 90<249.872 580.538> 1119 90<269.844 401> 1174 20G<862 961 1090 1179>
VStem: 124 84<899.945 1058.67> 875 86<0 1027 1126.24 1194> 1090 89<0 1194>
LayerCount: 2
Fore
SplineSet
1090 0 m 1xde
 1090 1194 l 1
 1179 1194 l 1
 1179 0 l 1
 1090 0 l 1xde
875 0 m 1
 875 1027 l 1
 788 916 618 767 403 767 c 0
 271 767 124 839 124 974 c 0
 124 1100 250 1209 401 1209 c 1
 401 1119 l 1xee
 284 1119 208 1036 208 974 c 0
 208 880 349 857 401 857 c 0
 656 857 853 1128 871 1194 c 1
 961 1194 l 1
 961 0 l 1
 875 0 l 1
EndSplineSet
Validated: 1
EndChar

StartChar: uni0E5B
Encoding: 3675 3675 311
Width: 2661
VWidth: 2982
Flags: W
HStem: -15 89<400.571 727.883> 383 89<496.132 640.394> 538 60<2372.22 2597.03> 585 88<2036.77 2365.86> 724 88<496.992 635.347> 1119 90<367.727 611.096>
VStem: 92 85<339.826 851.077> 385 87<493.027 701.516> 724 98<714.83 986.249> 985 87<956.765 1044.95>
DStem2: 1229 427 1072 692 0.260033 -0.9656<-296.709 0> 1229 427 1288 224 0.20206 0.979373<0 295.175> 1417 897 1386 696 0.271518 -0.962433<185.032 412.496> 1529 500 1659 647 0.242536 0.970142<0 174.141> 1788 546 1659 647 0.328521 -0.944497<-137.773 0>
LayerCount: 2
Fore
SplineSet
566 812 m 0xefc0
 636 812 690 771 718 714 c 1
 724 734 724 754 724 777 c 0
 724 965 636 1119 493 1119 c 0
 316 1119 177 878 177 585 c 0
 177 226 396 74 544 74 c 0
 773 74 985 224 985 912 c 2
 985 994 l 2
 985 1027 1008 1045 1030 1045 c 0
 1047 1045 1066 1034 1072 1010 c 2
 1229 427 l 1
 1327 902 l 1
 1335 929 1352 944 1372 944 c 0
 1392 944 1410 929 1417 897 c 1
 1529 500 l 1
 1610 818 l 1
 1619 848 1636 865 1652 865 c 0
 1668 865 1683 848 1692 822 c 2
 1788 546 l 1
 1845 743 l 1
 1854 781 1865 799 1878 799 c 0
 1892 799 1907 784 1925 754 c 1
 2008 628 l 1
 2087 662 2149 673 2205 673 c 0xdfc0
 2319 673 2390 598 2489 598 c 0
 2552 598 2604 618 2625 618 c 0
 2634 618 2642 615 2642 607 c 0
 2642 579 2543 538 2489 538 c 0xefc0
 2382 538 2294 585 2205 585 c 0
 2155 585 2097 573 2014 530 c 1
 1995 517 1967 528 1954 549 c 2
 1905 624 l 1
 1835 385 l 1
 1826 359 1811 344 1795 344 c 0
 1777 344 1762 359 1753 383 c 2
 1659 647 l 1
 1574 307 l 2
 1567 278 1547 262 1529 262 c 0
 1511 262 1495 275 1489 305 c 1
 1386 696 l 1
 1288 224 l 1
 1280 192 1262 177 1245 177 c 0
 1226 177 1209 192 1200 224 c 2
 1072 692 l 1
 1038 297 906 -15 549 -15 c 0
 342 -15 92 188 92 585 c 0xdfc0
 92 922 252 1209 493 1209 c 0
 690 1209 822 1027 822 767 c 0
 822 538 718 383 566 383 c 0
 459 383 385 483 385 598 c 0
 385 709 459 812 566 812 c 0xefc0
472 598 m 0xefc0
 472 528 517 472 562 472 c 0
 643 472 662 555 662 598 c 0
 662 671 611 724 566 724 c 0
 521 724 472 671 472 598 c 0xefc0
EndSplineSet
Validated: 1
EndChar

StartChar: Euro
Encoding: 8364 8364 313
Width: 1160
VWidth: 2982
Flags: W
HStem: -15 89<575.359 947.283> 521 90<69 154 260 1000> 880 89<69 154 260 1000> 1421 85<581.274 933.146>
VStem: 145 86<611 880>
LayerCount: 2
Fore
SplineSet
1092 1388 m 1
 1036 1314 l 1
 955 1379 859 1421 759 1421 c 0
 534 1421 333 1235 260 969 c 1
 1030 969 l 1
 1000 880 l 1
 242 880 l 1
 235 837 231 792 231 745 c 0
 231 701 235 656 242 611 c 1
 1030 611 l 1
 1000 521 l 1
 260 521 l 1
 333 258 534 74 759 74 c 0
 859 74 955 107 1036 173 c 1
 1092 105 l 1
 996 30 884 -15 761 -15 c 0
 481 -15 250 215 173 521 c 1
 38 521 l 1
 69 611 l 1
 154 611 l 1
 150 656 145 701 145 745 c 0
 145 792 150 837 154 880 c 1
 38 880 l 1
 69 969 l 1
 173 969 l 1
 250 1278 481 1506 761 1506 c 0
 884 1506 996 1461 1092 1388 c 1
EndSplineSet
Validated: 1
EndChar

StartChar: uni25CC
Encoding: 9676 9676 314
Width: 1389
VWidth: 2982
Flags: W
HStem: -36 190<617.625 779.328> 114 191<259.625 420.375 946.129 1106.21> 440 194<142.137 299.705 1090.45 1248.71> 741 190<259.625 420.375 946.129 1106.21> 920 190<617.625 779.328>
VStem: 126 190<455.718 618.375> 244 192<130.031 288.547 757.295 914.863> 602 193<-19.5996 137.705 936.295 1093.86> 931 190<128.788 289.825 756.036 916.119> 1074 191<455.718 618.375>
LayerCount: 2
Fore
SplineSet
1027 305 m 0x6180
 1079 305 1121 262 1121 208 c 0
 1121 156 1079 114 1027 114 c 0
 974 114 931 156 931 208 c 0
 931 262 974 305 1027 305 c 0x6180
340 305 m 0
 391 305 436 262 436 208 c 0
 436 156 391 114 340 114 c 0
 289 114 244 156 244 208 c 0x63
 244 262 289 305 340 305 c 0
1027 931 m 0x3180
 1079 931 1121 889 1121 835 c 0
 1121 784 1079 741 1027 741 c 0
 974 741 931 784 931 835 c 0
 931 889 974 931 1027 931 c 0x3180
698 154 m 0xa1
 750 154 795 111 795 60 c 0
 795 7 750 -36 698 -36 c 0
 647 -36 602 7 602 60 c 0
 602 111 647 154 698 154 c 0xa1
340 931 m 0x33
 391 931 436 889 436 835 c 0
 436 784 391 741 340 741 c 0
 289 741 244 784 244 835 c 0
 244 889 289 931 340 931 c 0x33
222 634 m 0
 273 634 316 589 316 538 c 0
 316 485 273 440 222 440 c 0
 168 440 126 485 126 538 c 0x25
 126 589 168 634 222 634 c 0
698 1110 m 0x29
 750 1110 795 1068 795 1014 c 0
 795 963 750 920 698 920 c 0
 647 920 602 963 602 1014 c 0
 602 1068 647 1110 698 1110 c 0x29
1171 634 m 0
 1222 634 1265 589 1265 538 c 0
 1265 485 1222 440 1171 440 c 0
 1117 440 1074 485 1074 538 c 0x2140
 1074 589 1117 634 1171 634 c 0
EndSplineSet
Validated: 1
EndChar

StartChar: uni0E10.descless
Encoding: 63232 63232 315
Width: 1168
VWidth: 2982
Flags: W
HStem: 0 21G<914 1003> 553 90<589 914> 1119 90<386.655 728.756>
VStem: 114 89<763 926.818> 914 89<0 553 643 933.305>
LayerCount: 2
Fore
SplineSet
914 643 m 1
 914 763 l 2
 914 961 754 1119 557 1119 c 0
 361 1119 203 961 203 763 c 1
 114 763 l 1
 114 1010 314 1209 557 1209 c 0
 656 1209 745 1175 822 1121 c 1
 933 1198 l 1
 985 1121 l 1
 889 1059 l 1
 961 983 1003 878 1003 763 c 2
 1003 0 l 1
 914 0 l 1
 914 553 l 1
 557 553 l 1
 589 643 l 1
 914 643 l 1
EndSplineSet
Validated: 1
EndChar

StartChar: uni0E34.left
Encoding: 63233 63233 316
Width: 0
VWidth: 2982
Flags: W
HStem: 1350 89<-1162 -361>
LayerCount: 2
Fore
SplineSet
-361 1439 m 1
 -361 1350 l 1
 -1220 1350 l 1
 -1162 1439 l 1
 -361 1439 l 1
EndSplineSet
Validated: 1
EndChar

StartChar: uni0E35.left
Encoding: 63234 63234 317
Width: 0
VWidth: 2982
Flags: W
HStem: 1350 205<-450 -361> 1350 89<-1162 -450>
VStem: -450 89<1439 1555>
LayerCount: 2
Fore
SplineSet
-450 1439 m 5x60
 -450 1555 l 5
 -361 1555 l 5
 -361 1350 l 5xa0
 -1220 1350 l 5
 -1162 1439 l 5
 -450 1439 l 5x60
EndSplineSet
Validated: 1
EndChar

